Sura-Regular.ufo
<glyph name="ampersand" format="1">
  <advance width="725"/>
  <unicode hex="0026"/>
  <outline>
    <contour>
      <point x="202" y="662"/>
      <point x="122" y="624"/>
      <point x="122" y="522" type="curve" smooth="yes"/>
      <point x="122" y="478"/>
      <point x="142" y="433"/>
      <point x="175" y="386" type="curve"/>
      <point x="96" y="339"/>
      <point x="50" y="277"/>
      <point x="50" y="190" type="curve" smooth="yes"/>
      <point x="50" y="66"/>
      <point x="152" y="-10"/>
      <point x="276" y="-10" type="curve" smooth="yes"/>
      <point x="361" y="-10"/>
      <point x="434" y="20"/>
      <point x="485" y="71" type="curve"/>
      <point x="531" y="25" type="line"/>
      <point x="539" y="0" type="line"/>
      <point x="560" y="0" type="line" smooth="yes"/>
      <point x="640" y="0"/>
      <point x="689" y="0"/>
      <point x="689" y="0" type="curve"/>
      <point x="696" y="54" type="line"/>
      <point x="617" y="61" type="line"/>
      <point x="595" y="77"/>
      <point x="563" y="100"/>
      <point x="559" y="104" type="curve"/>
      <point x="529" y="132" type="line"/>
      <point x="550" y="171"/>
      <point x="561" y="216"/>
      <point x="561" y="267" type="curve" smooth="yes"/>
      <point x="561" y="307"/>
      <point x="565" y="329"/>
      <point x="566" y="336" type="curve"/>
      <point x="487" y="336" type="line"/>
      <point x="489" y="327"/>
      <point x="496" y="296"/>
      <point x="496" y="279" type="curve" smooth="yes"/>
      <point x="496" y="241"/>
      <point x="491" y="206"/>
      <point x="480" y="177" type="curve"/>
      <point x="345" y="301"/>
      <point x="210" y="428"/>
      <point x="210" y="522" type="curve" smooth="yes"/>
      <point x="210" y="577"/>
      <point x="249" y="613"/>
      <point x="304" y="613" type="curve" smooth="yes"/>
      <point x="344" y="613"/>
      <point x="372" y="599"/>
      <point x="386" y="588" type="curve"/>
      <point x="386" y="588"/>
      <point x="396" y="547"/>
      <point x="396" y="540" type="curve" smooth="yes"/>
      <point x="396" y="533"/>
      <point x="394" y="494"/>
      <point x="394" y="494" type="curve"/>
      <point x="449" y="491" type="line"/>
      <point x="462" y="631" type="line"/>
      <point x="433" y="642"/>
      <point x="354" y="662"/>
      <point x="304" y="662" type="curve" smooth="yes"/>
    </contour>
    <contour>
      <point x="274" y="264"/>
      <point x="361" y="188"/>
      <point x="441" y="112" type="curve"/>
      <point x="404" y="72"/>
      <point x="349" y="50"/>
      <point x="277" y="50" type="curve" smooth="yes"/>
      <point x="194" y="50"/>
      <point x="139" y="114"/>
      <point x="139" y="197" type="curve" smooth="yes"/>
      <point x="139" y="254"/>
      <point x="161" y="301"/>
      <point x="211" y="339" type="curve"/>
    </contour>
    <contour>
      <point x="640" y="402" type="line"/>
      <point x="640" y="402"/>
      <point x="562" y="397"/>
      <point x="529" y="397" type="curve" smooth="yes"/>
      <point x="509" y="397"/>
      <point x="414" y="402"/>
      <point x="414" y="402" type="curve"/>
      <point x="409" y="348" type="line"/>
      <point x="486" y="336" type="line"/>
      <point x="566" y="336" type="line"/>
      <point x="644" y="343" type="line"/>
    </contour>
  </outline>
</glyph>
<glyph name="parenleft" format="1">
  <advance width="271"/>
  <unicode hex="0028"/>
  <outline>
    <contour>
      <point x="132" y="452"/>
      <point x="160" y="549"/>
      <point x="191" y="631" type="curve" smooth="yes"/>
      <point x="199" y="652"/>
      <point x="261" y="743"/>
      <point x="261" y="743" type="curve"/>
      <point x="229" y="769" type="line"/>
      <point x="104" y="644"/>
      <point x="50" y="487"/>
      <point x="50" y="317" type="curve"/>
      <point x="50" y="147"/>
      <point x="104" y="-10"/>
      <point x="229" y="-135" type="curve"/>
      <point x="261" y="-109" type="line"/>
      <point x="261" y="-109"/>
      <point x="199" y="-18"/>
      <point x="191" y="3" type="curve" smooth="yes"/>
      <point x="160" y="85"/>
      <point x="132" y="182"/>
      <point x="132" y="317" type="curve"/>
    </contour>
  </outline>
</glyph>
<glyph name="asterisk" format="1">
  <advance width="409"/>
  <unicode hex="002A"/>
  <outline>
    <contour>
      <point x="61" y="674" type="line"/>
      <point x="44" y="634" type="line"/>
      <point x="92" y="607" type="line" smooth="yes"/>
      <point x="98" y="603"/>
      <point x="155" y="558"/>
      <point x="164" y="550" type="curve"/>
      <point x="347" y="468" type="line"/>
      <point x="364" y="508" type="line"/>
      <point x="315" y="536" type="line" smooth="yes"/>
      <point x="309" y="539"/>
      <point x="254" y="584"/>
      <point x="245" y="591" type="curve"/>
    </contour>
    <contour>
      <point x="43" y="499" type="line"/>
      <point x="69" y="464" type="line"/>
      <point x="117" y="492" type="line" smooth="yes"/>
      <point x="123" y="495"/>
      <point x="191" y="522"/>
      <point x="202" y="526" type="curve"/>
      <point x="365" y="643" type="line"/>
      <point x="339" y="678" type="line"/>
      <point x="290" y="650" type="line" smooth="yes"/>
      <point x="284" y="646"/>
      <point x="218" y="621"/>
      <point x="207" y="617" type="curve"/>
    </contour>
    <contour>
      <point x="186" y="396" type="line"/>
      <point x="229" y="401" type="line"/>
      <point x="229" y="456" type="line" smooth="yes"/>
      <point x="229" y="463"/>
      <point x="240" y="535"/>
      <point x="242" y="547" type="curve"/>
      <point x="222" y="746" type="line"/>
      <point x="179" y="741" type="line"/>
      <point x="179" y="685" type="line" smooth="yes"/>
      <point x="179" y="678"/>
      <point x="168" y="608"/>
      <point x="166" y="597" type="curve"/>
    </contour>
  </outline>
</glyph>
<glyph name="comma" format="1">
  <advance width="220"/>
  <unicode hex="002C"/>
  <outline>
    <contour>
      <point x="69" y="-7"/>
      <point x="50" y="24"/>
      <point x="50" y="60" type="curve" smooth="yes"/>
      <point x="50" y="99"/>
      <point x="73" y="129"/>
      <point x="112" y="129" type="curve" smooth="yes"/>
      <point x="159" y="129"/>
      <point x="175" y="87"/>
      <point x="175" y="40" type="curve" smooth="yes"/>
      <point x="175" y="-34"/>
      <point x="132" y="-117"/>
      <point x="44" y="-136" type="curve"/>
      <point x="34" y="-104" type="line"/>
      <point x="77" y="-86"/>
      <point x="105" y="-52"/>
      <point x="105" y="-10" type="curve"/>
    </contour>
  </outline>
</glyph>
<glyph name="hyphen" format="1">
  <advance width="282"/>
  <unicode hex="002D"/>
  <outline>
    <contour>
      <point x="32" y="216" type="line"/>
      <point x="247" y="216" type="line"/>
      <point x="252" y="291" type="line"/>
      <point x="30" y="291" type="line"/>
    </contour>
  </outline>
</glyph>
<glyph name="period" format="1">
  <advance width="213"/>
  <unicode hex="002E"/>
  <outline>
    <contour>
      <point x="144" y="129"/>
      <point x="168" y="103"/>
      <point x="168" y="59" type="curve" smooth="yes"/>
      <point x="168" y="18"/>
      <point x="145" y="-10"/>
      <point x="104" y="-10" type="curve" smooth="yes"/>
      <point x="63" y="-10"/>
      <point x="40" y="18"/>
      <point x="40" y="59" type="curve" smooth="yes"/>
      <point x="40" y="100"/>
      <point x="63" y="129"/>
      <point x="104" y="129" type="curve" smooth="yes"/>
    </contour>
  </outline>
</glyph>
<glyph name="two" format="1">
  <advance width="515"/>
  <unicode hex="0032"/>
  <outline>
    <contour>
      <point x="173" y="662"/>
      <point x="125" y="653"/>
      <point x="57" y="626" type="curve"/>
      <point x="70" y="479" type="line"/>
      <point x="125" y="482" type="line"/>
      <point x="123" y="527" type="line"/>
      <point x="123" y="537"/>
      <point x="128" y="562"/>
      <point x="133" y="578" type="curve"/>
      <point x="167" y="598"/>
      <point x="196" y="606"/>
      <point x="233" y="606" type="curve" smooth="yes"/>
      <point x="301" y="606"/>
      <point x="348" y="557"/>
      <point x="348" y="486" type="curve" smooth="yes"/>
      <point x="348" y="399"/>
      <point x="314" y="353"/>
      <point x="36" y="73" type="curve"/>
      <point x="50" y="0" type="line"/>
      <point x="326" y="0" type="line" smooth="yes"/>
      <point x="350" y="0"/>
      <point x="447" y="-3"/>
      <point x="447" y="-3" type="curve"/>
      <point x="466" y="17" type="line"/>
      <point x="475" y="159" type="line"/>
      <point x="420" y="163" type="line"/>
      <point x="415" y="116" type="line"/>
      <point x="413" y="111"/>
      <point x="410" y="102"/>
      <point x="401" y="81" type="curve"/>
      <point x="336" y="74"/>
      <point x="320" y="73"/>
      <point x="317" y="73" type="curve" smooth="yes"/>
      <point x="129" y="73" type="line"/>
      <point x="376" y="300"/>
      <point x="443" y="381"/>
      <point x="443" y="501" type="curve" smooth="yes"/>
      <point x="443" y="603"/>
      <point x="367" y="662"/>
      <point x="243" y="662" type="curve" smooth="yes"/>
    </contour>
  </outline>
</glyph>
<glyph name="A" format="1">
  <advance width="660"/>
  <unicode hex="0041"/>
  <outline>
    <contour>
      <point x="448" y="172" type="line" smooth="yes"/>
      <point x="460" y="137"/>
      <point x="467" y="100"/>
      <point x="475" y="64" type="curve"/>
      <point x="402" y="44" type="line"/>
      <point x="406" y="-5" type="line"/>
      <point x="406" y="-5"/>
      <point x="518" y="0"/>
      <point x="549" y="0" type="curve"/>
      <point x="650" y="0" type="line"/>
      <point x="655" y="54" type="line"/>
      <point x="593" y="64" type="line"/>
      <point x="580" y="91"/>
      <point x="564" y="120"/>
      <point x="554" y="149" type="curve" smooth="yes"/>
      <point x="348" y="715" type="line"/>
      <point x="290" y="705" type="line"/>
      <point x="111" y="160" type="line" smooth="yes"/>
      <point x="100" y="126"/>
      <point x="82" y="89"/>
      <point x="68" y="61" type="curve"/>
      <point x="5" y="44" type="line"/>
      <point x="9" y="-5" type="line"/>
      <point x="9" y="-5"/>
      <point x="119" y="0"/>
      <point x="144" y="0" type="curve"/>
      <point x="230" y="0" type="line"/>
      <point x="235" y="54" type="line"/>
      <point x="165" y="64" type="line"/>
      <point x="167" y="85"/>
      <point x="169" y="107"/>
      <point x="175" y="127" type="curve" smooth="yes"/>
      <point x="313" y="557" type="line"/>
    </contour>
    <contour>
      <point x="412" y="285" type="line"/>
      <point x="220" y="285" type="line"/>
      <point x="202" y="232" type="line"/>
      <point x="432" y="232" type="line"/>
    </contour>
    <contour>
      <point x="650" y="0" type="move" name="ogonek"/>
    </contour>
    <contour>
      <point x="318" y="0" type="move" name="bottom"/>
    </contour>
    <contour>
      <point x="322" y="705" type="move" name="top"/>
    </contour>
  </outline>
</glyph>
<glyph name="B" format="1">
  <advance width="596"/>
  <unicode hex="0042"/>
  <outline>
    <contour>
      <point x="44" y="710" type="curve"/>
      <point x="39" y="656" type="line"/>
      <point x="116" y="644" type="line"/>
      <point x="118" y="631"/>
      <point x="125" y="585"/>
      <point x="125" y="568" type="curve" smooth="yes"/>
      <point x="125" y="137" type="line" smooth="yes"/>
      <point x="125" y="120"/>
      <point x="118" y="74"/>
      <point x="116" y="61" type="curve"/>
      <point x="37" y="45" type="line"/>
      <point x="42" y="-5" type="line"/>
      <point x="42" y="-5"/>
      <point x="152" y="0"/>
      <point x="177" y="0" type="curve"/>
      <point x="227" y="0"/>
      <point x="294" y="-4"/>
      <point x="344" y="-4" type="curve" smooth="yes"/>
      <point x="458" y="-4"/>
      <point x="548" y="69"/>
      <point x="548" y="183" type="curve" smooth="yes"/>
      <point x="548" y="287"/>
      <point x="477" y="348"/>
      <point x="378" y="363" type="curve"/>
      <point x="378" y="370" type="line"/>
      <point x="459" y="390"/>
      <point x="517" y="455"/>
      <point x="517" y="543" type="curve" smooth="yes"/>
      <point x="517" y="648"/>
      <point x="430" y="710"/>
      <point x="327" y="710" type="curve" smooth="yes"/>
      <point x="277" y="710"/>
      <point x="209" y="705"/>
      <point x="159" y="705" type="curve" smooth="yes"/>
      <point x="139" y="705"/>
      <point x="64" y="709"/>
    </contour>
    <contour>
      <point x="248" y="656"/>
      <point x="277" y="656"/>
      <point x="306" y="656" type="curve" smooth="yes"/>
      <point x="376" y="656"/>
      <point x="424" y="606"/>
      <point x="424" y="531" type="curve" smooth="yes"/>
      <point x="424" y="442"/>
      <point x="362" y="394"/>
      <point x="282" y="394" type="curve" smooth="yes"/>
      <point x="275" y="394" type="line"/>
      <point x="268" y="337" type="line"/>
      <point x="279" y="337" type="line" smooth="yes"/>
      <point x="368" y="337"/>
      <point x="447" y="292"/>
      <point x="447" y="191" type="curve" smooth="yes"/>
      <point x="447" y="102"/>
      <point x="392" y="54"/>
      <point x="313" y="54" type="curve" smooth="yes"/>
      <point x="280" y="54"/>
      <point x="247" y="57"/>
      <point x="222" y="59" type="curve"/>
      <point x="220" y="71"/>
      <point x="216" y="123"/>
      <point x="216" y="167" type="curve" smooth="yes"/>
      <point x="216" y="538" type="line" smooth="yes"/>
      <point x="216" y="582"/>
      <point x="221" y="642"/>
      <point x="223" y="655" type="curve"/>
    </contour>
  </outline>
</glyph>
<glyph name="D" format="1">
  <advance width="704"/>
  <unicode hex="0044"/>
  <outline>
    <contour>
      <point x="44" y="710" type="curve"/>
      <point x="39" y="656" type="line"/>
      <point x="116" y="644" type="line"/>
      <point x="118" y="631"/>
      <point x="125" y="585"/>
      <point x="125" y="568" type="curve" smooth="yes"/>
      <point x="125" y="137" type="line" smooth="yes"/>
      <point x="125" y="120"/>
      <point x="118" y="74"/>
      <point x="116" y="61" type="curve"/>
      <point x="37" y="45" type="line"/>
      <point x="42" y="-5" type="line"/>
      <point x="42" y="-5"/>
      <point x="152" y="0"/>
      <point x="177" y="0" type="curve" smooth="yes"/>
      <point x="227" y="0"/>
      <point x="279" y="-4"/>
      <point x="329" y="-4" type="curve" smooth="yes"/>
      <point x="545" y="-4"/>
      <point x="674" y="141"/>
      <point x="674" y="352" type="curve" smooth="yes"/>
      <point x="674" y="570"/>
      <point x="552" y="710"/>
      <point x="329" y="710" type="curve" smooth="yes"/>
      <point x="263" y="710"/>
      <point x="223" y="705"/>
      <point x="159" y="705" type="curve" smooth="yes"/>
      <point x="139" y="705"/>
      <point x="77" y="708"/>
    </contour>
    <contour>
      <point x="497" y="650"/>
      <point x="575" y="514"/>
      <point x="575" y="352" type="curve" smooth="yes"/>
      <point x="575" y="189"/>
      <point x="497" y="55"/>
      <point x="330" y="55" type="curve" smooth="yes"/>
      <point x="286" y="55"/>
      <point x="249" y="57"/>
      <point x="223" y="58" type="curve"/>
      <point x="222" y="62"/>
      <point x="216" y="119"/>
      <point x="216" y="167" type="curve" smooth="yes"/>
      <point x="216" y="538" type="line" smooth="yes"/>
      <point x="216" y="578"/>
      <point x="221" y="631"/>
      <point x="223" y="650" type="curve"/>
      <point x="248" y="650"/>
      <point x="284" y="650"/>
      <point x="330" y="650" type="curve" smooth="yes"/>
    </contour>
    <contour>
      <point x="356" y="353" type="move" name="center"/>
    </contour>
    <contour>
      <point x="326" y="705" type="move" name="top"/>
    </contour>
  </outline>
</glyph>
<glyph name="F" format="1">
  <advance width="551"/>
  <unicode hex="0046"/>
  <outline>
    <contour>
      <point x="39" y="656" type="line"/>
      <point x="116" y="644" type="line"/>
      <point x="118" y="631"/>
      <point x="125" y="585"/>
      <point x="125" y="568" type="curve" smooth="yes"/>
      <point x="125" y="137" type="line" smooth="yes"/>
      <point x="125" y="120"/>
      <point x="118" y="74"/>
      <point x="116" y="61" type="curve"/>
      <point x="37" y="45" type="line"/>
      <point x="42" y="-5" type="line"/>
      <point x="42" y="-5"/>
      <point x="152" y="0"/>
      <point x="177" y="0" type="curve" smooth="yes"/>
      <point x="257" y="0"/>
      <point x="316" y="0"/>
      <point x="316" y="0" type="curve"/>
      <point x="323" y="54" type="line"/>
      <point x="223" y="61" type="line"/>
      <point x="221" y="75"/>
      <point x="216" y="125"/>
      <point x="216" y="167" type="curve" smooth="yes"/>
      <point x="216" y="330" type="line"/>
      <point x="312" y="330" type="line"/>
      <point x="332" y="330"/>
      <point x="392" y="324"/>
      <point x="392" y="324" type="curve"/>
      <point x="401" y="257" type="line"/>
      <point x="449" y="263" type="line"/>
      <point x="449" y="263"/>
      <point x="446" y="322"/>
      <point x="446" y="372" type="curve" smooth="yes"/>
      <point x="446" y="392"/>
      <point x="447" y="456"/>
      <point x="447" y="456" type="curve"/>
      <point x="401" y="461" type="line"/>
      <point x="392" y="395" type="line"/>
      <point x="392" y="395"/>
      <point x="352" y="386"/>
      <point x="332" y="386" type="curve"/>
      <point x="216" y="386" type="line"/>
      <point x="216" y="538" type="line" smooth="yes"/>
      <point x="216" y="577"/>
      <point x="221" y="628"/>
      <point x="223" y="649" type="curve"/>
      <point x="354" y="649" type="line" smooth="yes"/>
      <point x="382" y="649"/>
      <point x="413" y="646"/>
      <point x="435" y="644" type="curve"/>
      <point x="445" y="631"/>
      <point x="454" y="617"/>
      <point x="455" y="610" type="curve"/>
      <point x="459" y="595"/>
      <point x="464" y="572"/>
      <point x="466" y="556" type="curve"/>
      <point x="524" y="561" type="line"/>
      <point x="517" y="692" type="line"/>
      <point x="498" y="710" type="line"/>
      <point x="498" y="710"/>
      <point x="404" y="705"/>
      <point x="384" y="705" type="curve" smooth="yes"/>
      <point x="159" y="705" type="line" smooth="yes"/>
      <point x="139" y="705"/>
      <point x="44" y="710"/>
      <point x="44" y="710" type="curve"/>
    </contour>
  </outline>
</glyph>
<glyph name="G" format="1">
  <advance width="665"/>
  <unicode hex="0047"/>
  <outline>
    <contour>
      <point x="509" y="619"/>
      <point x="515" y="598"/>
      <point x="515" y="589" type="curve" smooth="yes"/>
      <point x="515" y="542" type="line"/>
      <point x="574" y="538" type="line"/>
      <point x="584" y="686" type="line"/>
      <point x="517" y="702"/>
      <point x="451" y="720"/>
      <point x="364" y="720" type="curve" smooth="yes"/>
      <point x="143" y="720"/>
      <point x="30" y="570"/>
      <point x="30" y="352" type="curve" smooth="yes"/>
      <point x="30" y="134"/>
      <point x="143" y="-15"/>
      <point x="364" y="-15" type="curve" smooth="yes"/>
      <point x="450" y="-15"/>
      <point x="526" y="3"/>
      <point x="593" y="19" type="curve"/>
      <point x="593" y="166" type="line" smooth="yes"/>
      <point x="593" y="216"/>
      <point x="602" y="319"/>
      <point x="602" y="319" type="curve"/>
      <point x="584" y="336" type="line"/>
      <point x="584" y="336"/>
      <point x="533" y="333"/>
      <point x="513" y="333" type="curve"/>
      <point x="402" y="333" type="line"/>
      <point x="397" y="275" type="line"/>
      <point x="503" y="267" type="line"/>
      <point x="503" y="267"/>
      <point x="513" y="216"/>
      <point x="513" y="196" type="curve" smooth="yes"/>
      <point x="513" y="128" type="line" smooth="yes"/>
      <point x="513" y="117"/>
      <point x="507" y="89"/>
      <point x="501" y="63" type="curve"/>
      <point x="456" y="51"/>
      <point x="401" y="43"/>
      <point x="361" y="43" type="curve" smooth="yes"/>
      <point x="206" y="43"/>
      <point x="131" y="180"/>
      <point x="131" y="353" type="curve" smooth="yes"/>
      <point x="131" y="526"/>
      <point x="206" y="662"/>
      <point x="361" y="662" type="curve" smooth="yes"/>
      <point x="404" y="662"/>
      <point x="459" y="652"/>
      <point x="503" y="639" type="curve"/>
    </contour>
    <contour>
      <point x="378" y="705" type="move" name="top"/>
    </contour>
    <contour>
      <point x="380" y="0" type="move" name="bottom"/>
    </contour>
  </outline>
</glyph>
<glyph name="H" format="1">
  <advance width="765"/>
  <unicode hex="0048"/>
  <outline>
    <contour>
      <point x="552" y="383" type="line"/>
      <point x="211" y="378" type="line"/>
      <point x="211" y="327" type="line"/>
      <point x="552" y="327" type="line"/>
    </contour>
    <contour>
      <point x="297" y="710" type="line"/>
      <point x="297" y="710"/>
      <point x="219" y="705"/>
      <point x="159" y="705" type="curve" smooth="yes"/>
      <point x="139" y="705"/>
      <point x="44" y="710"/>
      <point x="44" y="710" type="curve"/>
      <point x="39" y="656" type="line"/>
      <point x="116" y="644" type="line"/>
      <point x="118" y="631"/>
      <point x="125" y="585"/>
      <point x="125" y="568" type="curve" smooth="yes"/>
      <point x="125" y="137" type="line" smooth="yes"/>
      <point x="125" y="120"/>
      <point x="118" y="74"/>
      <point x="116" y="61" type="curve"/>
      <point x="37" y="45" type="line"/>
      <point x="42" y="-5" type="line"/>
      <point x="42" y="-5"/>
      <point x="152" y="0"/>
      <point x="177" y="0" type="curve"/>
      <point x="306" y="0" type="line"/>
      <point x="313" y="54" type="line"/>
      <point x="223" y="61" type="line"/>
      <point x="221" y="75"/>
      <point x="216" y="125"/>
      <point x="216" y="167" type="curve" smooth="yes"/>
      <point x="216" y="538" type="line" smooth="yes"/>
      <point x="216" y="580"/>
      <point x="221" y="630"/>
      <point x="223" y="644" type="curve"/>
      <point x="301" y="651" type="line"/>
    </contour>
    <contour>
      <point x="719" y="710" type="line"/>
      <point x="719" y="710"/>
      <point x="641" y="705"/>
      <point x="581" y="705" type="curve" smooth="yes"/>
      <point x="561" y="705"/>
      <point x="466" y="710"/>
      <point x="466" y="710" type="curve"/>
      <point x="461" y="656" type="line"/>
      <point x="538" y="644" type="line"/>
      <point x="540" y="631"/>
      <point x="547" y="585"/>
      <point x="547" y="568" type="curve" smooth="yes"/>
      <point x="547" y="137" type="line" smooth="yes"/>
      <point x="547" y="120"/>
      <point x="540" y="74"/>
      <point x="538" y="61" type="curve"/>
      <point x="459" y="45" type="line"/>
      <point x="464" y="-5" type="line"/>
      <point x="464" y="-5"/>
      <point x="574" y="0"/>
      <point x="599" y="0" type="curve"/>
      <point x="728" y="0" type="line"/>
      <point x="735" y="54" type="line"/>
      <point x="645" y="61" type="line"/>
      <point x="643" y="75"/>
      <point x="638" y="125"/>
      <point x="638" y="167" type="curve" smooth="yes"/>
      <point x="638" y="538" type="line" smooth="yes"/>
      <point x="638" y="580"/>
      <point x="643" y="630"/>
      <point x="645" y="644" type="curve"/>
      <point x="723" y="651" type="line"/>
    </contour>
    <contour>
      <point x="382" y="353" type="move" name="center"/>
    </contour>
    <contour>
      <point x="382" y="705" type="move" name="top"/>
    </contour>
  </outline>
</glyph>
<glyph name="J" format="1">
  <advance width="302"/>
  <unicode hex="004A"/>
  <outline>
    <contour>
      <point x="119" y="705"/>
      <point x="24" y="710"/>
      <point x="24" y="710" type="curve"/>
      <point x="19" y="656" type="line"/>
      <point x="96" y="644" type="line"/>
      <point x="98" y="631"/>
      <point x="105" y="585"/>
      <point x="105" y="568" type="curve" smooth="yes"/>
      <point x="105" y="11" type="line" smooth="yes"/>
      <point x="105" y="-9"/>
      <point x="25" y="-178"/>
      <point x="25" y="-178" type="curve"/>
      <point x="59" y="-200" type="line"/>
      <point x="106" y="-144"/>
      <point x="196" y="-37"/>
      <point x="196" y="-10" type="curve" smooth="yes"/>
      <point x="196" y="538" type="line" smooth="yes"/>
      <point x="196" y="580"/>
      <point x="201" y="630"/>
      <point x="203" y="644" type="curve"/>
      <point x="281" y="651" type="line"/>
      <point x="277" y="710" type="line"/>
      <point x="277" y="710"/>
      <point x="199" y="705"/>
      <point x="139" y="705" type="curve" smooth="yes"/>
    </contour>
    <contour>
      <point x="145" y="705" type="move" name="top"/>
    </contour>
  </outline>
</glyph>
<glyph name="K" format="1">
  <advance width="688"/>
  <unicode hex="004B"/>
  <outline>
    <contour>
      <point x="473" y="705"/>
      <point x="398" y="710"/>
      <point x="398" y="710" type="curve"/>
      <point x="393" y="656" type="line"/>
      <point x="447" y="645" type="line"/>
      <point x="408" y="577" type="line"/>
      <point x="226" y="353" type="line"/>
      <point x="226" y="353"/>
      <point x="370" y="188"/>
      <point x="391" y="164" type="curve"/>
      <point x="408" y="142"/>
      <point x="445" y="85"/>
      <point x="461" y="59" type="curve"/>
      <point x="402" y="45" type="line"/>
      <point x="407" y="-5" type="line"/>
      <point x="407" y="-5"/>
      <point x="520" y="0"/>
      <point x="545" y="0" type="curve"/>
      <point x="676" y="0" type="line"/>
      <point x="683" y="54" type="line"/>
      <point x="613" y="61" type="line"/>
      <point x="589" y="81"/>
      <point x="551" y="113"/>
      <point x="536" y="129" type="curve"/>
      <point x="467" y="209"/>
      <point x="395" y="290"/>
      <point x="325" y="370" type="curve"/>
      <point x="457" y="546" type="line"/>
      <point x="487" y="576"/>
      <point x="533" y="620"/>
      <point x="559" y="644" type="curve"/>
      <point x="635" y="651" type="line"/>
      <point x="631" y="710" type="line"/>
      <point x="631" y="710"/>
      <point x="553" y="705"/>
      <point x="493" y="705" type="curve" smooth="yes"/>
    </contour>
    <contour>
      <point x="297" y="710" type="line"/>
      <point x="297" y="710"/>
      <point x="219" y="705"/>
      <point x="159" y="705" type="curve" smooth="yes"/>
      <point x="139" y="705"/>
      <point x="44" y="710"/>
      <point x="44" y="710" type="curve"/>
      <point x="39" y="656" type="line"/>
      <point x="116" y="644" type="line"/>
      <point x="118" y="631"/>
      <point x="125" y="585"/>
      <point x="125" y="568" type="curve" smooth="yes"/>
      <point x="125" y="137" type="line" smooth="yes"/>
      <point x="125" y="120"/>
      <point x="118" y="74"/>
      <point x="116" y="61" type="curve"/>
      <point x="37" y="45" type="line"/>
      <point x="42" y="-5" type="line"/>
      <point x="42" y="-5"/>
      <point x="152" y="0"/>
      <point x="177" y="0" type="curve"/>
      <point x="306" y="0" type="line"/>
      <point x="313" y="54" type="line"/>
      <point x="223" y="61" type="line"/>
      <point x="221" y="75"/>
      <point x="216" y="125"/>
      <point x="216" y="167" type="curve" smooth="yes"/>
      <point x="216" y="538" type="line" smooth="yes"/>
      <point x="216" y="580"/>
      <point x="221" y="630"/>
      <point x="223" y="644" type="curve"/>
      <point x="301" y="651" type="line"/>
    </contour>
    <contour>
      <point x="344" y="705" type="move" name="top"/>
    </contour>
    <contour>
      <point x="344" y="0" type="move" name="bottom"/>
    </contour>
  </outline>
</glyph>
<glyph name="L" format="1">
  <advance width="519"/>
  <unicode hex="004C"/>
  <outline>
    <contour>
      <point x="139" y="705"/>
      <point x="44" y="710"/>
      <point x="44" y="710" type="curve"/>
      <point x="39" y="656" type="line"/>
      <point x="116" y="644" type="line"/>
      <point x="118" y="631"/>
      <point x="125" y="585"/>
      <point x="125" y="568" type="curve" smooth="yes"/>
      <point x="125" y="137" type="line" smooth="yes"/>
      <point x="125" y="120"/>
      <point x="118" y="74"/>
      <point x="116" y="61" type="curve"/>
      <point x="37" y="45" type="line"/>
      <point x="42" y="-5" type="line"/>
      <point x="42" y="-5"/>
      <point x="152" y="0"/>
      <point x="177" y="0" type="curve" smooth="yes"/>
      <point x="371" y="0" type="line" smooth="yes"/>
      <point x="391" y="0"/>
      <point x="485" y="-4"/>
      <point x="485" y="-4" type="curve"/>
      <point x="504" y="14" type="line"/>
      <point x="519" y="165" type="line"/>
      <point x="464" y="170" type="line"/>
      <point x="462" y="154"/>
      <point x="453" y="118"/>
      <point x="449" y="103" type="curve"/>
      <point x="448" y="96"/>
      <point x="438" y="80"/>
      <point x="428" y="66" type="curve"/>
      <point x="406" y="62"/>
      <point x="372" y="57"/>
      <point x="341" y="57" type="curve" smooth="yes"/>
      <point x="223" y="57" type="line"/>
      <point x="221" y="72"/>
      <point x="216" y="126"/>
      <point x="216" y="167" type="curve" smooth="yes"/>
      <point x="216" y="538" type="line" smooth="yes"/>
      <point x="216" y="580"/>
      <point x="221" y="630"/>
      <point x="223" y="644" type="curve"/>
      <point x="311" y="651" type="line"/>
      <point x="307" y="710" type="line"/>
      <point x="307" y="710"/>
      <point x="219" y="705"/>
      <point x="159" y="705" type="curve" smooth="yes"/>
    </contour>
    <contour>
      <point x="173" y="705" type="move" name="top"/>
    </contour>
    <contour>
      <point x="262" y="0" type="move" name="bottom"/>
    </contour>
  </outline>
</glyph>
<glyph name="M" format="1">
  <advance width="910"/>
  <unicode hex="004D"/>
  <outline>
    <contour>
      <point x="662" y="705" type="line"/>
      <point x="642" y="685" type="line"/>
      <point x="642" y="685"/>
      <point x="599" y="559"/>
      <point x="589" y="537" type="curve"/>
      <point x="453" y="175" type="line"/>
      <point x="320" y="529" type="line"/>
      <point x="311" y="553"/>
      <point x="268" y="684"/>
      <point x="268" y="684" type="curve"/>
      <point x="249" y="705" type="line"/>
      <point x="170" y="705" type="line"/>
      <point x="150" y="705"/>
      <point x="55" y="710"/>
      <point x="55" y="710" type="curve"/>
      <point x="50" y="656" type="line"/>
      <point x="132" y="644" type="line"/>
      <point x="134" y="630"/>
      <point x="137" y="586"/>
      <point x="136" y="569" type="curve" smooth="yes"/>
      <point x="110" y="137" type="line" smooth="yes"/>
      <point x="109" y="120"/>
      <point x="96" y="74"/>
      <point x="93" y="61" type="curve"/>
      <point x="15" y="45" type="line"/>
      <point x="20" y="-5" type="line"/>
      <point x="20" y="-5"/>
      <point x="121" y="0"/>
      <point x="141" y="0" type="curve" smooth="yes"/>
      <point x="256" y="0" type="line"/>
      <point x="263" y="54" type="line"/>
      <point x="182" y="61" type="line"/>
      <point x="181" y="77"/>
      <point x="175" y="139"/>
      <point x="177" y="167" type="curve" smooth="yes"/>
      <point x="201" y="584" type="line"/>
      <point x="420" y="0" type="line"/>
      <point x="456" y="0" type="line"/>
      <point x="675" y="584" type="line"/>
      <point x="703" y="137" type="line" smooth="yes"/>
      <point x="705" y="109"/>
      <point x="698" y="76"/>
      <point x="697" y="61" type="curve"/>
      <point x="620" y="45" type="line"/>
      <point x="625" y="-5" type="line"/>
      <point x="625" y="-5"/>
      <point x="735" y="0"/>
      <point x="760" y="0" type="curve"/>
      <point x="889" y="0" type="line"/>
      <point x="896" y="54" type="line"/>
      <point x="814" y="61" type="line"/>
      <point x="811" y="74"/>
      <point x="796" y="150"/>
      <point x="795" y="167" type="curve" smooth="yes"/>
      <point x="766" y="538" type="line" smooth="yes"/>
      <point x="765" y="555"/>
      <point x="766" y="602"/>
      <point x="767" y="644" type="curve"/>
      <point x="847" y="651" type="line"/>
      <point x="843" y="710" type="line"/>
      <point x="843" y="710"/>
      <point x="748" y="705"/>
      <point x="688" y="705" type="curve" smooth="yes"/>
    </contour>
  </outline>
</glyph>
<glyph name="N" format="1">
  <advance width="744"/>
  <unicode hex="004E"/>
  <outline>
    <contour>
      <point x="730" y="651" type="line"/>
      <point x="652" y="644" type="line"/>
      <point x="649" y="630"/>
      <point x="637" y="580"/>
      <point x="637" y="538" type="curve" smooth="yes"/>
      <point x="636" y="0" type="line"/>
      <point x="576" y="0" type="line"/>
      <point x="182" y="556" type="line"/>
      <point x="182" y="167" type="line" smooth="yes"/>
      <point x="182" y="125"/>
      <point x="187" y="75"/>
      <point x="189" y="61" type="curve"/>
      <point x="270" y="54" type="line"/>
      <point x="263" y="0" type="line"/>
      <point x="154" y="0" type="line"/>
      <point x="129" y="0"/>
      <point x="33" y="-5"/>
      <point x="33" y="-5" type="curve"/>
      <point x="28" y="45" type="line"/>
      <point x="106" y="61" type="line"/>
      <point x="108" y="74"/>
      <point x="115" y="120"/>
      <point x="115" y="137" type="curve" smooth="yes"/>
      <point x="115" y="568" type="line" smooth="yes"/>
      <point x="115" y="584"/>
      <point x="108" y="629"/>
      <point x="106" y="644" type="curve"/>
      <point x="26" y="656" type="line"/>
      <point x="31" y="710" type="line"/>
      <point x="31" y="710"/>
      <point x="126" y="705"/>
      <point x="146" y="705" type="curve" smooth="yes"/>
      <point x="191" y="706" type="line"/>
      <point x="211" y="685" type="line"/>
      <point x="211" y="685"/>
      <point x="292" y="552"/>
      <point x="308" y="530" type="curve" smooth="yes"/>
      <point x="570" y="168" type="line"/>
      <point x="570" y="568" type="line" smooth="yes"/>
      <point x="570" y="584"/>
      <point x="564" y="626"/>
      <point x="561" y="644" type="curve"/>
      <point x="483" y="656" type="line"/>
      <point x="488" y="710" type="line"/>
      <point x="516" y="708"/>
      <point x="575" y="705"/>
      <point x="595" y="705" type="curve" smooth="yes"/>
      <point x="655" y="705"/>
      <point x="726" y="710"/>
      <point x="726" y="710" type="curve"/>
    </contour>
    <contour>
      <point x="366" y="705" type="move" name="top"/>
    </contour>
    <contour>
      <point x="366" y="0" type="move" name="bottom"/>
    </contour>
  </outline>
</glyph>
<glyph name="O" format="1">
  <advance width="762"/>
  <unicode hex="004F"/>
  <outline>
    <contour>
      <point x="709" y="570"/>
      <point x="598" y="720"/>
      <point x="381" y="720" type="curve" smooth="yes"/>
      <point x="164" y="720"/>
      <point x="53" y="570"/>
      <point x="53" y="352" type="curve" smooth="yes"/>
      <point x="53" y="135"/>
      <point x="164" y="-15"/>
      <point x="381" y="-15" type="curve" smooth="yes"/>
      <point x="598" y="-15"/>
      <point x="709" y="135"/>
      <point x="709" y="352" type="curve" smooth="yes"/>
    </contour>
    <contour>
      <point x="160" y="527"/>
      <point x="232" y="667"/>
      <point x="381" y="667" type="curve" smooth="yes"/>
      <point x="530" y="667"/>
      <point x="602" y="527"/>
      <point x="602" y="352" type="curve" smooth="yes"/>
      <point x="602" y="178"/>
      <point x="530" y="38"/>
      <point x="381" y="38" type="curve" smooth="yes"/>
      <point x="232" y="38"/>
      <point x="160" y="178"/>
      <point x="160" y="352" type="curve" smooth="yes"/>
    </contour>
    <contour>
      <point x="491" y="0" type="move" name="ogonek"/>
    </contour>
    <contour>
      <point x="381" y="705" type="move" name="top"/>
    </contour>
    <contour>
      <point x="639" y="544" type="move" name="horn"/>
    </contour>
    <contour>
      <point x="381" y="0" type="move" name="bottom"/>
    </contour>
  </outline>
</glyph>
<glyph name="P" format="1">
  <advance width="571"/>
  <unicode hex="0050"/>
  <outline>
    <contour>
      <point x="273" y="710"/>
      <point x="214" y="705"/>
      <point x="159" y="705" type="curve"/>
      <point x="159" y="652" type="line"/>
      <point x="159" y="652"/>
      <point x="251" y="660"/>
      <point x="286" y="660" type="curve" smooth="yes"/>
      <point x="390" y="660"/>
      <point x="457" y="605"/>
      <point x="457" y="502" type="curve" smooth="yes"/>
      <point x="457" y="394"/>
      <point x="389" y="341"/>
      <point x="285" y="341" type="curve" smooth="yes"/>
      <point x="243" y="341"/>
      <point x="144" y="354"/>
      <point x="144" y="354" type="curve"/>
      <point x="144" y="296" type="line"/>
      <point x="144" y="296"/>
      <point x="235" y="291"/>
      <point x="305" y="291" type="curve" smooth="yes"/>
      <point x="439" y="291"/>
      <point x="551" y="367"/>
      <point x="551" y="502" type="curve" smooth="yes"/>
      <point x="551" y="639"/>
      <point x="466" y="710"/>
      <point x="328" y="710" type="curve" smooth="yes"/>
    </contour>
    <contour>
      <point x="159" y="705" type="line"/>
      <point x="121" y="705"/>
      <point x="91" y="707"/>
      <point x="44" y="710" type="curve"/>
      <point x="39" y="656" type="line"/>
      <point x="116" y="644" type="line"/>
      <point x="118" y="631"/>
      <point x="125" y="585"/>
      <point x="125" y="568" type="curve" smooth="yes"/>
      <point x="125" y="137" type="line" smooth="yes"/>
      <point x="125" y="120"/>
      <point x="118" y="74"/>
      <point x="116" y="61" type="curve"/>
      <point x="37" y="45" type="line"/>
      <point x="42" y="-5" type="line"/>
      <point x="42" y="-5"/>
      <point x="152" y="0"/>
      <point x="177" y="0" type="curve"/>
      <point x="316" y="0" type="line"/>
      <point x="323" y="54" type="line"/>
      <point x="223" y="61" type="line"/>
      <point x="221" y="75"/>
      <point x="216" y="125"/>
      <point x="216" y="167" type="curve" smooth="yes"/>
      <point x="216" y="538" type="line" smooth="yes"/>
      <point x="216" y="580"/>
      <point x="223" y="650"/>
      <point x="225" y="664" type="curve"/>
    </contour>
  </outline>
</glyph>
<glyph name="Q" format="1">
  <advance width="700"/>
  <unicode hex="0051"/>
  <outline>
    <contour>
      <point x="646" y="-224" type="line"/>
      <point x="705" y="-132" type="line"/>
      <point x="705" y="-132"/>
      <point x="563" y="-71"/>
      <point x="547" y="-60" type="curve" smooth="yes"/>
      <point x="460" y="1" type="line"/>
      <point x="384" y="-13" type="line"/>
    </contour>
    <contour>
      <point x="675" y="570"/>
      <point x="564" y="720"/>
      <point x="347" y="720" type="curve" smooth="yes"/>
      <point x="130" y="720"/>
      <point x="19" y="570"/>
      <point x="19" y="352" type="curve" smooth="yes"/>
      <point x="19" y="135"/>
      <point x="130" y="-15"/>
      <point x="347" y="-15" type="curve" smooth="yes"/>
      <point x="564" y="-15"/>
      <point x="675" y="135"/>
      <point x="675" y="352" type="curve" smooth="yes"/>
    </contour>
    <contour>
      <point x="126" y="527"/>
      <point x="198" y="667"/>
      <point x="347" y="667" type="curve" smooth="yes"/>
      <point x="496" y="667"/>
      <point x="568" y="527"/>
      <point x="568" y="352" type="curve" smooth="yes"/>
      <point x="568" y="178"/>
      <point x="496" y="38"/>
      <point x="347" y="38" type="curve" smooth="yes"/>
      <point x="198" y="38"/>
      <point x="126" y="178"/>
      <point x="126" y="352" type="curve" smooth="yes"/>
    </contour>
  </outline>
</glyph>
<glyph name="R" format="1">
  <advance width="634"/>
  <unicode hex="0052"/>
  <outline>
    <contour>
      <point x="272" y="710"/>
      <point x="214" y="705"/>
      <point x="159" y="705" type="curve"/>
      <point x="159" y="650" type="line" smooth="yes"/>
      <point x="159" y="650"/>
      <point x="250" y="660"/>
      <point x="285" y="660" type="curve" smooth="yes"/>
      <point x="388" y="660"/>
      <point x="454" y="607"/>
      <point x="454" y="507" type="curve" smooth="yes"/>
      <point x="454" y="402"/>
      <point x="387" y="351"/>
      <point x="284" y="351" type="curve" smooth="yes"/>
      <point x="242" y="351"/>
      <point x="144" y="364"/>
      <point x="144" y="364" type="curve"/>
      <point x="144" y="306" type="line"/>
      <point x="144" y="306"/>
      <point x="234" y="301"/>
      <point x="304" y="301" type="curve" smooth="yes"/>
      <point x="437" y="301"/>
      <point x="548" y="376"/>
      <point x="548" y="508" type="curve" smooth="yes"/>
      <point x="548" y="641"/>
      <point x="464" y="710"/>
      <point x="327" y="710" type="curve" smooth="yes"/>
    </contour>
    <contour>
      <point x="288" y="345" type="line"/>
      <point x="409" y="116" type="line"/>
      <point x="422" y="92"/>
      <point x="464" y="0"/>
      <point x="464" y="0" type="curve"/>
      <point x="544" y="0"/>
      <point x="622" y="0"/>
      <point x="622" y="0" type="curve"/>
      <point x="629" y="54" type="line"/>
      <point x="557" y="61" type="line"/>
      <point x="541" y="83"/>
      <point x="517" y="116"/>
      <point x="508" y="131" type="curve"/>
      <point x="502" y="140"/>
      <point x="439" y="243"/>
      <point x="386" y="349" type="curve"/>
    </contour>
    <contour>
      <point x="159" y="705" type="line"/>
      <point x="139" y="705"/>
      <point x="44" y="710"/>
      <point x="44" y="710" type="curve"/>
      <point x="39" y="656" type="line"/>
      <point x="116" y="644" type="line"/>
      <point x="118" y="631"/>
      <point x="125" y="585"/>
      <point x="125" y="568" type="curve" smooth="yes"/>
      <point x="125" y="137" type="line" smooth="yes"/>
      <point x="125" y="120"/>
      <point x="118" y="74"/>
      <point x="116" y="61" type="curve"/>
      <point x="37" y="45" type="line"/>
      <point x="42" y="-5" type="line"/>
      <point x="42" y="-5"/>
      <point x="152" y="0"/>
      <point x="177" y="0" type="curve"/>
      <point x="306" y="0" type="line"/>
      <point x="313" y="54" type="line"/>
      <point x="223" y="61" type="line"/>
      <point x="221" y="75"/>
      <point x="216" y="125"/>
      <point x="216" y="167" type="curve" smooth="yes"/>
      <point x="216" y="538" type="line" smooth="yes"/>
      <point x="216" y="580"/>
      <point x="223" y="656"/>
      <point x="225" y="670" type="curve"/>
    </contour>
    <contour>
      <point x="307" y="705" type="move" name="top"/>
    </contour>
    <contour>
      <point x="337" y="0" type="move" name="bottom"/>
    </contour>
  </outline>
</glyph>
<glyph name="T" format="1">
  <advance width="585"/>
  <unicode hex="0054"/>
  <outline>
    <contour>
      <point x="12" y="692" type="line"/>
      <point x="5" y="528" type="line"/>
      <point x="63" y="523" type="line"/>
      <point x="65" y="549"/>
      <point x="72" y="592"/>
      <point x="76" y="607" type="curve"/>
      <point x="94" y="644" type="line"/>
      <point x="116" y="646"/>
      <point x="147" y="649"/>
      <point x="175" y="649" type="curve"/>
      <point x="410" y="649" type="line"/>
      <point x="438" y="649"/>
      <point x="469" y="646"/>
      <point x="491" y="644" type="curve"/>
      <point x="509" y="607" type="line"/>
      <point x="513" y="592"/>
      <point x="520" y="549"/>
      <point x="522" y="523" type="curve"/>
      <point x="580" y="528" type="line"/>
      <point x="573" y="692" type="line"/>
      <point x="554" y="710" type="line"/>
      <point x="554" y="710"/>
      <point x="460" y="705"/>
      <point x="440" y="705" type="curve" smooth="yes"/>
      <point x="145" y="705" type="line" smooth="yes"/>
      <point x="125" y="705"/>
      <point x="31" y="710"/>
      <point x="31" y="710" type="curve"/>
    </contour>
    <contour>
      <point x="240" y="637"/>
      <point x="247" y="585"/>
      <point x="247" y="568" type="curve" smooth="yes"/>
      <point x="247" y="137" type="line" smooth="yes"/>
      <point x="247" y="120"/>
      <point x="240" y="74"/>
      <point x="238" y="61" type="curve"/>
      <point x="149" y="45" type="line"/>
      <point x="154" y="-5" type="line"/>
      <point x="154" y="-5"/>
      <point x="274" y="0"/>
      <point x="299" y="0" type="curve"/>
      <point x="438" y="0" type="line"/>
      <point x="445" y="54" type="line"/>
      <point x="345" y="61" type="line"/>
      <point x="343" y="75"/>
      <point x="338" y="125"/>
      <point x="338" y="167" type="curve" smooth="yes"/>
      <point x="338" y="538" type="line" smooth="yes"/>
      <point x="338" y="580"/>
      <point x="343" y="636"/>
      <point x="345" y="650" type="curve"/>
      <point x="238" y="650" type="line"/>
    </contour>
    <contour>
      <point x="293" y="353" type="move" name="center"/>
    </contour>
    <contour>
      <point x="297" y="0" type="move" name="bottom"/>
    </contour>
    <contour>
      <point x="293" y="705" type="move" name="top"/>
    </contour>
  </outline>
</glyph>
<glyph name="U" format="1">
  <advance width="751"/>
  <unicode hex="0055"/>
  <outline>
    <contour>
      <point x="35" y="710" type="curve"/>
      <point x="30" y="656" type="line"/>
      <point x="109" y="644" type="line"/>
      <point x="111" y="629"/>
      <point x="118" y="580"/>
      <point x="118" y="563" type="curve" smooth="yes"/>
      <point x="118" y="266" type="line" smooth="yes"/>
      <point x="118" y="95"/>
      <point x="205" y="-15"/>
      <point x="376" y="-15" type="curve" smooth="yes"/>
      <point x="547" y="-15"/>
      <point x="635" y="95"/>
      <point x="635" y="266" type="curve" smooth="yes"/>
      <point x="635" y="533" type="line" smooth="yes"/>
      <point x="635" y="576"/>
      <point x="640" y="629"/>
      <point x="642" y="644" type="curve"/>
      <point x="721" y="651" type="line"/>
      <point x="717" y="710" type="line"/>
      <point x="717" y="710"/>
      <point x="635" y="705"/>
      <point x="585" y="705" type="curve" smooth="yes"/>
      <point x="565" y="705"/>
      <point x="480" y="710"/>
      <point x="480" y="710" type="curve"/>
      <point x="475" y="656" type="line"/>
      <point x="553" y="644" type="line"/>
      <point x="555" y="630"/>
      <point x="563" y="580"/>
      <point x="563" y="563" type="curve" smooth="yes"/>
      <point x="563" y="266" type="line" smooth="yes"/>
      <point x="563" y="140"/>
      <point x="505" y="49"/>
      <point x="385" y="49" type="curve" smooth="yes"/>
      <point x="270" y="49"/>
      <point x="213" y="139"/>
      <point x="213" y="266" type="curve" smooth="yes"/>
      <point x="213" y="533" type="line" smooth="yes"/>
      <point x="213" y="576"/>
      <point x="218" y="629"/>
      <point x="220" y="644" type="curve"/>
      <point x="299" y="651" type="line"/>
      <point x="295" y="710" type="line"/>
      <point x="295" y="710"/>
      <point x="210" y="705"/>
      <point x="150" y="705" type="curve" smooth="yes"/>
      <point x="130" y="705"/>
      <point x="35" y="710"/>
    </contour>
    <contour>
      <point x="455" y="-5" type="move" name="ogonek"/>
    </contour>
    <contour>
      <point x="378" y="705" type="move" name="top"/>
    </contour>
    <contour>
      <point x="615" y="470" type="move" name="horn"/>
    </contour>
    <contour>
      <point x="383" y="0" type="move" name="bottom"/>
    </contour>
  </outline>
</glyph>
<glyph name="V" format="1">
  <advance width="700"/>
  <unicode hex="0056"/>
  <outline>
    <contour>
      <point x="329" y="0" type="line"/>
      <point x="390" y="0" type="line"/>
      <point x="580" y="545" type="line"/>
      <point x="599" y="599"/>
      <point x="626" y="644"/>
      <point x="626" y="644" type="curve"/>
      <point x="695" y="651" type="line"/>
      <point x="691" y="710" type="line"/>
      <point x="691" y="710"/>
      <point x="597" y="705"/>
      <point x="547" y="705" type="curve" smooth="yes"/>
      <point x="527" y="705"/>
      <point x="457" y="710"/>
      <point x="457" y="710" type="curve"/>
      <point x="452" y="656" type="line"/>
      <point x="528" y="641" type="line"/>
      <point x="528" y="641"/>
      <point x="524" y="599"/>
      <point x="517" y="578" type="curve" smooth="yes"/>
      <point x="368" y="148" type="line"/>
      <point x="221" y="533" type="line"/>
      <point x="199" y="590"/>
      <point x="191" y="641"/>
      <point x="191" y="641" type="curve"/>
      <point x="270" y="651" type="line"/>
      <point x="266" y="710" type="line"/>
      <point x="266" y="710"/>
      <point x="185" y="705"/>
      <point x="125" y="705" type="curve" smooth="yes"/>
      <point x="105" y="705"/>
      <point x="10" y="710"/>
      <point x="10" y="710" type="curve"/>
      <point x="5" y="656" type="line"/>
      <point x="71" y="641" type="line"/>
      <point x="71" y="641"/>
      <point x="100" y="593"/>
      <point x="114" y="556" type="curve" smooth="yes"/>
    </contour>
  </outline>
</glyph>
<glyph name="W" format="1">
  <advance width="1019"/>
  <unicode hex="0057"/>
  <outline>
    <contour>
      <point x="1014" y="651" type="line"/>
      <point x="1010" y="710" type="line"/>
      <point x="1010" y="710"/>
      <point x="916" y="705"/>
      <point x="866" y="705" type="curve" smooth="yes"/>
      <point x="846" y="705"/>
      <point x="776" y="710"/>
      <point x="776" y="710" type="curve"/>
      <point x="771" y="656" type="line"/>
      <point x="847" y="641" type="line"/>
      <point x="847" y="641"/>
      <point x="843" y="604"/>
      <point x="836" y="578" type="curve"/>
      <point x="713" y="148" type="line"/>
      <point x="544" y="685" type="line"/>
      <point x="491" y="685" type="line"/>
      <point x="333" y="148" type="line"/>
      <point x="218" y="533" type="line"/>
      <point x="203" y="584"/>
      <point x="191" y="641"/>
      <point x="191" y="641" type="curve"/>
      <point x="270" y="651" type="line"/>
      <point x="266" y="710" type="line"/>
      <point x="266" y="710"/>
      <point x="185" y="705"/>
      <point x="125" y="705" type="curve" smooth="yes"/>
      <point x="105" y="705"/>
      <point x="10" y="710"/>
      <point x="10" y="710" type="curve"/>
      <point x="5" y="656" type="line"/>
      <point x="71" y="641" type="line"/>
      <point x="71" y="641"/>
      <point x="97" y="598"/>
      <point x="111" y="556" type="curve"/>
      <point x="294" y="0" type="line"/>
      <point x="355" y="0" type="line"/>
      <point x="507" y="506" type="line"/>
      <point x="674" y="0" type="line"/>
      <point x="735" y="0" type="line"/>
      <point x="899" y="545" type="line"/>
      <point x="911" y="584"/>
      <point x="945" y="644"/>
      <point x="945" y="644" type="curve"/>
    </contour>
    <contour>
      <point x="510" y="705" type="move" name="top"/>
    </contour>
  </outline>
</glyph>
<glyph name="X" format="1">
  <advance width="724"/>
  <unicode hex="0058"/>
  <outline>
    <contour>
      <point x="611" y="86"/>
      <point x="584" y="116"/>
      <point x="571" y="132" type="curve"/>
      <point x="402" y="368" type="line"/>
      <point x="531" y="569" type="line"/>
      <point x="546" y="588"/>
      <point x="588" y="623"/>
      <point x="611" y="644" type="curve"/>
      <point x="680" y="651" type="line"/>
      <point x="676" y="710" type="line"/>
      <point x="676" y="710"/>
      <point x="572" y="705"/>
      <point x="522" y="705" type="curve" smooth="yes"/>
      <point x="502" y="705"/>
      <point x="422" y="710"/>
      <point x="422" y="710" type="curve"/>
      <point x="417" y="656" type="line"/>
      <point x="493" y="641" type="line"/>
      <point x="482" y="619"/>
      <point x="469" y="593"/>
      <point x="460" y="578" type="curve" smooth="yes"/>
      <point x="363" y="422" type="line"/>
      <point x="268" y="555" type="line"/>
      <point x="254" y="574"/>
      <point x="237" y="617"/>
      <point x="227" y="641" type="curve"/>
      <point x="306" y="651" type="line"/>
      <point x="302" y="710" type="line"/>
      <point x="302" y="710"/>
      <point x="213" y="705"/>
      <point x="153" y="705" type="curve" smooth="yes"/>
      <point x="133" y="705"/>
      <point x="38" y="710"/>
      <point x="38" y="710" type="curve"/>
      <point x="33" y="656" type="line"/>
      <point x="99" y="641" type="line"/>
      <point x="116" y="619"/>
      <point x="147" y="578"/>
      <point x="161" y="558" type="curve" smooth="yes"/>
      <point x="305" y="355" type="line"/>
      <point x="174" y="164" type="line" smooth="yes"/>
      <point x="157" y="140"/>
      <point x="104" y="86"/>
      <point x="80" y="61" type="curve"/>
      <point x="17" y="44" type="line"/>
      <point x="21" y="-5" type="line"/>
      <point x="21" y="-5"/>
      <point x="141" y="0"/>
      <point x="166" y="0" type="curve"/>
      <point x="262" y="0" type="line"/>
      <point x="267" y="54" type="line"/>
      <point x="194" y="64" type="line"/>
      <point x="205" y="87"/>
      <point x="219" y="116"/>
      <point x="229" y="132" type="curve" smooth="yes"/>
      <point x="343" y="301" type="line"/>
      <point x="456" y="142" type="line"/>
      <point x="470" y="124"/>
      <point x="489" y="89"/>
      <point x="501" y="62" type="curve"/>
      <point x="435" y="44" type="line"/>
      <point x="439" y="-5" type="line"/>
      <point x="439" y="-5"/>
      <point x="561" y="0"/>
      <point x="592" y="0" type="curve"/>
      <point x="703" y="0" type="line"/>
      <point x="708" y="54" type="line"/>
      <point x="632" y="64" type="line"/>
    </contour>
  </outline>
</glyph>
<glyph name="Y" format="1">
  <advance width="650"/>
  <unicode hex="0059"/>
  <outline>
    <contour>
      <point x="645" y="651" type="line"/>
      <point x="641" y="710" type="line"/>
      <point x="641" y="710"/>
      <point x="547" y="705"/>
      <point x="497" y="705" type="curve" smooth="yes"/>
      <point x="477" y="705"/>
      <point x="407" y="710"/>
      <point x="407" y="710" type="curve"/>
      <point x="402" y="656" type="line"/>
      <point x="478" y="641" type="line"/>
      <point x="478" y="641"/>
      <point x="462" y="602"/>
      <point x="450" y="578" type="curve"/>
      <point x="335" y="344" type="line"/>
      <point x="234" y="533" type="line"/>
      <point x="202" y="592"/>
      <point x="191" y="641"/>
      <point x="191" y="641" type="curve"/>
      <point x="270" y="651" type="line"/>
      <point x="266" y="710" type="line"/>
      <point x="266" y="710"/>
      <point x="185" y="705"/>
      <point x="125" y="705" type="curve" smooth="yes"/>
      <point x="105" y="705"/>
      <point x="10" y="710"/>
      <point x="10" y="710" type="curve"/>
      <point x="5" y="656" type="line"/>
      <point x="71" y="641" type="line"/>
      <point x="71" y="641"/>
      <point x="106" y="597"/>
      <point x="127" y="556" type="curve"/>
      <point x="293" y="236" type="line"/>
      <point x="354" y="236" type="line"/>
      <point x="513" y="545" type="line"/>
      <point x="540" y="597"/>
      <point x="576" y="644"/>
      <point x="576" y="644" type="curve"/>
    </contour>
    <contour>
      <point x="282" y="137" type="line" smooth="yes"/>
      <point x="282" y="120"/>
      <point x="275" y="74"/>
      <point x="273" y="61" type="curve"/>
      <point x="194" y="45" type="line"/>
      <point x="199" y="-5" type="line"/>
      <point x="199" y="-5"/>
      <point x="309" y="0"/>
      <point x="334" y="0" type="curve"/>
      <point x="463" y="0" type="line"/>
      <point x="470" y="54" type="line"/>
      <point x="380" y="61" type="line"/>
      <point x="378" y="75"/>
      <point x="373" y="125"/>
      <point x="373" y="167" type="curve" smooth="yes"/>
      <point x="373" y="320" type="line"/>
      <point x="282" y="320" type="line"/>
    </contour>
    <contour>
      <point x="331" y="705" type="move" name="top"/>
    </contour>
    <contour>
      <point x="322" y="0" type="move" name="bottom"/>
    </contour>
  </outline>
</glyph>
<glyph name="Z" format="1">
  <advance width="581"/>
  <unicode hex="005A"/>
  <outline>
    <contour>
      <point x="410" y="646" type="line"/>
      <point x="340" y="520" type="line"/>
      <point x="150" y="219" type="line" smooth="yes"/>
      <point x="120" y="171"/>
      <point x="38" y="57"/>
      <point x="38" y="57" type="curve"/>
      <point x="45" y="0" type="line"/>
      <point x="393" y="0" type="line" smooth="yes"/>
      <point x="413" y="0"/>
      <point x="507" y="-4"/>
      <point x="507" y="-4" type="curve"/>
      <point x="526" y="14" type="line"/>
      <point x="541" y="175" type="line"/>
      <point x="486" y="180" type="line"/>
      <point x="484" y="164"/>
      <point x="475" y="118"/>
      <point x="471" y="103" type="curve"/>
      <point x="470" y="96"/>
      <point x="461" y="81"/>
      <point x="451" y="68" type="curve"/>
      <point x="429" y="64"/>
      <point x="394" y="59"/>
      <point x="363" y="59" type="curve" smooth="yes"/>
      <point x="160" y="59" type="line"/>
      <point x="233" y="191" type="line"/>
      <point x="424" y="494" type="line"/>
      <point x="532" y="649" type="line"/>
      <point x="525" y="705" type="line"/>
      <point x="194" y="705" type="line" smooth="yes"/>
      <point x="174" y="705"/>
      <point x="80" y="715"/>
      <point x="80" y="715" type="curve"/>
      <point x="61" y="697" type="line"/>
      <point x="54" y="528" type="line"/>
      <point x="112" y="523" type="line"/>
      <point x="114" y="549"/>
      <point x="121" y="592"/>
      <point x="125" y="607" type="curve"/>
      <point x="141" y="641" type="line"/>
      <point x="163" y="643"/>
      <point x="198" y="646"/>
      <point x="227" y="646" type="curve" smooth="yes"/>
    </contour>
    <contour>
      <point x="290" y="705" type="move" name="top"/>
    </contour>
    <contour>
      <point x="274" y="0" type="move" name="bottom"/>
    </contour>
  </outline>
</glyph>
<glyph name="asciicircum" format="1">
  <advance width="560"/>
  <unicode hex="005E"/>
  <outline>
    <contour>
      <point x="280" y="615" type="line"/>
      <point x="487" y="313" type="line"/>
      <point x="550" y="357" type="line"/>
      <point x="280" y="728" type="line"/>
      <point x="10" y="357" type="line"/>
      <point x="73" y="313" type="line"/>
    </contour>
  </outline>
</glyph>
<glyph name="underscore" format="1">
  <advance width="504"/>
  <unicode hex="005F"/>
  <outline>
    <contour>
      <point x="2" y="-232" type="line"/>
      <point x="499" y="-232" type="line"/>
      <point x="504" y="-157" type="line"/>
      <point x="0" y="-157" type="line"/>
    </contour>
  </outline>
</glyph>
<glyph name="grave" format="1">
  <advance width="360"/>
  <unicode hex="0060"/>
  <outline>
    <contour>
      <point x="264" y="564" type="line"/>
      <point x="293" y="600" type="line"/>
      <point x="113" y="750" type="line"/>
      <point x="70" y="695" type="line"/>
    </contour>
    <contour>
      <point x="198" y="494" type="move" name="_top"/>
    </contour>
  </outline>
</glyph>
<glyph name="b" format="1">
  <advance width="549"/>
  <unicode hex="0062"/>
  <outline>
    <contour>
      <point x="-3" y="707" type="line"/>
      <point x="73" y="691" type="line"/>
      <point x="73" y="691"/>
      <point x="83" y="635"/>
      <point x="83" y="615" type="curve" smooth="yes"/>
      <point x="83" y="137" type="line" smooth="yes"/>
      <point x="83" y="117"/>
      <point x="75" y="26"/>
      <point x="75" y="26" type="curve"/>
      <point x="121" y="9"/>
      <point x="189" y="-10"/>
      <point x="271" y="-10" type="curve" smooth="yes"/>
      <point x="414" y="-10"/>
      <point x="501" y="113"/>
      <point x="501" y="256" type="curve" smooth="yes"/>
      <point x="501" y="394"/>
      <point x="436" y="503"/>
      <point x="303" y="503" type="curve" smooth="yes"/>
      <point x="234" y="503"/>
      <point x="189" y="465"/>
      <point x="164" y="427" type="curve"/>
      <point x="164" y="585" type="line" smooth="yes"/>
      <point x="164" y="635"/>
      <point x="171" y="738"/>
      <point x="171" y="738" type="curve"/>
      <point x="152" y="756" type="line"/>
      <point x="94" y="756" type="line" smooth="yes"/>
      <point x="74" y="756"/>
      <point x="2" y="760"/>
      <point x="2" y="760" type="curve"/>
    </contour>
    <contour>
      <point x="383" y="442"/>
      <point x="409" y="353"/>
      <point x="409" y="254" type="curve" smooth="yes"/>
      <point x="409" y="144"/>
      <point x="373" y="46"/>
      <point x="265" y="46" type="curve" smooth="yes"/>
      <point x="230" y="46"/>
      <point x="198" y="51"/>
      <point x="171" y="58" type="curve"/>
      <point x="169" y="71"/>
      <point x="164" y="123"/>
      <point x="164" y="167" type="curve" smooth="yes"/>
      <point x="164" y="274" type="line" smooth="yes"/>
      <point x="164" y="357"/>
      <point x="204" y="442"/>
      <point x="288" y="442" type="curve" smooth="yes"/>
    </contour>
  </outline>
</glyph>
<glyph name="c" format="1">
  <advance width="477"/>
  <unicode hex="0063"/>
  <outline>
    <contour>
      <point x="126" y="503"/>
      <point x="49" y="399"/>
      <point x="49" y="246" type="curve" smooth="yes"/>
      <point x="49" y="93"/>
      <point x="125" y="-10"/>
      <point x="278" y="-10" type="curve" smooth="yes"/>
      <point x="382" y="-10"/>
      <point x="447" y="44"/>
      <point x="447" y="44" type="curve"/>
      <point x="419" y="91" type="line"/>
      <point x="419" y="91"/>
      <point x="357" y="55"/>
      <point x="279" y="55" type="curve" smooth="yes"/>
      <point x="179" y="55"/>
      <point x="143" y="146"/>
      <point x="143" y="246" type="curve" smooth="yes"/>
      <point x="143" y="346"/>
      <point x="179" y="446"/>
      <point x="279" y="446" type="curve" smooth="yes"/>
      <point x="308" y="446"/>
      <point x="332" y="440"/>
      <point x="361" y="416" type="curve"/>
      <point x="365" y="402"/>
      <point x="368" y="389"/>
      <point x="368" y="382" type="curve" smooth="yes"/>
      <point x="368" y="346" type="line"/>
      <point x="426" y="343" type="line"/>
      <point x="436" y="468" type="line"/>
      <point x="376" y="488"/>
      <point x="338" y="503"/>
      <point x="279" y="503" type="curve" smooth="yes"/>
    </contour>
    <contour>
      <point x="282" y="494" type="move" name="top"/>
    </contour>
    <contour>
      <point x="266" y="0" type="move" name="bottom"/>
    </contour>
  </outline>
</glyph>
<glyph name="d" format="1">
  <advance width="556"/>
  <unicode hex="0064"/>
  <outline>
    <contour>
      <point x="539" y="54" type="line"/>
      <point x="470" y="61" type="line"/>
      <point x="470" y="61"/>
      <point x="460" y="117"/>
      <point x="460" y="167" type="curve" smooth="yes"/>
      <point x="460" y="585" type="line" smooth="yes"/>
      <point x="460" y="635"/>
      <point x="467" y="738"/>
      <point x="467" y="738" type="curve"/>
      <point x="448" y="756" type="line"/>
      <point x="390" y="756" type="line" smooth="yes"/>
      <point x="370" y="756"/>
      <point x="286" y="760"/>
      <point x="286" y="760" type="curve"/>
      <point x="281" y="707" type="line"/>
      <point x="369" y="691" type="line"/>
      <point x="369" y="691"/>
      <point x="379" y="635"/>
      <point x="379" y="615" type="curve" smooth="yes"/>
      <point x="379" y="479" type="line"/>
      <point x="326" y="498"/>
      <point x="296" y="503"/>
      <point x="254" y="503" type="curve" smooth="yes"/>
      <point x="124" y="503"/>
      <point x="44" y="405"/>
      <point x="44" y="247" type="curve" smooth="yes"/>
      <point x="44" y="87"/>
      <point x="120" y="-10"/>
      <point x="245" y="-10" type="curve" smooth="yes"/>
      <point x="298" y="-10"/>
      <point x="369" y="34"/>
      <point x="389" y="80" type="curve"/>
      <point x="403" y="0" type="line"/>
      <point x="483" y="0"/>
      <point x="533" y="0"/>
      <point x="533" y="0" type="curve"/>
    </contour>
    <contour>
      <point x="379" y="207" type="line"/>
      <point x="379" y="111"/>
      <point x="332" y="54"/>
      <point x="252" y="54" type="curve" smooth="yes"/>
      <point x="180" y="54"/>
      <point x="136" y="127"/>
      <point x="136" y="246" type="curve" smooth="yes"/>
      <point x="136" y="370"/>
      <point x="183" y="442"/>
      <point x="264" y="442" type="curve" smooth="yes"/>
      <point x="306" y="442"/>
      <point x="341" y="431"/>
      <point x="379" y="406" type="curve"/>
    </contour>
    <contour>
      <point x="406" y="605" type="move" name="center"/>
    </contour>
  </outline>
</glyph>
<glyph name="f" format="1">
  <advance width="340"/>
  <unicode hex="0066"/>
  <outline>
    <contour>
      <point x="170" y="770"/>
      <point x="109" y="702"/>
      <point x="109" y="597" type="curve" smooth="yes"/>
      <point x="109" y="511" type="line"/>
      <point x="29" y="482" type="line"/>
      <point x="32" y="440" type="line"/>
      <point x="109" y="440" type="line"/>
      <point x="109" y="137" type="line" smooth="yes"/>
      <point x="109" y="117"/>
      <point x="99" y="61"/>
      <point x="99" y="61" type="curve"/>
      <point x="23" y="45" type="line"/>
      <point x="28" y="-5" type="line"/>
      <point x="28" y="-5"/>
      <point x="119" y="0"/>
      <point x="139" y="0" type="curve" smooth="yes"/>
      <point x="219" y="0"/>
      <point x="289" y="0"/>
      <point x="289" y="0" type="curve"/>
      <point x="295" y="54" type="line"/>
      <point x="197" y="61" type="line"/>
      <point x="197" y="61"/>
      <point x="190" y="117"/>
      <point x="190" y="167" type="curve" smooth="yes"/>
      <point x="190" y="440" type="line"/>
      <point x="325" y="440" type="line"/>
      <point x="330" y="494" type="line"/>
      <point x="190" y="494" type="line"/>
      <point x="190" y="566" type="line" smooth="yes"/>
      <point x="190" y="656"/>
      <point x="195" y="717"/>
      <point x="285" y="717" type="curve" smooth="yes"/>
      <point x="292" y="717"/>
      <point x="304" y="716"/>
      <point x="312" y="716" type="curve"/>
      <point x="318" y="695"/>
      <point x="324" y="673"/>
      <point x="324" y="664" type="curve"/>
      <point x="324" y="628" type="line"/>
      <point x="377" y="625" type="line"/>
      <point x="388" y="760" type="line"/>
      <point x="388" y="760"/>
      <point x="326" y="770"/>
      <point x="285" y="770" type="curve" smooth="yes"/>
    </contour>
  </outline>
</glyph>
<glyph name="h" format="1">
  <advance width="584"/>
  <unicode hex="0068"/>
  <outline>
    <contour>
      <point x="11" y="707" type="line"/>
      <point x="87" y="691" type="line"/>
      <point x="87" y="691"/>
      <point x="97" y="635"/>
      <point x="97" y="615" type="curve" smooth="yes"/>
      <point x="97" y="137" type="line" smooth="yes"/>
      <point x="97" y="117"/>
      <point x="89" y="70"/>
      <point x="87" y="61" type="curve"/>
      <point x="10" y="45" type="line"/>
      <point x="15" y="-5" type="line"/>
      <point x="15" y="-5"/>
      <point x="106" y="0"/>
      <point x="126" y="0" type="curve" smooth="yes"/>
      <point x="206" y="0"/>
      <point x="256" y="0"/>
      <point x="256" y="0" type="curve"/>
      <point x="262" y="54" type="line"/>
      <point x="184" y="61" type="line"/>
      <point x="183" y="69"/>
      <point x="178" y="123"/>
      <point x="178" y="167" type="curve" smooth="yes"/>
      <point x="178" y="274" type="line" smooth="yes"/>
      <point x="179" y="372"/>
      <point x="227" y="442"/>
      <point x="306" y="442" type="curve" smooth="yes"/>
      <point x="390" y="442"/>
      <point x="409" y="360"/>
      <point x="409" y="276" type="curve" smooth="yes"/>
      <point x="409" y="137" type="line" smooth="yes"/>
      <point x="409" y="112"/>
      <point x="404" y="83"/>
      <point x="399" y="61" type="curve"/>
      <point x="332" y="45" type="line"/>
      <point x="337" y="-5" type="line"/>
      <point x="337" y="-5"/>
      <point x="419" y="0"/>
      <point x="439" y="0" type="curve" smooth="yes"/>
      <point x="519" y="0"/>
      <point x="569" y="0"/>
      <point x="569" y="0" type="curve"/>
      <point x="575" y="54" type="line"/>
      <point x="497" y="61" type="line"/>
      <point x="497" y="61"/>
      <point x="490" y="117"/>
      <point x="490" y="167" type="curve" smooth="yes"/>
      <point x="490" y="276" type="line" smooth="yes"/>
      <point x="490" y="414"/>
      <point x="459" y="503"/>
      <point x="321" y="503" type="curve" smooth="yes"/>
      <point x="253" y="503"/>
      <point x="205" y="467"/>
      <point x="178" y="427" type="curve"/>
      <point x="178" y="585" type="line" smooth="yes"/>
      <point x="178" y="632"/>
      <point x="182" y="707"/>
      <point x="185" y="738" type="curve"/>
      <point x="166" y="756" type="line"/>
      <point x="108" y="756" type="line" smooth="yes"/>
      <point x="88" y="756"/>
      <point x="16" y="760"/>
      <point x="16" y="760" type="curve"/>
    </contour>
    <contour>
      <point x="288" y="247" type="move" name="center"/>
    </contour>
    <contour>
      <point x="102" y="726" type="move" name="top"/>
    </contour>
  </outline>
</glyph>
<glyph name="i" format="1">
  <advance width="290"/>
  <unicode hex="0069"/>
  <outline>
    <component base="dotlessi"/>
    <component base="dotaccent" xOffset="-46"/>
    <contour>
      <point x="271" y="0" type="move" name="ogonek"/>
    </contour>
    <contour>
      <point x="149" y="0" type="move" name="bottom"/>
    </contour>
  </outline>
</glyph>
<glyph name="j" format="1">
  <advance width="262"/>
  <unicode hex="006A"/>
  <outline>
    <contour>
      <point x="90" y="720"/>
      <point x="69" y="693"/>
      <point x="69" y="655" type="curve" smooth="yes"/>
      <point x="69" y="617"/>
      <point x="90" y="591"/>
      <point x="128" y="591" type="curve" smooth="yes"/>
      <point x="166" y="591"/>
      <point x="187" y="617"/>
      <point x="187" y="655" type="curve" smooth="yes"/>
      <point x="187" y="696"/>
      <point x="165" y="720"/>
      <point x="128" y="720" type="curve" smooth="yes"/>
    </contour>
    <component base="dotlessj"/>
  </outline>
</glyph>
<glyph name="k" format="1">
  <advance width="578"/>
  <unicode hex="006B"/>
  <outline>
    <contour>
      <point x="11" y="707" type="line"/>
      <point x="87" y="691" type="line"/>
      <point x="87" y="691"/>
      <point x="97" y="635"/>
      <point x="97" y="615" type="curve" smooth="yes"/>
      <point x="97" y="137" type="line" smooth="yes"/>
      <point x="97" y="117"/>
      <point x="89" y="70"/>
      <point x="87" y="61" type="curve"/>
      <point x="10" y="45" type="line"/>
      <point x="15" y="-5" type="line"/>
      <point x="15" y="-5"/>
      <point x="106" y="0"/>
      <point x="126" y="0" type="curve" smooth="yes"/>
      <point x="206" y="0"/>
      <point x="256" y="0"/>
      <point x="256" y="0" type="curve"/>
      <point x="262" y="54" type="line"/>
      <point x="184" y="61" type="line"/>
      <point x="183" y="69"/>
      <point x="178" y="123"/>
      <point x="178" y="167" type="curve" smooth="yes"/>
      <point x="178" y="585" type="line" smooth="yes"/>
      <point x="178" y="632"/>
      <point x="182" y="707"/>
      <point x="185" y="738" type="curve"/>
      <point x="166" y="756" type="line"/>
      <point x="108" y="756" type="line" smooth="yes"/>
      <point x="88" y="756"/>
      <point x="16" y="760"/>
      <point x="16" y="760" type="curve"/>
    </contour>
    <contour>
      <point x="354" y="437" type="line"/>
      <point x="189" y="265" type="line"/>
      <point x="331" y="115" type="line"/>
      <point x="382" y="59" type="line"/>
      <point x="325" y="48" type="line"/>
      <point x="330" y="-5" type="line"/>
      <point x="364" y="-3"/>
      <point x="412" y="2"/>
      <point x="432" y="0" type="curve"/>
      <point x="512" y="0"/>
      <point x="562" y="0"/>
      <point x="562" y="0" type="curve"/>
      <point x="568" y="54" type="line"/>
      <point x="505" y="60" type="line"/>
      <point x="472" y="85"/>
      <point x="426" y="117"/>
      <point x="415" y="129" type="curve" smooth="yes"/>
      <point x="278" y="279" type="line"/>
      <point x="359" y="366" type="line" smooth="yes"/>
      <point x="377" y="385"/>
      <point x="425" y="415"/>
      <point x="458" y="433" type="curve"/>
      <point x="533" y="441" type="line"/>
      <point x="530" y="494" type="line"/>
      <point x="530" y="494"/>
      <point x="483" y="494"/>
      <point x="403" y="494" type="curve" smooth="yes"/>
      <point x="383" y="494"/>
      <point x="316" y="497"/>
      <point x="316" y="497" type="curve"/>
      <point x="311" y="445" type="line"/>
    </contour>
    <contour>
      <point x="277" y="0" type="move" name="bottom"/>
    </contour>
  </outline>
</glyph>
<glyph name="l" format="1">
  <advance width="275"/>
  <unicode hex="006C"/>
  <outline>
    <contour>
      <point x="11" y="707" type="line"/>
      <point x="87" y="691" type="line"/>
      <point x="87" y="691"/>
      <point x="97" y="635"/>
      <point x="97" y="615" type="curve" smooth="yes"/>
      <point x="97" y="137" type="line" smooth="yes"/>
      <point x="97" y="117"/>
      <point x="89" y="70"/>
      <point x="87" y="61" type="curve"/>
      <point x="10" y="45" type="line"/>
      <point x="15" y="-5" type="line"/>
      <point x="15" y="-5"/>
      <point x="106" y="0"/>
      <point x="126" y="0" type="curve" smooth="yes"/>
      <point x="206" y="0"/>
      <point x="256" y="0"/>
      <point x="256" y="0" type="curve"/>
      <point x="262" y="54" type="line"/>
      <point x="184" y="61" type="line"/>
      <point x="183" y="69"/>
      <point x="178" y="123"/>
      <point x="178" y="167" type="curve" smooth="yes"/>
      <point x="178" y="585" type="line" smooth="yes"/>
      <point x="178" y="632"/>
      <point x="182" y="707"/>
      <point x="185" y="738" type="curve"/>
      <point x="166" y="756" type="line"/>
      <point x="108" y="756" type="line" smooth="yes"/>
      <point x="88" y="756"/>
      <point x="16" y="760"/>
      <point x="16" y="760" type="curve"/>
    </contour>
    <contour>
      <point x="122" y="756" type="move" name="top"/>
    </contour>
    <contour>
      <point x="138" y="0" type="move" name="bottom"/>
    </contour>
    <contour>
      <point x="264" y="494" type="move" name="topright"/>
    </contour>
  </outline>
</glyph>
<glyph name="m" format="1">
  <advance width="878"/>
  <unicode hex="006D"/>
  <outline>
    <contour>
      <point x="549" y="503"/>
      <point x="494" y="452"/>
      <point x="468" y="399" type="curve"/>
      <point x="488" y="276" type="line"/>
      <point x="489" y="374"/>
      <point x="537" y="442"/>
      <point x="612" y="442" type="curve" smooth="yes"/>
      <point x="687" y="442"/>
      <point x="703" y="360"/>
      <point x="703" y="276" type="curve" smooth="yes"/>
      <point x="703" y="137" type="line" smooth="yes"/>
      <point x="703" y="112"/>
      <point x="698" y="83"/>
      <point x="693" y="61" type="curve"/>
      <point x="626" y="45" type="line"/>
      <point x="631" y="-5" type="line"/>
      <point x="631" y="-5"/>
      <point x="713" y="0"/>
      <point x="733" y="0" type="curve" smooth="yes"/>
      <point x="813" y="0"/>
      <point x="862" y="0"/>
      <point x="862" y="0" type="curve"/>
      <point x="869" y="54" type="line"/>
      <point x="791" y="61" type="line"/>
      <point x="791" y="61"/>
      <point x="784" y="117"/>
      <point x="784" y="167" type="curve" smooth="yes"/>
      <point x="784" y="276" type="line" smooth="yes"/>
      <point x="784" y="414"/>
      <point x="756" y="503"/>
      <point x="629" y="503" type="curve" smooth="yes"/>
    </contour>
    <contour>
      <point x="25" y="445" type="line"/>
      <point x="101" y="429" type="line"/>
      <point x="101" y="429"/>
      <point x="111" y="373"/>
      <point x="111" y="353" type="curve" smooth="yes"/>
      <point x="111" y="132" type="line"/>
      <point x="109" y="109"/>
      <point x="101" y="61"/>
      <point x="101" y="61" type="curve"/>
      <point x="25" y="45" type="line"/>
      <point x="30" y="-5" type="line"/>
      <point x="30" y="-5"/>
      <point x="121" y="0"/>
      <point x="141" y="0" type="curve" smooth="yes"/>
      <point x="221" y="0"/>
      <point x="271" y="0"/>
      <point x="271" y="0" type="curve"/>
      <point x="277" y="54" type="line"/>
      <point x="199" y="61" type="line"/>
      <point x="199" y="61"/>
      <point x="192" y="117"/>
      <point x="192" y="167" type="curve" smooth="yes"/>
      <point x="192" y="323" type="line"/>
      <point x="177" y="476" type="line"/>
      <point x="158" y="494" type="line"/>
      <point x="122" y="494" type="line" smooth="yes"/>
      <point x="102" y="494"/>
      <point x="30" y="498"/>
      <point x="30" y="498" type="curve"/>
    </contour>
    <contour>
      <point x="258" y="503"/>
      <point x="207" y="458"/>
      <point x="183" y="412" type="curve"/>
      <point x="192" y="274" type="line"/>
      <point x="193" y="372"/>
      <point x="241" y="442"/>
      <point x="316" y="442" type="curve" smooth="yes"/>
      <point x="391" y="442"/>
      <point x="407" y="360"/>
      <point x="407" y="276" type="curve" smooth="yes"/>
      <point x="407" y="137" type="line" smooth="yes"/>
      <point x="407" y="112"/>
      <point x="402" y="83"/>
      <point x="397" y="61" type="curve"/>
      <point x="330" y="45" type="line"/>
      <point x="335" y="-5" type="line"/>
      <point x="335" y="-5"/>
      <point x="417" y="0"/>
      <point x="437" y="0" type="curve" smooth="yes"/>
      <point x="517" y="0"/>
      <point x="567" y="0"/>
      <point x="567" y="0" type="curve"/>
      <point x="573" y="54" type="line"/>
      <point x="495" y="61" type="line"/>
      <point x="495" y="61"/>
      <point x="488" y="117"/>
      <point x="488" y="167" type="curve" smooth="yes"/>
      <point x="488" y="276" type="line" smooth="yes"/>
      <point x="488" y="414"/>
      <point x="460" y="503"/>
      <point x="333" y="503" type="curve" smooth="yes"/>
    </contour>
  </outline>
</glyph>
<glyph name="n" format="1">
  <advance width="598"/>
  <unicode hex="006E"/>
  <outline>
    <contour>
      <point x="259" y="503"/>
      <point x="207" y="458"/>
      <point x="183" y="412" type="curve"/>
      <point x="192" y="274" type="line"/>
      <point x="193" y="372"/>
      <point x="241" y="442"/>
      <point x="320" y="442" type="curve" smooth="yes"/>
      <point x="404" y="442"/>
      <point x="423" y="360"/>
      <point x="423" y="276" type="curve" smooth="yes"/>
      <point x="423" y="137" type="line"/>
      <point x="423" y="112"/>
      <point x="418" y="83"/>
      <point x="413" y="61" type="curve"/>
      <point x="346" y="45" type="line"/>
      <point x="351" y="-5" type="line"/>
      <point x="351" y="-5"/>
      <point x="433" y="0"/>
      <point x="453" y="0" type="curve" smooth="yes"/>
      <point x="533" y="0"/>
      <point x="582" y="0"/>
      <point x="582" y="0" type="curve"/>
      <point x="589" y="54" type="line"/>
      <point x="511" y="61" type="line"/>
      <point x="511" y="61"/>
      <point x="504" y="117"/>
      <point x="504" y="167" type="curve" smooth="yes"/>
      <point x="504" y="276" type="line" smooth="yes"/>
      <point x="504" y="414"/>
      <point x="473" y="503"/>
      <point x="335" y="503" type="curve" smooth="yes"/>
    </contour>
    <contour>
      <point x="25" y="445" type="line"/>
      <point x="101" y="429" type="line"/>
      <point x="101" y="429"/>
      <point x="111" y="373"/>
      <point x="111" y="353" type="curve" smooth="yes"/>
      <point x="111" y="132" type="line"/>
      <point x="109" y="109"/>
      <point x="101" y="61"/>
      <point x="101" y="61" type="curve"/>
      <point x="25" y="45" type="line"/>
      <point x="30" y="-5" type="line"/>
      <point x="30" y="-5"/>
      <point x="121" y="0"/>
      <point x="141" y="0" type="curve" smooth="yes"/>
      <point x="221" y="0"/>
      <point x="271" y="0"/>
      <point x="271" y="0" type="curve"/>
      <point x="277" y="54" type="line"/>
      <point x="199" y="61" type="line"/>
      <point x="199" y="61"/>
      <point x="192" y="117"/>
      <point x="192" y="167" type="curve" smooth="yes"/>
      <point x="192" y="323" type="line"/>
      <point x="177" y="476" type="line"/>
      <point x="158" y="494" type="line"/>
      <point x="122" y="494" type="line" smooth="yes"/>
      <point x="102" y="494"/>
      <point x="30" y="498"/>
      <point x="30" y="498" type="curve"/>
    </contour>
    <contour>
      <point x="324" y="494" type="move" name="top"/>
    </contour>
    <contour>
      <point x="294" y="0" type="move" name="bottom"/>
    </contour>
  </outline>
</glyph>
<glyph name="p" format="1">
  <advance width="563"/>
  <unicode hex="0070"/>
  <outline>
    <contour>
      <point x="256" y="503"/>
      <point x="190" y="461"/>
      <point x="169" y="412" type="curve"/>
      <point x="163" y="476" type="line"/>
      <point x="144" y="494" type="line"/>
      <point x="108" y="494" type="line" smooth="yes"/>
      <point x="88" y="494"/>
      <point x="16" y="498"/>
      <point x="16" y="498" type="curve"/>
      <point x="11" y="445" type="line"/>
      <point x="87" y="429" type="line"/>
      <point x="87" y="429"/>
      <point x="97" y="373"/>
      <point x="97" y="353" type="curve" smooth="yes"/>
      <point x="97" y="-96" type="line" smooth="yes"/>
      <point x="97" y="-119"/>
      <point x="87" y="-167"/>
      <point x="87" y="-167" type="curve"/>
      <point x="21" y="-183" type="line"/>
      <point x="26" y="-233" type="line"/>
      <point x="26" y="-233"/>
      <point x="98" y="-228"/>
      <point x="128" y="-228" type="curve" smooth="yes"/>
      <point x="208" y="-228"/>
      <point x="277" y="-228"/>
      <point x="277" y="-228" type="curve"/>
      <point x="283" y="-174" type="line"/>
      <point x="185" y="-167" type="line"/>
      <point x="185" y="-167"/>
      <point x="178" y="-111"/>
      <point x="178" y="-61" type="curve" smooth="yes"/>
      <point x="178" y="15" type="line"/>
      <point x="214" y="-1"/>
      <point x="251" y="-10"/>
      <point x="285" y="-10" type="curve" smooth="yes"/>
      <point x="418" y="-10"/>
      <point x="515" y="102"/>
      <point x="515" y="256" type="curve" smooth="yes"/>
      <point x="515" y="413"/>
      <point x="440" y="503"/>
      <point x="310" y="503" type="curve" smooth="yes"/>
    </contour>
    <contour>
      <point x="383" y="442"/>
      <point x="425" y="378"/>
      <point x="425" y="254" type="curve" smooth="yes"/>
      <point x="425" y="122"/>
      <point x="373" y="50"/>
      <point x="279" y="50" type="curve" smooth="yes"/>
      <point x="248" y="50"/>
      <point x="213" y="62"/>
      <point x="178" y="86" type="curve"/>
      <point x="178" y="284" type="line" smooth="yes"/>
      <point x="178" y="379"/>
      <point x="227" y="442"/>
      <point x="302" y="442" type="curve" smooth="yes"/>
    </contour>
  </outline>
</glyph>
<glyph name="q" format="1">
  <advance width="549"/>
  <unicode hex="0071"/>
  <outline>
    <contour>
      <point x="134" y="503"/>
      <point x="50" y="400"/>
      <point x="50" y="247" type="curve" smooth="yes"/>
      <point x="50" y="87"/>
      <point x="126" y="-10"/>
      <point x="251" y="-10" type="curve" smooth="yes"/>
      <point x="304" y="-10"/>
      <point x="376" y="35"/>
      <point x="396" y="81" type="curve"/>
      <point x="385" y="207" type="line"/>
      <point x="385" y="111"/>
      <point x="338" y="54"/>
      <point x="258" y="54" type="curve" smooth="yes"/>
      <point x="186" y="54"/>
      <point x="142" y="127"/>
      <point x="142" y="246" type="curve" smooth="yes"/>
      <point x="142" y="365"/>
      <point x="192" y="442"/>
      <point x="270" y="442" type="curve" smooth="yes"/>
      <point x="334" y="442"/>
      <point x="388" y="433"/>
      <point x="453" y="410" type="curve"/>
      <point x="474" y="467" type="line"/>
      <point x="367" y="496"/>
      <point x="327" y="503"/>
      <point x="260" y="503" type="curve" smooth="yes"/>
    </contour>
    <contour>
      <point x="540" y="-174" type="line"/>
      <point x="473" y="-167" type="line"/>
      <point x="473" y="-167"/>
      <point x="466" y="-111"/>
      <point x="466" y="-61" type="curve" smooth="yes"/>
      <point x="466" y="322" type="line" smooth="yes"/>
      <point x="466" y="372"/>
      <point x="474" y="467"/>
      <point x="474" y="467" type="curve"/>
      <point x="378" y="436" type="line"/>
      <point x="378" y="436"/>
      <point x="385" y="372"/>
      <point x="385" y="352" type="curve" smooth="yes"/>
      <point x="385" y="-91" type="line" smooth="yes"/>
      <point x="385" y="-111"/>
      <point x="375" y="-167"/>
      <point x="375" y="-167" type="curve"/>
      <point x="278" y="-183" type="line"/>
      <point x="283" y="-233" type="line"/>
      <point x="283" y="-233"/>
      <point x="355" y="-228"/>
      <point x="385" y="-228" type="curve" smooth="yes"/>
      <point x="465" y="-228"/>
      <point x="534" y="-228"/>
      <point x="534" y="-228" type="curve"/>
    </contour>
  </outline>
</glyph>
<glyph name="s" format="1">
  <advance width="436"/>
  <unicode hex="0073"/>
  <outline>
    <contour>
      <point x="62" y="162" type="line"/>
      <point x="61" y="29" type="line"/>
      <point x="61" y="29"/>
      <point x="124" y="-10"/>
      <point x="218" y="-10" type="curve" smooth="yes"/>
      <point x="321" y="-10"/>
      <point x="387" y="31"/>
      <point x="387" y="136" type="curve" smooth="yes"/>
      <point x="387" y="294"/>
      <point x="138" y="284"/>
      <point x="138" y="386" type="curve" smooth="yes"/>
      <point x="138" y="427"/>
      <point x="169" y="451"/>
      <point x="216" y="451" type="curve" smooth="yes"/>
      <point x="243" y="451"/>
      <point x="260" y="448"/>
      <point x="280" y="439" type="curve"/>
      <point x="289" y="416"/>
      <point x="299" y="392"/>
      <point x="299" y="382" type="curve" smooth="yes"/>
      <point x="299" y="346" type="line"/>
      <point x="357" y="343" type="line"/>
      <point x="359" y="486" type="line"/>
      <point x="312" y="496"/>
      <point x="262" y="503"/>
      <point x="215" y="503" type="curve" smooth="yes"/>
      <point x="126" y="503"/>
      <point x="58" y="454"/>
      <point x="58" y="370" type="curve" smooth="yes"/>
      <point x="58" y="208"/>
      <point x="305" y="222"/>
      <point x="305" y="117" type="curve" smooth="yes"/>
      <point x="305" y="64"/>
      <point x="270" y="41"/>
      <point x="219" y="41" type="curve" smooth="yes"/>
      <point x="188" y="41"/>
      <point x="162" y="47"/>
      <point x="140" y="65" type="curve"/>
      <point x="129" y="88"/>
      <point x="120" y="114"/>
      <point x="120" y="124" type="curve" smooth="yes"/>
      <point x="120" y="134"/>
      <point x="120" y="165"/>
      <point x="120" y="165" type="curve"/>
    </contour>
    <contour>
      <point x="218" y="494" type="move" name="top"/>
    </contour>
    <contour>
      <point x="215" y="0" type="move" name="bottom"/>
    </contour>
  </outline>
</glyph>
<glyph name="t" format="1">
  <advance width="347"/>
  <unicode hex="0074"/>
  <outline>
    <contour>
      <point x="307" y="83" type="line"/>
      <point x="307" y="83"/>
      <point x="264" y="54"/>
      <point x="228" y="54" type="curve" smooth="yes"/>
      <point x="191" y="54"/>
      <point x="174" y="82"/>
      <point x="174" y="132" type="curve" smooth="yes"/>
      <point x="174" y="440" type="line"/>
      <point x="309" y="440" type="line"/>
      <point x="314" y="494" type="line"/>
      <point x="174" y="494" type="line"/>
      <point x="174" y="597" type="line"/>
      <point x="139" y="601" type="line"/>
      <point x="139" y="601"/>
      <point x="101" y="521"/>
      <point x="93" y="511" type="curve"/>
      <point x="13" y="482" type="line"/>
      <point x="16" y="440" type="line"/>
      <point x="93" y="440" type="line"/>
      <point x="93" y="156" type="line" smooth="yes"/>
      <point x="93" y="46"/>
      <point x="122" y="-10"/>
      <point x="217" y="-10" type="curve" smooth="yes"/>
      <point x="267" y="-10"/>
      <point x="303" y="17"/>
      <point x="335" y="42" type="curve"/>
    </contour>
    <contour>
      <point x="165" y="247" type="move" name="center"/>
    </contour>
    <contour>
      <point x="195" y="0" type="move" name="bottom"/>
    </contour>
  </outline>
</glyph>
<glyph name="v" format="1">
  <advance width="524"/>
  <unicode hex="0076"/>
  <outline>
    <contour>
      <point x="522" y="441" type="line"/>
      <point x="519" y="494" type="line"/>
      <point x="519" y="494"/>
      <point x="476" y="494"/>
      <point x="396" y="494" type="curve" smooth="yes"/>
      <point x="376" y="494"/>
      <point x="312" y="497"/>
      <point x="312" y="497" type="curve"/>
      <point x="307" y="445" type="line"/>
      <point x="382" y="434" type="line"/>
      <point x="375" y="402"/>
      <point x="367" y="364"/>
      <point x="362" y="351" type="curve" smooth="yes"/>
      <point x="279" y="103" type="line"/>
      <point x="193" y="349" type="line" smooth="yes"/>
      <point x="188" y="362"/>
      <point x="178" y="400"/>
      <point x="169" y="434" type="curve"/>
      <point x="229" y="441" type="line"/>
      <point x="226" y="494" type="line"/>
      <point x="226" y="494"/>
      <point x="176" y="494"/>
      <point x="96" y="494" type="curve" smooth="yes"/>
      <point x="76" y="494"/>
      <point x="7" y="497"/>
      <point x="7" y="497" type="curve"/>
      <point x="2" y="445" type="line"/>
      <point x="63" y="434" type="line"/>
      <point x="81" y="401"/>
      <point x="99" y="358"/>
      <point x="104" y="344" type="curve" smooth="yes"/>
      <point x="112" y="322"/>
      <point x="235" y="0"/>
      <point x="235" y="0" type="curve"/>
      <point x="302" y="0" type="line"/>
      <point x="417" y="319" type="line" smooth="yes"/>
      <point x="423" y="334"/>
      <point x="448" y="393"/>
      <point x="467" y="435" type="curve"/>
    </contour>
  </outline>
</glyph>
<glyph name="braceleft" format="1">
  <advance width="272"/>
  <unicode hex="007B"/>
  <outline>
    <contour>
      <point x="97" y="281"/>
      <point x="49" y="306"/>
      <point x="35" y="306" type="curve"/>
      <point x="39" y="335" type="line"/>
      <point x="49" y="335"/>
      <point x="97" y="360"/>
      <point x="107" y="380" type="curve"/>
      <point x="107" y="500"/>
      <point x="77" y="742"/>
      <point x="77" y="742" type="curve"/>
      <point x="97" y="762" type="line"/>
      <point x="166" y="762"/>
      <point x="259" y="766"/>
      <point x="259" y="766" type="curve"/>
      <point x="262" y="723" type="line"/>
      <point x="175" y="711" type="line"/>
      <point x="175" y="711"/>
      <point x="167" y="621"/>
      <point x="167" y="601" type="curve" smooth="yes"/>
      <point x="167" y="541"/>
      <point x="176" y="417"/>
      <point x="176" y="357" type="curve"/>
      <point x="156" y="339"/>
      <point x="120" y="325"/>
      <point x="120" y="325" type="curve"/>
      <point x="120" y="316" type="line"/>
      <point x="120" y="316"/>
      <point x="156" y="302"/>
      <point x="176" y="284" type="curve"/>
      <point x="176" y="224"/>
      <point x="167" y="100"/>
      <point x="167" y="40" type="curve" smooth="yes"/>
      <point x="167" y="20"/>
      <point x="175" y="-70"/>
      <point x="175" y="-70" type="curve"/>
      <point x="262" y="-82" type="line"/>
      <point x="259" y="-125" type="line"/>
      <point x="259" y="-125"/>
      <point x="166" y="-121"/>
      <point x="97" y="-121" type="curve"/>
      <point x="77" y="-101" type="line"/>
      <point x="77" y="-101"/>
      <point x="107" y="141"/>
      <point x="107" y="261" type="curve"/>
    </contour>
  </outline>
</glyph>
<glyph name="braceright" format="1">
  <advance width="272"/>
  <unicode hex="007D"/>
  <outline>
    <contour>
      <point x="175" y="360"/>
      <point x="223" y="335"/>
      <point x="237" y="335" type="curve"/>
      <point x="233" y="306" type="line"/>
      <point x="223" y="306"/>
      <point x="175" y="281"/>
      <point x="165" y="261" type="curve"/>
      <point x="165" y="141"/>
      <point x="195" y="-101"/>
      <point x="195" y="-101" type="curve"/>
      <point x="175" y="-121" type="line"/>
      <point x="106" y="-121"/>
      <point x="13" y="-125"/>
      <point x="13" y="-125" type="curve"/>
      <point x="10" y="-82" type="line"/>
      <point x="97" y="-70" type="line"/>
      <point x="97" y="-70"/>
      <point x="105" y="20"/>
      <point x="105" y="40" type="curve" smooth="yes"/>
      <point x="105" y="100"/>
      <point x="96" y="224"/>
      <point x="96" y="284" type="curve"/>
      <point x="116" y="302"/>
      <point x="152" y="316"/>
      <point x="152" y="316" type="curve"/>
      <point x="152" y="325" type="line"/>
      <point x="152" y="325"/>
      <point x="116" y="339"/>
      <point x="96" y="357" type="curve"/>
      <point x="96" y="417"/>
      <point x="105" y="541"/>
      <point x="105" y="601" type="curve" smooth="yes"/>
      <point x="105" y="621"/>
      <point x="97" y="711"/>
      <point x="97" y="711" type="curve"/>
      <point x="10" y="723" type="line"/>
      <point x="13" y="766" type="line"/>
      <point x="13" y="766"/>
      <point x="106" y="762"/>
      <point x="175" y="762" type="curve"/>
      <point x="195" y="742" type="line"/>
      <point x="195" y="742"/>
      <point x="165" y="500"/>
      <point x="165" y="380" type="curve"/>
    </contour>
  </outline>
</glyph>
<glyph name="cent" format="1">
  <advance width="483"/>
  <unicode hex="00A2"/>
  <outline>
    <contour>
      <point x="134" y="423"/>
      <point x="170" y="523"/>
      <point x="270" y="523" type="curve" smooth="yes"/>
      <point x="299" y="523"/>
      <point x="323" y="517"/>
      <point x="352" y="493" type="curve"/>
      <point x="356" y="479"/>
      <point x="359" y="466"/>
      <point x="359" y="459" type="curve" smooth="yes"/>
      <point x="359" y="423" type="line"/>
      <point x="417" y="420" type="line"/>
      <point x="427" y="545" type="line"/>
      <point x="367" y="565"/>
      <point x="329" y="580"/>
      <point x="270" y="580" type="curve" smooth="yes"/>
      <point x="117" y="580"/>
      <point x="40" y="476"/>
      <point x="40" y="323" type="curve" smooth="yes"/>
      <point x="40" y="170"/>
      <point x="116" y="67"/>
      <point x="269" y="67" type="curve" smooth="yes"/>
      <point x="373" y="67"/>
      <point x="438" y="121"/>
      <point x="438" y="121" type="curve"/>
      <point x="410" y="168" type="line"/>
      <point x="410" y="168"/>
      <point x="348" y="132"/>
      <point x="270" y="132" type="curve" smooth="yes"/>
      <point x="170" y="132"/>
      <point x="134" y="223"/>
      <point x="134" y="323" type="curve" smooth="yes"/>
    </contour>
    <contour>
      <point x="268" y="-42" type="line"/>
      <point x="297" y="686" type="line"/>
      <point x="263" y="689" type="line"/>
      <point x="233" y="-39" type="line"/>
    </contour>
  </outline>
</glyph>
<glyph name="yen" format="1">
  <advance width="645"/>
  <unicode hex="00A5"/>
  <outline>
    <contour>
      <point x="351" y="263" type="line"/>
      <point x="496" y="513" type="line"/>
      <point x="518" y="538"/>
      <point x="589" y="615"/>
      <point x="589" y="615" type="curve"/>
      <point x="479" y="634" type="line"/>
      <point x="479" y="634"/>
      <point x="457" y="570"/>
      <point x="444" y="545" type="curve"/>
      <point x="327" y="343" type="line"/>
      <point x="234" y="499" type="line"/>
      <point x="219" y="526"/>
      <point x="183" y="612"/>
      <point x="183" y="612" type="curve"/>
      <point x="43" y="608" type="line"/>
      <point x="43" y="608"/>
      <point x="98" y="548"/>
      <point x="119" y="523" type="curve"/>
      <point x="271" y="270" type="line"/>
    </contour>
    <contour>
      <point x="368" y="355" type="line"/>
      <point x="525" y="362" type="line"/>
      <point x="524" y="396" type="line"/>
      <point x="390" y="390" type="line"/>
    </contour>
    <contour>
      <point x="252" y="384" type="line"/>
      <point x="112" y="378" type="line"/>
      <point x="114" y="343" type="line"/>
      <point x="279" y="351" type="line"/>
    </contour>
    <contour>
      <point x="117" y="237" type="line"/>
      <point x="529" y="256" type="line"/>
      <point x="527" y="290" type="line"/>
      <point x="116" y="272" type="line"/>
    </contour>
    <contour>
      <point x="271" y="137" type="line" smooth="yes"/>
      <point x="271" y="120"/>
      <point x="264" y="74"/>
      <point x="262" y="61" type="curve"/>
      <point x="183" y="45" type="line"/>
      <point x="188" y="-5" type="line"/>
      <point x="188" y="-5"/>
      <point x="298" y="0"/>
      <point x="323" y="0" type="curve"/>
      <point x="452" y="0" type="line"/>
      <point x="459" y="54" type="line"/>
      <point x="369" y="61" type="line"/>
      <point x="367" y="75"/>
      <point x="362" y="125"/>
      <point x="362" y="167" type="curve" smooth="yes"/>
      <point x="362" y="320" type="line"/>
      <point x="271" y="320" type="line"/>
    </contour>
    <contour>
      <point x="635" y="599" type="line"/>
      <point x="631" y="658" type="line"/>
      <point x="631" y="658"/>
      <point x="537" y="653"/>
      <point x="487" y="653" type="curve" smooth="yes"/>
      <point x="467" y="653"/>
      <point x="397" y="658"/>
      <point x="397" y="658" type="curve"/>
      <point x="392" y="604" type="line"/>
      <point x="468" y="589" type="line"/>
      <point x="566" y="592" type="line"/>
    </contour>
    <contour>
      <point x="271" y="599" type="line"/>
      <point x="267" y="658" type="line"/>
      <point x="267" y="658"/>
      <point x="186" y="653"/>
      <point x="126" y="653" type="curve" smooth="yes"/>
      <point x="106" y="653"/>
      <point x="11" y="658"/>
      <point x="11" y="658" type="curve"/>
      <point x="6" y="604" type="line"/>
      <point x="72" y="589" type="line"/>
      <point x="192" y="589" type="line"/>
    </contour>
  </outline>
</glyph>
<glyph name="dieresis" format="1">
  <advance width="384"/>
  <unicode hex="00A8"/>
  <outline>
    <component base="dieresis_dot_sub_comp" xOffset="30"/>
    <component base="dieresis_dot_sub_comp" xOffset="205"/>
    <contour>
      <point x="195" y="494" type="move" name="_top"/>
    </contour>
  </outline>
</glyph>
<glyph name="macron" format="1">
  <advance width="362"/>
  <unicode hex="00AF"/>
  <outline>
    <contour>
      <point x="336" y="580" type="line"/>
      <point x="342" y="635" type="line"/>
      <point x="20" y="635" type="line"/>
      <point x="20" y="580" type="line"/>
    </contour>
    <contour>
      <point x="181" y="494" type="move" name="_top"/>
    </contour>
  </outline>
</glyph>
<glyph name="two.sups" format="1">
  <advance width="338"/>
  <unicode hex="00B2"/>
  <outline>
    <contour>
      <point x="112" y="854"/>
      <point x="76" y="848"/>
      <point x="34" y="832" type="curve"/>
      <point x="40" y="733" type="line"/>
      <point x="83" y="736" type="line"/>
      <point x="82" y="763" type="line"/>
      <point x="82" y="768"/>
      <point x="84" y="778"/>
      <point x="88" y="789" type="curve"/>
      <point x="107" y="800"/>
      <point x="126" y="805"/>
      <point x="146" y="805" type="curve" smooth="yes"/>
      <point x="184" y="805"/>
      <point x="210" y="782"/>
      <point x="210" y="743" type="curve" smooth="yes"/>
      <point x="210" y="689"/>
      <point x="179" y="650"/>
      <point x="20" y="504" type="curve"/>
      <point x="29" y="450" type="line"/>
      <point x="218" y="450" type="line" smooth="yes"/>
      <point x="231" y="450"/>
      <point x="288" y="448"/>
      <point x="288" y="448" type="curve"/>
      <point x="304" y="460" type="line"/>
      <point x="309" y="565" type="line"/>
      <point x="267" y="568" type="line"/>
      <point x="263" y="543" type="line"/>
      <point x="263" y="539"/>
      <point x="258" y="524"/>
      <point x="255" y="517" type="curve"/>
      <point x="236" y="515"/>
      <point x="210" y="511"/>
      <point x="199" y="511" type="curve" smooth="yes"/>
      <point x="107" y="511" type="line"/>
      <point x="253" y="637"/>
      <point x="290" y="684"/>
      <point x="290" y="752" type="curve" smooth="yes"/>
      <point x="290" y="816"/>
      <point x="240" y="854"/>
      <point x="155" y="854" type="curve" smooth="yes"/>
    </contour>
  </outline>
</glyph>
<glyph name="three.sups" format="1">
  <advance width="307"/>
  <unicode hex="00B3"/>
  <outline>
    <contour>
      <point x="89" y="854"/>
      <point x="55" y="848"/>
      <point x="19" y="836" type="curve"/>
      <point x="75" y="799" type="line"/>
      <point x="89" y="805"/>
      <point x="104" y="809"/>
      <point x="121" y="809" type="curve" smooth="yes"/>
      <point x="158" y="809"/>
      <point x="178" y="788"/>
      <point x="178" y="749" type="curve" smooth="yes"/>
      <point x="178" y="698"/>
      <point x="142" y="666"/>
      <point x="69" y="656" type="curve"/>
      <point x="78" y="617" type="line"/>
      <point x="78" y="617"/>
      <point x="99" y="619"/>
      <point x="119" y="619" type="curve" smooth="yes"/>
      <point x="164" y="619"/>
      <point x="191" y="594"/>
      <point x="191" y="550" type="curve" smooth="yes"/>
      <point x="191" y="490"/>
      <point x="121" y="440"/>
      <point x="15" y="425" type="curve"/>
      <point x="27" y="386" type="line"/>
      <point x="171" y="399"/>
      <point x="274" y="470"/>
      <point x="274" y="555" type="curve" smooth="yes"/>
      <point x="274" y="601"/>
      <point x="239" y="641"/>
      <point x="186" y="653" type="curve"/>
      <point x="231" y="674"/>
      <point x="257" y="709"/>
      <point x="257" y="750" type="curve" smooth="yes"/>
      <point x="257" y="818"/>
      <point x="211" y="854"/>
      <point x="124" y="854" type="curve" smooth="yes"/>
    </contour>
    <contour>
      <point x="19" y="836" type="line"/>
      <point x="27" y="738" type="line"/>
      <point x="70" y="740" type="line"/>
      <point x="69" y="769" type="line" smooth="yes"/>
      <point x="69" y="772"/>
      <point x="71" y="782"/>
      <point x="75" y="799" type="curve"/>
    </contour>
  </outline>
</glyph>
<glyph name="acute" format="1">
  <advance width="360"/>
  <unicode hex="00B4"/>
  <outline>
    <contour>
      <point x="227" y="750" type="line"/>
      <point x="47" y="600" type="line"/>
      <point x="76" y="564" type="line"/>
      <point x="270" y="695" type="line"/>
    </contour>
    <contour>
      <point x="142" y="494" type="move" name="_top"/>
    </contour>
  </outline>
</glyph>
<glyph name="mu" format="1">
  <advance width="580"/>
  <unicode hex="00B5"/>
  <outline>
    <contour>
      <point x="95" y="357" type="line"/>
      <point x="95" y="217" type="line" smooth="yes"/>
      <point x="95" y="181"/>
      <point x="128" y="163"/>
      <point x="128" y="133" type="curve" smooth="yes"/>
      <point x="128" y="64"/>
      <point x="175" y="-10"/>
      <point x="264" y="-10" type="curve" smooth="yes"/>
      <point x="357" y="-10"/>
      <point x="395" y="45"/>
      <point x="414" y="78" type="curve"/>
      <point x="403" y="210" type="line"/>
      <point x="403" y="130"/>
      <point x="359" y="54"/>
      <point x="277" y="54" type="curve" smooth="yes"/>
      <point x="203" y="54"/>
      <point x="176" y="109"/>
      <point x="176" y="183" type="curve" smooth="yes"/>
      <point x="176" y="327" type="line" smooth="yes"/>
      <point x="176" y="377"/>
      <point x="183" y="491"/>
      <point x="183" y="491" type="curve"/>
      <point x="177" y="497" type="line"/>
      <point x="177" y="497"/>
      <point x="151" y="494"/>
      <point x="131" y="494" type="curve" smooth="yes"/>
      <point x="124" y="494"/>
      <point x="94" y="497"/>
      <point x="94" y="497" type="curve"/>
      <point x="88" y="491" type="line"/>
    </contour>
    <contour>
      <point x="396" y="491" type="line"/>
      <point x="403" y="357" type="line"/>
      <point x="403" y="107" type="line" smooth="yes"/>
      <point x="403" y="18"/>
      <point x="473" y="6"/>
      <point x="529" y="-15" type="curve"/>
      <point x="548" y="27" type="line"/>
      <point x="494" y="57"/>
      <point x="484" y="76"/>
      <point x="484" y="137" type="curve" smooth="yes"/>
      <point x="484" y="327" type="line" smooth="yes"/>
      <point x="484" y="377"/>
      <point x="491" y="491"/>
      <point x="491" y="491" type="curve"/>
      <point x="485" y="497" type="line"/>
      <point x="485" y="497"/>
      <point x="459" y="494"/>
      <point x="439" y="494" type="curve" smooth="yes"/>
      <point x="428" y="494"/>
      <point x="402" y="497"/>
      <point x="402" y="497" type="curve"/>
    </contour>
    <contour>
      <point x="95" y="234" type="line"/>
      <point x="95" y="-47" type="line" smooth="yes"/>
      <point x="95" y="-64"/>
      <point x="91" y="-176"/>
      <point x="92" y="-210" type="curve"/>
      <point x="101" y="-218" type="line"/>
      <point x="101" y="-218"/>
      <point x="134" y="-214"/>
      <point x="159" y="-214" type="curve" smooth="yes"/>
      <point x="181" y="-214" type="line"/>
      <point x="190" y="-206" type="line"/>
      <point x="190" y="-206"/>
      <point x="171" y="-97"/>
      <point x="170" y="-77" type="curve" smooth="yes"/>
      <point x="158" y="174"/>
      <point x="159" y="234"/>
      <point x="159" y="234" type="curve"/>
    </contour>
  </outline>
</glyph>
<glyph name="paragraph" format="1">
  <advance width="556"/>
  <unicode hex="00B6"/>
  <outline>
    <contour>
      <point x="17" y="367"/>
      <point x="129" y="291"/>
      <point x="263" y="291" type="curve" smooth="yes"/>
      <point x="290" y="316" type="line"/>
      <point x="290" y="651" type="line"/>
      <point x="290" y="712" type="line"/>
      <point x="271" y="714"/>
      <point x="255" y="715"/>
      <point x="240" y="715" type="curve" smooth="yes"/>
      <point x="102" y="715"/>
      <point x="17" y="644"/>
      <point x="17" y="502" type="curve" smooth="yes"/>
    </contour>
    <contour>
      <point x="515" y="656" type="line"/>
      <point x="510" y="710" type="line"/>
      <point x="359" y="705" type="line"/>
      <point x="340" y="687" type="line"/>
      <point x="340" y="47" type="line" smooth="yes"/>
      <point x="340" y="30"/>
      <point x="333" y="-16"/>
      <point x="331" y="-29" type="curve"/>
      <point x="252" y="-45" type="line"/>
      <point x="257" y="-95" type="line"/>
      <point x="257" y="-95"/>
      <point x="367" y="-90"/>
      <point x="392" y="-90" type="curve"/>
      <point x="419" y="-90" type="line"/>
      <point x="438" y="-73" type="line"/>
      <point x="436" y="-59"/>
      <point x="431" y="35"/>
      <point x="431" y="77" type="curve" smooth="yes"/>
      <point x="431" y="538" type="line" smooth="yes"/>
      <point x="431" y="580"/>
      <point x="436" y="630"/>
      <point x="438" y="644" type="curve"/>
    </contour>
  </outline>
</glyph>
<glyph name="periodcentered" format="1">
  <advance width="213"/>
  <unicode hex="00B7"/>
  <outline>
    <contour>
      <point x="144" y="369"/>
      <point x="168" y="343"/>
      <point x="168" y="299" type="curve" smooth="yes"/>
      <point x="168" y="258"/>
      <point x="145" y="230"/>
      <point x="104" y="230" type="curve" smooth="yes"/>
      <point x="63" y="230"/>
      <point x="40" y="258"/>
      <point x="40" y="299" type="curve" smooth="yes"/>
      <point x="40" y="340"/>
      <point x="63" y="369"/>
      <point x="104" y="369" type="curve" smooth="yes"/>
    </contour>
  </outline>
</glyph>
<glyph name="cedilla" format="1">
  <advance width="360"/>
  <unicode hex="00B8"/>
  <outline>
    <contour>
      <point x="208" y="17" type="line"/>
      <point x="160" y="17" type="line"/>
      <point x="151" y="-87" type="line"/>
      <point x="162" y="-97" type="line"/>
      <point x="162" y="-97"/>
      <point x="177" y="-96"/>
      <point x="183" y="-96" type="curve" smooth="yes"/>
      <point x="210" y="-96"/>
      <point x="230" y="-109"/>
      <point x="230" y="-139" type="curve" smooth="yes"/>
      <point x="230" y="-169"/>
      <point x="208" y="-186"/>
      <point x="176" y="-186" type="curve" smooth="yes"/>
      <point x="156" y="-186"/>
      <point x="134" y="-180"/>
      <point x="118" y="-175" type="curve"/>
      <point x="105" y="-210" type="line"/>
      <point x="122" y="-218"/>
      <point x="151" y="-228"/>
      <point x="188" y="-228" type="curve" smooth="yes"/>
      <point x="247" y="-228"/>
      <point x="295" y="-193"/>
      <point x="295" y="-139" type="curve" smooth="yes"/>
      <point x="295" y="-85"/>
      <point x="253" y="-53"/>
      <point x="194" y="-52" type="curve"/>
    </contour>
    <contour>
      <point x="180" y="0" type="move" name="_bottom"/>
    </contour>
  </outline>
</glyph>
<glyph name="one.sups" format="1">
  <advance width="262"/>
  <unicode hex="00B9"/>
  <outline>
    <contour>
      <point x="238" y="494" type="line"/>
      <point x="189" y="498" type="line"/>
      <point x="188" y="501"/>
      <point x="183" y="538"/>
      <point x="183" y="566" type="curve" smooth="yes"/>
      <point x="183" y="710" type="line" smooth="yes"/>
      <point x="183" y="740"/>
      <point x="188" y="853"/>
      <point x="188" y="853" type="curve"/>
      <point x="139" y="860" type="line"/>
      <point x="139" y="860"/>
      <point x="116" y="831"/>
      <point x="109" y="825" type="curve" smooth="yes"/>
      <point x="97" y="815"/>
      <point x="23" y="759"/>
      <point x="23" y="759" type="curve"/>
      <point x="43" y="726" type="line"/>
      <point x="114" y="758" type="line"/>
      <point x="114" y="548" type="line" smooth="yes"/>
      <point x="114" y="536"/>
      <point x="109" y="501"/>
      <point x="109" y="498" type="curve"/>
      <point x="49" y="490" type="line"/>
      <point x="52" y="447" type="line"/>
      <point x="52" y="447"/>
      <point x="110" y="450"/>
      <point x="131" y="450" type="curve" smooth="yes"/>
      <point x="193" y="450"/>
      <point x="234" y="447"/>
      <point x="234" y="447" type="curve"/>
    </contour>
  </outline>
</glyph>
<glyph name="ordmasculine" format="1">
  <advance width="413"/>
  <unicode hex="00BA"/>
  <outline>
    <contour>
      <point x="355" y="698"/>
      <point x="303" y="757"/>
      <point x="206" y="757" type="curve" smooth="yes"/>
      <point x="109" y="757"/>
      <point x="58" y="698"/>
      <point x="58" y="599" type="curve"/>
      <point x="58" y="502"/>
      <point x="109" y="442"/>
      <point x="206" y="442" type="curve"/>
      <point x="303" y="442"/>
      <point x="355" y="502"/>
      <point x="355" y="599" type="curve"/>
    </contour>
    <contour>
      <point x="274" y="529"/>
      <point x="256" y="487"/>
      <point x="206" y="487" type="curve"/>
      <point x="157" y="487"/>
      <point x="139" y="529"/>
      <point x="139" y="599" type="curve"/>
      <point x="139" y="669"/>
      <point x="157" y="712"/>
      <point x="206" y="712" type="curve" smooth="yes"/>
      <point x="256" y="712"/>
      <point x="274" y="669"/>
      <point x="274" y="599" type="curve"/>
    </contour>
    <contour>
      <point x="34" y="0" type="move" name="top"/>
    </contour>
  </outline>
</glyph>
<glyph name="AE" format="1">
  <advance width="917"/>
  <unicode hex="00C6"/>
  <outline>
    <contour>
      <point x="470" y="130" type="line" smooth="yes"/>
      <point x="473" y="110"/>
      <point x="475" y="90"/>
      <point x="475" y="64" type="curve"/>
      <point x="402" y="44" type="line"/>
      <point x="406" y="-5" type="line"/>
      <point x="406" y="-5"/>
      <point x="518" y="0"/>
      <point x="549" y="0" type="curve"/>
      <point x="734" y="0" type="line" smooth="yes"/>
      <point x="754" y="0"/>
      <point x="848" y="-4"/>
      <point x="848" y="-4" type="curve"/>
      <point x="867" y="14" type="line"/>
      <point x="882" y="165" type="line"/>
      <point x="827" y="170" type="line"/>
      <point x="825" y="154"/>
      <point x="816" y="118"/>
      <point x="812" y="103" type="curve" smooth="yes"/>
      <point x="810" y="96"/>
      <point x="801" y="80"/>
      <point x="791" y="66" type="curve"/>
      <point x="769" y="62"/>
      <point x="734" y="57"/>
      <point x="704" y="57" type="curve" smooth="yes"/>
      <point x="582" y="57" type="line"/>
      <point x="557" y="167" type="line" smooth="yes"/>
      <point x="500" y="541" type="line" smooth="yes"/>
      <point x="494" y="578"/>
      <point x="491" y="627"/>
      <point x="489" y="649" type="curve"/>
      <point x="670" y="649" type="line" smooth="yes"/>
      <point x="698" y="649"/>
      <point x="729" y="646"/>
      <point x="751" y="644" type="curve"/>
      <point x="761" y="631"/>
      <point x="770" y="617"/>
      <point x="771" y="610" type="curve"/>
      <point x="775" y="595"/>
      <point x="780" y="572"/>
      <point x="782" y="556" type="curve"/>
      <point x="840" y="561" type="line"/>
      <point x="833" y="697" type="line"/>
      <point x="814" y="715" type="line"/>
      <point x="814" y="715"/>
      <point x="720" y="705"/>
      <point x="700" y="705" type="curve" smooth="yes"/>
      <point x="389" y="705" type="line"/>
      <point x="129" y="160" type="line" smooth="yes"/>
      <point x="122" y="145"/>
      <point x="91" y="93"/>
      <point x="68" y="61" type="curve"/>
      <point x="5" y="44" type="line"/>
      <point x="9" y="-5" type="line"/>
      <point x="9" y="-5"/>
      <point x="119" y="0"/>
      <point x="144" y="0" type="curve"/>
      <point x="230" y="0" type="line"/>
      <point x="235" y="54" type="line"/>
      <point x="165" y="64" type="line"/>
      <point x="169" y="80"/>
      <point x="179" y="119"/>
      <point x="183" y="127" type="curve" smooth="yes"/>
      <point x="400" y="584" type="line"/>
    </contour>
    <contour>
      <point x="628" y="326" type="line"/>
      <point x="648" y="326"/>
      <point x="708" y="320"/>
      <point x="708" y="320" type="curve"/>
      <point x="717" y="257" type="line"/>
      <point x="765" y="263" type="line"/>
      <point x="765" y="263"/>
      <point x="762" y="322"/>
      <point x="762" y="372" type="curve" smooth="yes"/>
      <point x="762" y="392"/>
      <point x="763" y="452"/>
      <point x="763" y="452" type="curve"/>
      <point x="717" y="457" type="line"/>
      <point x="708" y="391" type="line"/>
      <point x="708" y="391"/>
      <point x="668" y="382"/>
      <point x="648" y="382" type="curve"/>
      <point x="515" y="382" type="line"/>
      <point x="522" y="326" type="line"/>
    </contour>
    <contour>
      <point x="453" y="285" type="line"/>
      <point x="248" y="285" type="line"/>
      <point x="230" y="232" type="line"/>
      <point x="460" y="232" type="line"/>
    </contour>
    <contour>
      <point x="517" y="705" type="move" name="top"/>
    </contour>
  </outline>
</glyph>
<glyph name="Ccedilla" format="1">
  <advance width="610"/>
  <unicode hex="00C7"/>
  <outline>
    <contour>
      <point x="557" y="170" type="line"/>
      <point x="498" y="168" type="line"/>
      <point x="498" y="168"/>
      <point x="498" y="131"/>
      <point x="496" y="121" type="curve"/>
      <point x="496" y="111"/>
      <point x="489" y="88"/>
      <point x="482" y="65" type="curve"/>
      <point x="440" y="52"/>
      <point x="387" y="43"/>
      <point x="346" y="43" type="curve" smooth="yes"/>
      <point x="203" y="43"/>
      <point x="133" y="180"/>
      <point x="133" y="353" type="curve" smooth="yes"/>
      <point x="133" y="526"/>
      <point x="203" y="662"/>
      <point x="347" y="662" type="curve" smooth="yes"/>
      <point x="385" y="662"/>
      <point x="434" y="652"/>
      <point x="473" y="639" type="curve"/>
      <point x="479" y="619"/>
      <point x="485" y="598"/>
      <point x="485" y="589" type="curve" smooth="yes"/>
      <point x="485" y="542" type="line"/>
      <point x="544" y="538" type="line"/>
      <point x="554" y="686" type="line"/>
      <point x="491" y="702"/>
      <point x="429" y="720"/>
      <point x="347" y="720" type="curve" smooth="yes"/>
      <point x="137" y="720"/>
      <point x="30" y="570"/>
      <point x="30" y="352" type="curve" smooth="yes"/>
      <point x="30" y="134"/>
      <point x="137" y="-15"/>
      <point x="347" y="-15" type="curve" smooth="yes"/>
      <point x="428" y="-15"/>
      <point x="500" y="3"/>
      <point x="563" y="19" type="curve"/>
    </contour>
    <contour>
      <point x="375" y="10" type="line"/>
      <point x="327" y="10" type="line"/>
      <point x="318" y="-94" type="line"/>
      <point x="329" y="-104" type="line"/>
      <point x="329" y="-104"/>
      <point x="344" y="-103"/>
      <point x="350" y="-103" type="curve" smooth="yes"/>
      <point x="377" y="-103"/>
      <point x="397" y="-116"/>
      <point x="397" y="-146" type="curve" smooth="yes"/>
      <point x="397" y="-176"/>
      <point x="375" y="-193"/>
      <point x="343" y="-193" type="curve" smooth="yes"/>
      <point x="323" y="-193"/>
      <point x="301" y="-187"/>
      <point x="285" y="-182" type="curve"/>
      <point x="272" y="-217" type="line"/>
      <point x="289" y="-225"/>
      <point x="318" y="-235"/>
      <point x="355" y="-235" type="curve" smooth="yes"/>
      <point x="414" y="-235"/>
      <point x="462" y="-200"/>
      <point x="462" y="-146" type="curve" smooth="yes"/>
      <point x="462" y="-92"/>
      <point x="420" y="-60"/>
      <point x="361" y="-59" type="curve"/>
    </contour>
    <contour>
      <point x="347" y="0" type="move" name="_bottom"/>
    </contour>
    <contour>
      <point x="347" y="0" type="move" name="bottom"/>
    </contour>
    <contour>
      <point x="344" y="705" type="move" name="top"/>
    </contour>
  </outline>
</glyph>
<glyph name="Idieresis" format="1">
  <advance width="343"/>
  <unicode hex="00CF"/>
  <outline>
    <contour>
      <point x="297" y="710" type="line"/>
      <point x="297" y="710"/>
      <point x="219" y="705"/>
      <point x="159" y="705" type="curve" smooth="yes"/>
      <point x="139" y="705"/>
      <point x="44" y="710"/>
      <point x="44" y="710" type="curve"/>
      <point x="39" y="656" type="line"/>
      <point x="116" y="644" type="line"/>
      <point x="118" y="631"/>
      <point x="125" y="585"/>
      <point x="125" y="568" type="curve" smooth="yes"/>
      <point x="125" y="137" type="line" smooth="yes"/>
      <point x="125" y="120"/>
      <point x="118" y="74"/>
      <point x="116" y="61" type="curve"/>
      <point x="37" y="45" type="line"/>
      <point x="42" y="-5" type="line"/>
      <point x="42" y="-5"/>
      <point x="152" y="0"/>
      <point x="177" y="0" type="curve"/>
      <point x="307" y="0" type="line"/>
      <point x="313" y="54" type="line"/>
      <point x="223" y="61" type="line"/>
      <point x="221" y="75"/>
      <point x="216" y="125"/>
      <point x="216" y="167" type="curve" smooth="yes"/>
      <point x="216" y="538" type="line" smooth="yes"/>
      <point x="216" y="580"/>
      <point x="221" y="630"/>
      <point x="223" y="644" type="curve"/>
      <point x="301" y="651" type="line"/>
    </contour>
    <contour>
      <point x="223" y="859"/>
      <point x="205" y="835"/>
      <point x="205" y="799" type="curve" smooth="yes"/>
      <point x="205" y="763"/>
      <point x="223" y="740"/>
      <point x="259" y="740" type="curve" smooth="yes"/>
      <point x="295" y="740"/>
      <point x="313" y="763"/>
      <point x="313" y="799" type="curve" smooth="yes"/>
      <point x="313" y="838"/>
      <point x="294" y="859"/>
      <point x="259" y="859" type="curve" smooth="yes"/>
    </contour>
    <contour>
      <point x="47" y="859"/>
      <point x="29" y="835"/>
      <point x="29" y="799" type="curve" smooth="yes"/>
      <point x="29" y="763"/>
      <point x="47" y="740"/>
      <point x="83" y="740" type="curve" smooth="yes"/>
      <point x="119" y="740"/>
      <point x="137" y="763"/>
      <point x="137" y="799" type="curve" smooth="yes"/>
      <point x="137" y="838"/>
      <point x="118" y="859"/>
      <point x="83" y="859" type="curve" smooth="yes"/>
    </contour>
    <contour>
      <point x="306" y="0" type="move" name="ogonek"/>
    </contour>
    <contour>
      <point x="171" y="705" type="move" name="top"/>
    </contour>
    <contour>
      <point x="171" y="705" type="move" name="_top"/>
    </contour>
    <contour>
      <point x="179" y="0" type="move" name="bottom"/>
    </contour>
  </outline>
</glyph>
<glyph name="Eth" format="1">
  <advance width="726"/>
  <unicode hex="00D0"/>
  <outline>
    <contour>
      <point x="356" y="337" type="line"/>
      <point x="361" y="380" type="line"/>
      <point x="39" y="380" type="line"/>
      <point x="39" y="337" type="line"/>
    </contour>
    <contour>
      <point x="45" y="710" type="curve"/>
      <point x="40" y="656" type="line"/>
      <point x="117" y="644" type="line"/>
      <point x="119" y="631"/>
      <point x="126" y="585"/>
      <point x="126" y="568" type="curve" smooth="yes"/>
      <point x="126" y="137" type="line" smooth="yes"/>
      <point x="126" y="120"/>
      <point x="119" y="74"/>
      <point x="117" y="61" type="curve"/>
      <point x="38" y="45" type="line"/>
      <point x="43" y="-5" type="line"/>
      <point x="43" y="-5"/>
      <point x="153" y="0"/>
      <point x="178" y="0" type="curve" smooth="yes"/>
      <point x="228" y="0"/>
      <point x="280" y="-4"/>
      <point x="330" y="-4" type="curve" smooth="yes"/>
      <point x="546" y="-4"/>
      <point x="675" y="141"/>
      <point x="675" y="352" type="curve" smooth="yes"/>
      <point x="675" y="570"/>
      <point x="553" y="710"/>
      <point x="330" y="710" type="curve" smooth="yes"/>
      <point x="264" y="710"/>
      <point x="224" y="705"/>
      <point x="160" y="705" type="curve" smooth="yes"/>
      <point x="140" y="705"/>
      <point x="78" y="708"/>
    </contour>
    <contour>
      <point x="498" y="650"/>
      <point x="576" y="514"/>
      <point x="576" y="352" type="curve" smooth="yes"/>
      <point x="576" y="189"/>
      <point x="498" y="55"/>
      <point x="331" y="55" type="curve" smooth="yes"/>
      <point x="287" y="55"/>
      <point x="250" y="57"/>
      <point x="224" y="58" type="curve"/>
      <point x="223" y="62"/>
      <point x="217" y="119"/>
      <point x="217" y="167" type="curve" smooth="yes"/>
      <point x="217" y="538" type="line" smooth="yes"/>
      <point x="217" y="578"/>
      <point x="222" y="631"/>
      <point x="224" y="650" type="curve"/>
      <point x="249" y="650"/>
      <point x="285" y="650"/>
      <point x="331" y="650" type="curve" smooth="yes"/>
    </contour>
    <contour>
      <point x="357" y="353" type="move" name="center"/>
    </contour>
    <contour>
      <point x="327" y="705" type="move" name="top"/>
    </contour>
  </outline>
</glyph>
<glyph name="Oacute" format="1">
  <advance width="716"/>
  <unicode hex="00D3"/>
  <outline>
    <contour>
      <point x="686" y="570"/>
      <point x="575" y="720"/>
      <point x="358" y="720" type="curve" smooth="yes"/>
      <point x="141" y="720"/>
      <point x="30" y="570"/>
      <point x="30" y="352" type="curve" smooth="yes"/>
      <point x="30" y="135"/>
      <point x="141" y="-15"/>
      <point x="358" y="-15" type="curve" smooth="yes"/>
      <point x="575" y="-15"/>
      <point x="686" y="135"/>
      <point x="686" y="352" type="curve" smooth="yes"/>
    </contour>
    <contour>
      <point x="137" y="527"/>
      <point x="209" y="667"/>
      <point x="358" y="667" type="curve" smooth="yes"/>
      <point x="507" y="667"/>
      <point x="579" y="527"/>
      <point x="579" y="352" type="curve" smooth="yes"/>
      <point x="579" y="178"/>
      <point x="507" y="38"/>
      <point x="358" y="38" type="curve" smooth="yes"/>
      <point x="209" y="38"/>
      <point x="137" y="178"/>
      <point x="137" y="352" type="curve" smooth="yes"/>
    </contour>
    <contour>
      <point x="477" y="889" type="line"/>
      <point x="248" y="788" type="line"/>
      <point x="263" y="746" type="line"/>
      <point x="503" y="824" type="line"/>
    </contour>
    <contour>
      <point x="358" y="705" type="move" name="top"/>
    </contour>
    <contour>
      <point x="358" y="705" type="move" name="_top"/>
    </contour>
    <contour>
      <point x="616" y="567" type="move" name="horn"/>
    </contour>
    <contour>
      <point x="358" y="0" type="move" name="bottom"/>
    </contour>
  </outline>
</glyph>
<glyph name="Odieresis" format="1">
  <advance width="716"/>
  <unicode hex="00D6"/>
  <outline>
    <contour>
      <point x="686" y="570"/>
      <point x="575" y="720"/>
      <point x="358" y="720" type="curve" smooth="yes"/>
      <point x="141" y="720"/>
      <point x="30" y="570"/>
      <point x="30" y="352" type="curve" smooth="yes"/>
      <point x="30" y="135"/>
      <point x="141" y="-15"/>
      <point x="358" y="-15" type="curve" smooth="yes"/>
      <point x="575" y="-15"/>
      <point x="686" y="135"/>
      <point x="686" y="352" type="curve" smooth="yes"/>
    </contour>
    <contour>
      <point x="137" y="527"/>
      <point x="209" y="667"/>
      <point x="358" y="667" type="curve" smooth="yes"/>
      <point x="507" y="667"/>
      <point x="579" y="527"/>
      <point x="579" y="352" type="curve" smooth="yes"/>
      <point x="579" y="178"/>
      <point x="507" y="38"/>
      <point x="358" y="38" type="curve" smooth="yes"/>
      <point x="209" y="38"/>
      <point x="137" y="178"/>
      <point x="137" y="352" type="curve" smooth="yes"/>
    </contour>
    <contour>
      <point x="440" y="860"/>
      <point x="422" y="836"/>
      <point x="422" y="800" type="curve" smooth="yes"/>
      <point x="422" y="764"/>
      <point x="440" y="741"/>
      <point x="476" y="741" type="curve" smooth="yes"/>
      <point x="512" y="741"/>
      <point x="530" y="764"/>
      <point x="530" y="800" type="curve" smooth="yes"/>
      <point x="530" y="839"/>
      <point x="511" y="860"/>
      <point x="476" y="860" type="curve" smooth="yes"/>
    </contour>
    <contour>
      <point x="204" y="860"/>
      <point x="186" y="836"/>
      <point x="186" y="800" type="curve" smooth="yes"/>
      <point x="186" y="764"/>
      <point x="204" y="741"/>
      <point x="240" y="741" type="curve" smooth="yes"/>
      <point x="276" y="741"/>
      <point x="294" y="764"/>
      <point x="294" y="800" type="curve" smooth="yes"/>
      <point x="294" y="839"/>
      <point x="275" y="860"/>
      <point x="240" y="860" type="curve" smooth="yes"/>
    </contour>
    <contour>
      <point x="358" y="705" type="move" name="top"/>
    </contour>
    <contour>
      <point x="358" y="705" type="move" name="_top"/>
    </contour>
    <contour>
      <point x="616" y="567" type="move" name="horn"/>
    </contour>
    <contour>
      <point x="358" y="0" type="move" name="bottom"/>
    </contour>
  </outline>
</glyph>
<glyph name="Oslash" format="1">
  <advance width="762"/>
  <unicode hex="00D8"/>
  <outline>
    <contour>
      <point x="653" y="815" type="line"/>
      <point x="611" y="838" type="line"/>
      <point x="111" y="-113" type="line"/>
      <point x="151" y="-136" type="line"/>
    </contour>
    <contour>
      <point x="686" y="570"/>
      <point x="575" y="720"/>
      <point x="358" y="720" type="curve" smooth="yes"/>
      <point x="141" y="720"/>
      <point x="30" y="570"/>
      <point x="30" y="352" type="curve" smooth="yes"/>
      <point x="30" y="135"/>
      <point x="141" y="-15"/>
      <point x="358" y="-15" type="curve" smooth="yes"/>
      <point x="575" y="-15"/>
      <point x="686" y="135"/>
      <point x="686" y="352" type="curve" smooth="yes"/>
    </contour>
    <contour>
      <point x="137" y="527"/>
      <point x="209" y="667"/>
      <point x="358" y="667" type="curve" smooth="yes"/>
      <point x="507" y="667"/>
      <point x="579" y="527"/>
      <point x="579" y="352" type="curve" smooth="yes"/>
      <point x="579" y="178"/>
      <point x="507" y="38"/>
      <point x="358" y="38" type="curve" smooth="yes"/>
      <point x="209" y="38"/>
      <point x="137" y="178"/>
      <point x="137" y="352" type="curve" smooth="yes"/>
    </contour>
    <contour>
      <point x="616" y="567" type="move" name="horn"/>
    </contour>
    <contour>
      <point x="358" y="0" type="move" name="bottom"/>
    </contour>
    <contour>
      <point x="391" y="705" type="move" name="top"/>
    </contour>
  </outline>
</glyph>
<glyph name="Thorn" format="1">
  <advance width="574"/>
  <unicode hex="00DE"/>
  <outline>
    <contour>
      <point x="291" y="651" type="line"/>
      <point x="287" y="710" type="line"/>
      <point x="287" y="710"/>
      <point x="230" y="705"/>
      <point x="150" y="705" type="curve" smooth="yes"/>
      <point x="130" y="705"/>
      <point x="34" y="710"/>
      <point x="34" y="710" type="curve"/>
      <point x="29" y="656" type="line"/>
      <point x="106" y="644" type="line"/>
      <point x="108" y="631"/>
      <point x="115" y="585"/>
      <point x="115" y="568" type="curve" smooth="yes"/>
      <point x="115" y="137" type="line" smooth="yes"/>
      <point x="115" y="120"/>
      <point x="108" y="74"/>
      <point x="106" y="61" type="curve"/>
      <point x="27" y="45" type="line"/>
      <point x="32" y="-5" type="line"/>
      <point x="32" y="-5"/>
      <point x="130" y="0"/>
      <point x="150" y="0" type="curve" smooth="yes"/>
      <point x="230" y="0"/>
      <point x="296" y="-5"/>
      <point x="296" y="-5" type="curve"/>
      <point x="303" y="54" type="line"/>
      <point x="213" y="61" type="line"/>
      <point x="211" y="73"/>
      <point x="207" y="113"/>
      <point x="206" y="151" type="curve"/>
      <point x="234" y="150"/>
      <point x="266" y="149"/>
      <point x="294" y="149" type="curve" smooth="yes"/>
      <point x="428" y="149"/>
      <point x="540" y="225"/>
      <point x="540" y="360" type="curve" smooth="yes"/>
      <point x="540" y="502"/>
      <point x="455" y="573"/>
      <point x="317" y="573" type="curve" smooth="yes"/>
      <point x="286" y="573"/>
      <point x="245" y="570"/>
      <point x="207" y="567" type="curve"/>
      <point x="208" y="600"/>
      <point x="211" y="633"/>
      <point x="213" y="644" type="curve"/>
    </contour>
    <contour>
      <point x="206" y="517" type="line"/>
      <point x="232" y="520"/>
      <point x="259" y="523"/>
      <point x="275" y="523" type="curve" smooth="yes"/>
      <point x="379" y="523"/>
      <point x="446" y="468"/>
      <point x="446" y="360" type="curve" smooth="yes"/>
      <point x="446" y="252"/>
      <point x="378" y="199"/>
      <point x="274" y="199" type="curve" smooth="yes"/>
      <point x="257" y="199"/>
      <point x="231" y="201"/>
      <point x="206" y="204" type="curve"/>
    </contour>
  </outline>
</glyph>
<glyph name="germandbls" format="1">
  <advance width="624"/>
  <unicode hex="00DF"/>
  <outline>
    <contour>
      <point x="22" y="45" type="line"/>
      <point x="27" y="-5" type="line"/>
      <point x="27" y="-5"/>
      <point x="125" y="0"/>
      <point x="145" y="0" type="curve" smooth="yes"/>
      <point x="197" y="0" type="line"/>
      <point x="194" y="52"/>
      <point x="191" y="117"/>
      <point x="191" y="167" type="curve" smooth="yes"/>
      <point x="191" y="546" type="line" smooth="yes"/>
      <point x="191" y="648"/>
      <point x="207" y="711"/>
      <point x="312" y="711" type="curve" smooth="yes"/>
      <point x="388" y="711"/>
      <point x="448" y="674"/>
      <point x="448" y="609" type="curve" smooth="yes"/>
      <point x="448" y="494"/>
      <point x="285" y="505"/>
      <point x="285" y="370" type="curve" smooth="yes"/>
      <point x="285" y="215"/>
      <point x="515" y="222"/>
      <point x="515" y="117" type="curve" smooth="yes"/>
      <point x="515" y="67"/>
      <point x="486" y="41"/>
      <point x="436" y="41" type="curve" smooth="yes"/>
      <point x="408" y="41"/>
      <point x="382" y="46"/>
      <point x="362" y="64" type="curve"/>
      <point x="356" y="88"/>
      <point x="350" y="114"/>
      <point x="350" y="124" type="curve" smooth="yes"/>
      <point x="350" y="162" type="line"/>
      <point x="292" y="165" type="line"/>
      <point x="281" y="29" type="line"/>
      <point x="281" y="29"/>
      <point x="347" y="-10"/>
      <point x="437" y="-10" type="curve" smooth="yes"/>
      <point x="539" y="-10"/>
      <point x="600" y="30"/>
      <point x="600" y="132" type="curve" smooth="yes"/>
      <point x="600" y="278"/>
      <point x="367" y="290"/>
      <point x="367" y="377" type="curve" smooth="yes"/>
      <point x="367" y="467"/>
      <point x="518" y="465"/>
      <point x="518" y="609" type="curve" smooth="yes"/>
      <point x="518" y="717"/>
      <point x="420" y="770"/>
      <point x="312" y="770" type="curve" smooth="yes"/>
      <point x="187" y="770"/>
      <point x="110" y="702"/>
      <point x="110" y="577" type="curve" smooth="yes"/>
      <point x="110" y="511" type="line"/>
      <point x="87" y="497"/>
      <point x="63" y="493"/>
      <point x="30" y="482" type="curve"/>
      <point x="33" y="440" type="line"/>
      <point x="110" y="440" type="line"/>
      <point x="110" y="137" type="line" smooth="yes"/>
      <point x="110" y="120"/>
      <point x="103" y="74"/>
      <point x="101" y="61" type="curve"/>
    </contour>
  </outline>
</glyph>
<glyph name="aring" format="1">
  <advance width="511"/>
  <unicode hex="00E5"/>
  <outline>
    <contour>
      <point x="362" y="0" type="line"/>
      <point x="442" y="0"/>
      <point x="492" y="0"/>
      <point x="492" y="0" type="curve"/>
      <point x="498" y="54" type="line"/>
      <point x="429" y="61" type="line"/>
      <point x="429" y="61"/>
      <point x="419" y="117"/>
      <point x="419" y="167" type="curve" smooth="yes"/>
      <point x="419" y="291" type="line" smooth="yes"/>
      <point x="419" y="444"/>
      <point x="373" y="503"/>
      <point x="254" y="503" type="curve" smooth="yes"/>
      <point x="194" y="503"/>
      <point x="133" y="495"/>
      <point x="73" y="479" type="curve"/>
      <point x="84" y="343" type="line"/>
      <point x="142" y="346" type="line"/>
      <point x="142" y="387" type="line"/>
      <point x="149" y="429" type="line"/>
      <point x="174" y="441"/>
      <point x="211" y="449"/>
      <point x="244" y="449" type="curve" smooth="yes"/>
      <point x="307" y="449"/>
      <point x="338" y="404"/>
      <point x="338" y="311" type="curve" smooth="yes"/>
      <point x="338" y="278" type="line"/>
      <point x="178" y="251" type="line" smooth="yes"/>
      <point x="88" y="236"/>
      <point x="44" y="190"/>
      <point x="44" y="118" type="curve" smooth="yes"/>
      <point x="44" y="40"/>
      <point x="100" y="-10"/>
      <point x="189" y="-10" type="curve" smooth="yes"/>
      <point x="254" y="-10"/>
      <point x="322" y="28"/>
      <point x="348" y="79" type="curve"/>
    </contour>
    <contour>
      <point x="338" y="227" type="line"/>
      <point x="338" y="167" type="line"/>
      <point x="328" y="102"/>
      <point x="272" y="54"/>
      <point x="205" y="54" type="curve" smooth="yes"/>
      <point x="158" y="54"/>
      <point x="132" y="83"/>
      <point x="132" y="133" type="curve" smooth="yes"/>
      <point x="132" y="168"/>
      <point x="155" y="193"/>
      <point x="195" y="200" type="curve" smooth="yes"/>
    </contour>
    <contour>
      <point x="187" y="715"/>
      <point x="157" y="681"/>
      <point x="157" y="629" type="curve" smooth="yes"/>
      <point x="157" y="578"/>
      <point x="187" y="544"/>
      <point x="247" y="544" type="curve" smooth="yes"/>
      <point x="307" y="544"/>
      <point x="336" y="578"/>
      <point x="336" y="629" type="curve" smooth="yes"/>
      <point x="336" y="681"/>
      <point x="307" y="715"/>
      <point x="247" y="715" type="curve" smooth="yes"/>
    </contour>
    <contour>
      <point x="278" y="677"/>
      <point x="289" y="655"/>
      <point x="289" y="629" type="curve" smooth="yes"/>
      <point x="289" y="604"/>
      <point x="278" y="582"/>
      <point x="247" y="582" type="curve" smooth="yes"/>
      <point x="218" y="582"/>
      <point x="206" y="604"/>
      <point x="206" y="629" type="curve" smooth="yes"/>
      <point x="206" y="655"/>
      <point x="218" y="677"/>
      <point x="247" y="677" type="curve" smooth="yes"/>
    </contour>
    <contour>
      <point x="491" y="0" type="move" name="ogonek"/>
    </contour>
    <contour>
      <point x="247" y="494" type="move" name="top"/>
    </contour>
    <contour>
      <point x="247" y="494" type="move" name="_top"/>
    </contour>
    <contour>
      <point x="249" y="0" type="move" name="bottom"/>
    </contour>
  </outline>
</glyph>
<glyph name="egrave" format="1">
  <advance width="503"/>
  <unicode hex="00E8"/>
  <outline>
    <contour>
      <point x="120" y="503"/>
      <point x="49" y="395"/>
      <point x="49" y="245" type="curve" smooth="yes"/>
      <point x="49" y="94"/>
      <point x="128" y="-10"/>
      <point x="279" y="-10" type="curve" smooth="yes"/>
      <point x="392" y="-10"/>
      <point x="456" y="50"/>
      <point x="456" y="50" type="curve"/>
      <point x="428" y="96" type="line"/>
      <point x="428" y="96"/>
      <point x="364" y="55"/>
      <point x="279" y="55" type="curve" smooth="yes"/>
      <point x="185" y="55"/>
      <point x="143" y="156"/>
      <point x="143" y="250" type="curve" smooth="yes"/>
      <point x="143" y="344"/>
      <point x="169" y="451"/>
      <point x="263" y="451" type="curve" smooth="yes"/>
      <point x="334" y="451"/>
      <point x="367" y="395"/>
      <point x="367" y="324" type="curve" smooth="yes"/>
      <point x="367" y="319"/>
      <point x="366" y="304"/>
      <point x="366" y="304" type="curve"/>
      <point x="124" y="286" type="line"/>
      <point x="124" y="237" type="line"/>
      <point x="442" y="237" type="line"/>
      <point x="459" y="270" type="line"/>
      <point x="459" y="410"/>
      <point x="407" y="503"/>
      <point x="267" y="503" type="curve" smooth="yes"/>
    </contour>
    <contour>
      <point x="336" y="564" type="line"/>
      <point x="365" y="600" type="line"/>
      <point x="185" y="750" type="line"/>
      <point x="142" y="695" type="line"/>
    </contour>
    <contour>
      <point x="412" y="21" type="move" name="ogonek"/>
    </contour>
    <contour>
      <point x="270" y="494" type="move" name="top"/>
    </contour>
    <contour>
      <point x="270" y="494" type="move" name="_top"/>
    </contour>
    <contour>
      <point x="277" y="0" type="move" name="bottom"/>
    </contour>
  </outline>
</glyph>
<glyph name="ecircumflex" format="1">
  <advance width="503"/>
  <unicode hex="00EA"/>
  <outline>
    <contour>
      <point x="120" y="503"/>
      <point x="49" y="395"/>
      <point x="49" y="245" type="curve" smooth="yes"/>
      <point x="49" y="94"/>
      <point x="128" y="-10"/>
      <point x="279" y="-10" type="curve" smooth="yes"/>
      <point x="392" y="-10"/>
      <point x="456" y="50"/>
      <point x="456" y="50" type="curve"/>
      <point x="428" y="96" type="line"/>
      <point x="428" y="96"/>
      <point x="364" y="55"/>
      <point x="279" y="55" type="curve" smooth="yes"/>
      <point x="185" y="55"/>
      <point x="143" y="156"/>
      <point x="143" y="250" type="curve" smooth="yes"/>
      <point x="143" y="344"/>
      <point x="169" y="451"/>
      <point x="263" y="451" type="curve" smooth="yes"/>
      <point x="334" y="451"/>
      <point x="367" y="395"/>
      <point x="367" y="324" type="curve" smooth="yes"/>
      <point x="367" y="319"/>
      <point x="366" y="304"/>
      <point x="366" y="304" type="curve"/>
      <point x="124" y="286" type="line"/>
      <point x="124" y="237" type="line"/>
      <point x="442" y="237" type="line"/>
      <point x="459" y="270" type="line"/>
      <point x="459" y="410"/>
      <point x="407" y="503"/>
      <point x="267" y="503" type="curve" smooth="yes"/>
    </contour>
    <contour>
      <point x="236" y="727" type="line"/>
      <point x="105" y="596" type="line"/>
      <point x="138" y="564" type="line"/>
      <point x="310" y="693" type="line"/>
      <point x="277" y="727" type="line"/>
    </contour>
    <contour>
      <point x="404" y="564" type="line"/>
      <point x="437" y="596" type="line"/>
      <point x="306" y="727" type="line"/>
      <point x="255" y="727" type="line"/>
      <point x="232" y="693" type="line"/>
    </contour>
    <contour>
      <point x="412" y="21" type="move" name="ogonek"/>
    </contour>
    <contour>
      <point x="270" y="494" type="move" name="top"/>
    </contour>
    <contour>
      <point x="270" y="494" type="move" name="_top"/>
    </contour>
    <contour>
      <point x="277" y="0" type="move" name="bottom"/>
    </contour>
  </outline>
</glyph>
<glyph name="edieresis" format="1">
  <advance width="503"/>
  <unicode hex="00EB"/>
  <outline>
    <contour>
      <point x="120" y="503"/>
      <point x="49" y="395"/>
      <point x="49" y="245" type="curve" smooth="yes"/>
      <point x="49" y="94"/>
      <point x="128" y="-10"/>
      <point x="279" y="-10" type="curve" smooth="yes"/>
      <point x="392" y="-10"/>
      <point x="456" y="50"/>
      <point x="456" y="50" type="curve"/>
      <point x="428" y="96" type="line"/>
      <point x="428" y="96"/>
      <point x="364" y="55"/>
      <point x="279" y="55" type="curve" smooth="yes"/>
      <point x="185" y="55"/>
      <point x="143" y="156"/>
      <point x="143" y="250" type="curve" smooth="yes"/>
      <point x="143" y="344"/>
      <point x="169" y="451"/>
      <point x="263" y="451" type="curve" smooth="yes"/>
      <point x="334" y="451"/>
      <point x="367" y="395"/>
      <point x="367" y="324" type="curve" smooth="yes"/>
      <point x="367" y="319"/>
      <point x="366" y="304"/>
      <point x="366" y="304" type="curve"/>
      <point x="124" y="286" type="line"/>
      <point x="124" y="237" type="line"/>
      <point x="442" y="237" type="line"/>
      <point x="459" y="270" type="line"/>
      <point x="459" y="410"/>
      <point x="407" y="503"/>
      <point x="267" y="503" type="curve" smooth="yes"/>
    </contour>
    <contour>
      <point x="352" y="703"/>
      <point x="334" y="679"/>
      <point x="334" y="643" type="curve" smooth="yes"/>
      <point x="334" y="607"/>
      <point x="352" y="584"/>
      <point x="388" y="584" type="curve" smooth="yes"/>
      <point x="424" y="584"/>
      <point x="442" y="607"/>
      <point x="442" y="643" type="curve" smooth="yes"/>
      <point x="442" y="682"/>
      <point x="423" y="703"/>
      <point x="388" y="703" type="curve" smooth="yes"/>
    </contour>
    <contour>
      <point x="116" y="703"/>
      <point x="98" y="679"/>
      <point x="98" y="643" type="curve" smooth="yes"/>
      <point x="98" y="607"/>
      <point x="116" y="584"/>
      <point x="152" y="584" type="curve" smooth="yes"/>
      <point x="188" y="584"/>
      <point x="206" y="607"/>
      <point x="206" y="643" type="curve" smooth="yes"/>
      <point x="206" y="682"/>
      <point x="187" y="703"/>
      <point x="152" y="703" type="curve" smooth="yes"/>
    </contour>
    <contour>
      <point x="412" y="21" type="move" name="ogonek"/>
    </contour>
    <contour>
      <point x="270" y="494" type="move" name="top"/>
    </contour>
    <contour>
      <point x="270" y="494" type="move" name="_top"/>
    </contour>
    <contour>
      <point x="277" y="0" type="move" name="bottom"/>
    </contour>
  </outline>
</glyph>
<glyph name="igrave" format="1">
  <advance width="290"/>
  <unicode hex="00EC"/>
  <outline>
    <contour>
      <point x="277" y="54" type="line"/>
      <point x="199" y="61" type="line"/>
      <point x="199" y="61"/>
      <point x="192" y="117"/>
      <point x="192" y="167" type="curve" smooth="yes"/>
      <point x="192" y="323" type="line" smooth="yes"/>
      <point x="192" y="373"/>
      <point x="199" y="476"/>
      <point x="199" y="476" type="curve"/>
      <point x="180" y="494" type="line"/>
      <point x="122" y="494" type="line" smooth="yes"/>
      <point x="102" y="494"/>
      <point x="30" y="498"/>
      <point x="30" y="498" type="curve"/>
      <point x="25" y="445" type="line"/>
      <point x="101" y="429" type="line"/>
      <point x="101" y="429"/>
      <point x="111" y="373"/>
      <point x="111" y="353" type="curve" smooth="yes"/>
      <point x="111" y="137" type="line" smooth="yes"/>
      <point x="111" y="117"/>
      <point x="101" y="61"/>
      <point x="101" y="61" type="curve"/>
      <point x="25" y="45" type="line"/>
      <point x="30" y="-5" type="line"/>
      <point x="30" y="-5"/>
      <point x="121" y="0"/>
      <point x="141" y="0" type="curve" smooth="yes"/>
      <point x="221" y="0"/>
      <point x="271" y="0"/>
      <point x="271" y="0" type="curve"/>
    </contour>
    <contour>
      <point x="185" y="564" type="line"/>
      <point x="214" y="600" type="line"/>
      <point x="34" y="750" type="line"/>
      <point x="-9" y="695" type="line"/>
    </contour>
    <contour>
      <point x="271" y="0" type="move" name="ogonek"/>
    </contour>
    <contour>
      <point x="119" y="494" type="move" name="top"/>
    </contour>
    <contour>
      <point x="119" y="494" type="move" name="_top"/>
    </contour>
  </outline>
</glyph>
<glyph name="eth" format="1">
  <advance width="563"/>
  <unicode hex="00F0"/>
  <outline>
    <contour>
      <point x="472" y="697" type="line"/>
      <point x="450" y="734" type="line"/>
      <point x="335" y="674" type="line"/>
      <point x="295" y="712"/>
      <point x="247" y="743"/>
      <point x="191" y="765" type="curve"/>
      <point x="172" y="724" type="line"/>
      <point x="215" y="702"/>
      <point x="251" y="676"/>
      <point x="281" y="646" type="curve"/>
      <point x="163" y="585" type="line"/>
      <point x="185" y="550" type="line"/>
      <point x="309" y="614" type="line"/>
      <point x="390" y="511"/>
      <point x="411" y="376"/>
      <point x="411" y="251" type="curve" smooth="yes"/>
      <point x="411" y="145"/>
      <point x="377" y="47"/>
      <point x="274" y="47" type="curve" smooth="yes"/>
      <point x="176" y="47"/>
      <point x="140" y="138"/>
      <point x="140" y="236" type="curve" smooth="yes"/>
      <point x="140" y="334"/>
      <point x="178" y="426"/>
      <point x="271" y="426" type="curve" smooth="yes"/>
      <point x="287" y="426"/>
      <point x="311" y="424"/>
      <point x="324" y="422" type="curve"/>
      <point x="332" y="467" type="line"/>
      <point x="314" y="474"/>
      <point x="291" y="483"/>
      <point x="262" y="483" type="curve" smooth="yes"/>
      <point x="132" y="483"/>
      <point x="45" y="380"/>
      <point x="45" y="236" type="curve" smooth="yes"/>
      <point x="45" y="92"/>
      <point x="130" y="-10"/>
      <point x="274" y="-10" type="curve" smooth="yes"/>
      <point x="426" y="-10"/>
      <point x="505" y="96"/>
      <point x="505" y="252" type="curve" smooth="yes"/>
      <point x="505" y="396"/>
      <point x="460" y="539"/>
      <point x="366" y="643" type="curve"/>
    </contour>
  </outline>
</glyph>
<glyph name="ntilde" format="1">
  <advance width="598"/>
  <unicode hex="00F1"/>
  <outline>
    <contour>
      <point x="259" y="503"/>
      <point x="207" y="458"/>
      <point x="183" y="412" type="curve"/>
      <point x="192" y="274" type="line"/>
      <point x="193" y="372"/>
      <point x="241" y="442"/>
      <point x="320" y="442" type="curve" smooth="yes"/>
      <point x="404" y="442"/>
      <point x="423" y="360"/>
      <point x="423" y="276" type="curve" smooth="yes"/>
      <point x="423" y="137" type="line"/>
      <point x="423" y="112"/>
      <point x="418" y="83"/>
      <point x="413" y="61" type="curve"/>
      <point x="346" y="45" type="line"/>
      <point x="351" y="-5" type="line"/>
      <point x="351" y="-5"/>
      <point x="433" y="0"/>
      <point x="453" y="0" type="curve" smooth="yes"/>
      <point x="533" y="0"/>
      <point x="582" y="0"/>
      <point x="582" y="0" type="curve"/>
      <point x="589" y="54" type="line"/>
      <point x="511" y="61" type="line"/>
      <point x="511" y="61"/>
      <point x="504" y="117"/>
      <point x="504" y="167" type="curve" smooth="yes"/>
      <point x="504" y="276" type="line" smooth="yes"/>
      <point x="504" y="414"/>
      <point x="473" y="503"/>
      <point x="335" y="503" type="curve" smooth="yes"/>
    </contour>
    <contour>
      <point x="25" y="445" type="line"/>
      <point x="101" y="429" type="line"/>
      <point x="101" y="429"/>
      <point x="111" y="373"/>
      <point x="111" y="353" type="curve" smooth="yes"/>
      <point x="111" y="132" type="line"/>
      <point x="109" y="109"/>
      <point x="101" y="61"/>
      <point x="101" y="61" type="curve"/>
      <point x="25" y="45" type="line"/>
      <point x="30" y="-5" type="line"/>
      <point x="30" y="-5"/>
      <point x="121" y="0"/>
      <point x="141" y="0" type="curve" smooth="yes"/>
      <point x="221" y="0"/>
      <point x="271" y="0"/>
      <point x="271" y="0" type="curve"/>
      <point x="277" y="54" type="line"/>
      <point x="199" y="61" type="line"/>
      <point x="199" y="61"/>
      <point x="192" y="117"/>
      <point x="192" y="167" type="curve" smooth="yes"/>
      <point x="192" y="323" type="line"/>
      <point x="177" y="476" type="line"/>
      <point x="158" y="494" type="line"/>
      <point x="122" y="494" type="line" smooth="yes"/>
      <point x="102" y="494"/>
      <point x="30" y="498"/>
      <point x="30" y="498" type="curve"/>
    </contour>
    <contour>
      <point x="451" y="714" type="line"/>
      <point x="451" y="714"/>
      <point x="425" y="664"/>
      <point x="398" y="664" type="curve" smooth="yes"/>
      <point x="358" y="664"/>
      <point x="283" y="705"/>
      <point x="243" y="705" type="curve" smooth="yes"/>
      <point x="203" y="705"/>
      <point x="161" y="603"/>
      <point x="161" y="603" type="curve"/>
      <point x="197" y="582" type="line"/>
      <point x="197" y="582"/>
      <point x="223" y="635"/>
      <point x="250" y="635" type="curve" smooth="yes"/>
      <point x="290" y="635"/>
      <point x="364" y="594"/>
      <point x="404" y="594" type="curve" smooth="yes"/>
      <point x="444" y="594"/>
      <point x="487" y="693"/>
      <point x="487" y="693" type="curve"/>
    </contour>
    <contour>
      <point x="324" y="494" type="move" name="top"/>
    </contour>
    <contour>
      <point x="294" y="0" type="move" name="bottom"/>
    </contour>
    <contour>
      <point x="324" y="494" type="move" name="_top"/>
    </contour>
  </outline>
</glyph>
<glyph name="oacute" format="1">
  <advance width="558"/>
  <unicode hex="00F3"/>
  <outline>
    <contour>
      <point x="509" y="401"/>
      <point x="433" y="503"/>
      <point x="279" y="503" type="curve" smooth="yes"/>
      <point x="127" y="503"/>
      <point x="49" y="399"/>
      <point x="49" y="246" type="curve"/>
      <point x="49" y="94"/>
      <point x="127" y="-10"/>
      <point x="279" y="-10" type="curve"/>
      <point x="431" y="-10"/>
      <point x="509" y="94"/>
      <point x="509" y="246" type="curve"/>
    </contour>
    <contour>
      <point x="415" y="143"/>
      <point x="382" y="47"/>
      <point x="279" y="47" type="curve"/>
      <point x="176" y="47"/>
      <point x="143" y="143"/>
      <point x="143" y="246" type="curve"/>
      <point x="143" y="349"/>
      <point x="176" y="446"/>
      <point x="279" y="446" type="curve" smooth="yes"/>
      <point x="382" y="446"/>
      <point x="415" y="349"/>
      <point x="415" y="246" type="curve"/>
    </contour>
    <contour>
      <point x="362" y="750" type="line"/>
      <point x="182" y="600" type="line"/>
      <point x="211" y="564" type="line"/>
      <point x="405" y="695" type="line"/>
    </contour>
    <contour>
      <point x="277" y="494" type="move" name="top"/>
    </contour>
    <contour>
      <point x="277" y="494" type="move" name="_top"/>
    </contour>
    <contour>
      <point x="449" y="358" type="move" name="horn"/>
    </contour>
    <contour>
      <point x="277" y="0" type="move" name="bottom"/>
    </contour>
  </outline>
</glyph>
<glyph name="odieresis" format="1">
  <advance width="558"/>
  <unicode hex="00F6"/>
  <outline>
    <contour>
      <point x="509" y="401"/>
      <point x="433" y="503"/>
      <point x="279" y="503" type="curve" smooth="yes"/>
      <point x="127" y="503"/>
      <point x="49" y="399"/>
      <point x="49" y="246" type="curve"/>
      <point x="49" y="94"/>
      <point x="127" y="-10"/>
      <point x="279" y="-10" type="curve"/>
      <point x="431" y="-10"/>
      <point x="509" y="94"/>
      <point x="509" y="246" type="curve"/>
    </contour>
    <contour>
      <point x="415" y="143"/>
      <point x="382" y="47"/>
      <point x="279" y="47" type="curve"/>
      <point x="176" y="47"/>
      <point x="143" y="143"/>
      <point x="143" y="246" type="curve"/>
      <point x="143" y="349"/>
      <point x="176" y="446"/>
      <point x="279" y="446" type="curve" smooth="yes"/>
      <point x="382" y="446"/>
      <point x="415" y="349"/>
      <point x="415" y="246" type="curve"/>
    </contour>
    <contour>
      <point x="359" y="703"/>
      <point x="341" y="679"/>
      <point x="341" y="643" type="curve" smooth="yes"/>
      <point x="341" y="607"/>
      <point x="359" y="584"/>
      <point x="395" y="584" type="curve" smooth="yes"/>
      <point x="431" y="584"/>
      <point x="449" y="607"/>
      <point x="449" y="643" type="curve" smooth="yes"/>
      <point x="449" y="682"/>
      <point x="430" y="703"/>
      <point x="395" y="703" type="curve" smooth="yes"/>
    </contour>
    <contour>
      <point x="123" y="703"/>
      <point x="105" y="679"/>
      <point x="105" y="643" type="curve" smooth="yes"/>
      <point x="105" y="607"/>
      <point x="123" y="584"/>
      <point x="159" y="584" type="curve" smooth="yes"/>
      <point x="195" y="584"/>
      <point x="213" y="607"/>
      <point x="213" y="643" type="curve" smooth="yes"/>
      <point x="213" y="682"/>
      <point x="194" y="703"/>
      <point x="159" y="703" type="curve" smooth="yes"/>
    </contour>
    <contour>
      <point x="277" y="494" type="move" name="top"/>
    </contour>
    <contour>
      <point x="277" y="494" type="move" name="_top"/>
    </contour>
    <contour>
      <point x="449" y="358" type="move" name="horn"/>
    </contour>
    <contour>
      <point x="277" y="0" type="move" name="bottom"/>
    </contour>
  </outline>
</glyph>
<glyph name="divide" format="1">
  <advance width="560"/>
  <unicode hex="00F7"/>
  <outline>
    <contour>
      <point x="507" y="284" type="line"/>
      <point x="507" y="213" type="line"/>
      <point x="52" y="213" type="line"/>
      <point x="52" y="279" type="line"/>
    </contour>
    <component base="colon" xOffset="188" yOffset="16"/>
  </outline>
</glyph>
<glyph name="oslash" format="1">
  <advance width="560"/>
  <unicode hex="00F8"/>
  <outline>
    <contour>
      <point x="131" y="-99" type="line"/>
      <point x="489" y="578" type="line"/>
      <point x="449" y="598" type="line"/>
      <point x="92" y="-79" type="line"/>
    </contour>
    <component base="o"/>
    <contour>
      <point x="279" y="494" type="move" name="top"/>
    </contour>
  </outline>
</glyph>
<glyph name="uacute" format="1">
  <advance width="574"/>
  <unicode hex="00FA"/>
  <outline>
    <contour>
      <point x="315" y="445" type="line"/>
      <point x="386" y="429" type="line"/>
      <point x="386" y="429"/>
      <point x="396" y="373"/>
      <point x="396" y="353" type="curve" smooth="yes"/>
      <point x="396" y="210" type="line" smooth="yes"/>
      <point x="396" y="130"/>
      <point x="352" y="54"/>
      <point x="270" y="54" type="curve" smooth="yes"/>
      <point x="196" y="54"/>
      <point x="171" y="109"/>
      <point x="171" y="183" type="curve" smooth="yes"/>
      <point x="171" y="323" type="line" smooth="yes"/>
      <point x="171" y="373"/>
      <point x="178" y="476"/>
      <point x="178" y="476" type="curve"/>
      <point x="159" y="494" type="line"/>
      <point x="101" y="494" type="line" smooth="yes"/>
      <point x="81" y="494"/>
      <point x="19" y="498"/>
      <point x="19" y="498" type="curve"/>
      <point x="14" y="445" type="line"/>
      <point x="80" y="429" type="line"/>
      <point x="80" y="429"/>
      <point x="90" y="373"/>
      <point x="90" y="353" type="curve" smooth="yes"/>
      <point x="90" y="217" type="line" smooth="yes"/>
      <point x="90" y="82"/>
      <point x="114" y="-10"/>
      <point x="252" y="-10" type="curve" smooth="yes"/>
      <point x="345" y="-10"/>
      <point x="388" y="45"/>
      <point x="407" y="78" type="curve"/>
      <point x="420" y="0" type="line"/>
      <point x="500" y="0"/>
      <point x="550" y="0"/>
      <point x="550" y="0" type="curve"/>
      <point x="556" y="54" type="line"/>
      <point x="487" y="61" type="line"/>
      <point x="487" y="61"/>
      <point x="477" y="117"/>
      <point x="477" y="167" type="curve" smooth="yes"/>
      <point x="477" y="323" type="line" smooth="yes"/>
      <point x="477" y="373"/>
      <point x="484" y="476"/>
      <point x="484" y="476" type="curve"/>
      <point x="465" y="494" type="line"/>
      <point x="407" y="494" type="line" smooth="yes"/>
      <point x="387" y="494"/>
      <point x="320" y="498"/>
      <point x="320" y="498" type="curve"/>
    </contour>
    <contour>
      <point x="350" y="750" type="line"/>
      <point x="170" y="600" type="line"/>
      <point x="199" y="564" type="line"/>
      <point x="393" y="695" type="line"/>
    </contour>
    <contour>
      <point x="550" y="0" type="move" name="ogonek"/>
    </contour>
    <contour>
      <point x="265" y="494" type="move" name="top"/>
    </contour>
    <contour>
      <point x="265" y="494" type="move" name="_top"/>
    </contour>
    <contour>
      <point x="463" y="358" type="move" name="horn"/>
    </contour>
    <contour>
      <point x="291" y="0" type="move" name="bottom"/>
    </contour>
  </outline>
</glyph>
<glyph name="udieresis" format="1">
  <advance width="574"/>
  <unicode hex="00FC"/>
  <outline>
    <contour>
      <point x="315" y="445" type="line"/>
      <point x="386" y="429" type="line"/>
      <point x="386" y="429"/>
      <point x="396" y="373"/>
      <point x="396" y="353" type="curve" smooth="yes"/>
      <point x="396" y="210" type="line" smooth="yes"/>
      <point x="396" y="130"/>
      <point x="352" y="54"/>
      <point x="270" y="54" type="curve" smooth="yes"/>
      <point x="196" y="54"/>
      <point x="171" y="109"/>
      <point x="171" y="183" type="curve" smooth="yes"/>
      <point x="171" y="323" type="line" smooth="yes"/>
      <point x="171" y="373"/>
      <point x="178" y="476"/>
      <point x="178" y="476" type="curve"/>
      <point x="159" y="494" type="line"/>
      <point x="101" y="494" type="line" smooth="yes"/>
      <point x="81" y="494"/>
      <point x="19" y="498"/>
      <point x="19" y="498" type="curve"/>
      <point x="14" y="445" type="line"/>
      <point x="80" y="429" type="line"/>
      <point x="80" y="429"/>
      <point x="90" y="373"/>
      <point x="90" y="353" type="curve" smooth="yes"/>
      <point x="90" y="217" type="line" smooth="yes"/>
      <point x="90" y="82"/>
      <point x="114" y="-10"/>
      <point x="252" y="-10" type="curve" smooth="yes"/>
      <point x="345" y="-10"/>
      <point x="388" y="45"/>
      <point x="407" y="78" type="curve"/>
      <point x="420" y="0" type="line"/>
      <point x="500" y="0"/>
      <point x="550" y="0"/>
      <point x="550" y="0" type="curve"/>
      <point x="556" y="54" type="line"/>
      <point x="487" y="61" type="line"/>
      <point x="487" y="61"/>
      <point x="477" y="117"/>
      <point x="477" y="167" type="curve" smooth="yes"/>
      <point x="477" y="323" type="line" smooth="yes"/>
      <point x="477" y="373"/>
      <point x="484" y="476"/>
      <point x="484" y="476" type="curve"/>
      <point x="465" y="494" type="line"/>
      <point x="407" y="494" type="line" smooth="yes"/>
      <point x="387" y="494"/>
      <point x="320" y="498"/>
      <point x="320" y="498" type="curve"/>
    </contour>
    <contour>
      <point x="347" y="703"/>
      <point x="329" y="679"/>
      <point x="329" y="643" type="curve" smooth="yes"/>
      <point x="329" y="607"/>
      <point x="347" y="584"/>
      <point x="383" y="584" type="curve" smooth="yes"/>
      <point x="419" y="584"/>
      <point x="437" y="607"/>
      <point x="437" y="643" type="curve" smooth="yes"/>
      <point x="437" y="682"/>
      <point x="418" y="703"/>
      <point x="383" y="703" type="curve" smooth="yes"/>
    </contour>
    <contour>
      <point x="111" y="703"/>
      <point x="93" y="679"/>
      <point x="93" y="643" type="curve" smooth="yes"/>
      <point x="93" y="607"/>
      <point x="111" y="584"/>
      <point x="147" y="584" type="curve" smooth="yes"/>
      <point x="183" y="584"/>
      <point x="201" y="607"/>
      <point x="201" y="643" type="curve" smooth="yes"/>
      <point x="201" y="682"/>
      <point x="182" y="703"/>
      <point x="147" y="703" type="curve" smooth="yes"/>
    </contour>
    <contour>
      <point x="550" y="0" type="move" name="ogonek"/>
    </contour>
    <contour>
      <point x="265" y="494" type="move" name="top"/>
    </contour>
    <contour>
      <point x="265" y="494" type="move" name="_top"/>
    </contour>
    <contour>
      <point x="463" y="358" type="move" name="horn"/>
    </contour>
    <contour>
      <point x="291" y="0" type="move" name="bottom"/>
    </contour>
  </outline>
</glyph>
<glyph name="thorn" format="1">
  <advance width="549"/>
  <unicode hex="00FE"/>
  <outline>
    <contour>
      <point x="-3" y="707" type="line"/>
      <point x="73" y="691" type="line"/>
      <point x="73" y="691"/>
      <point x="83" y="635"/>
      <point x="83" y="615" type="curve" smooth="yes"/>
      <point x="83" y="-96" type="line" smooth="yes"/>
      <point x="83" y="-119"/>
      <point x="73" y="-167"/>
      <point x="73" y="-167" type="curve"/>
      <point x="7" y="-183" type="line"/>
      <point x="12" y="-233" type="line"/>
      <point x="12" y="-233"/>
      <point x="84" y="-228"/>
      <point x="114" y="-228" type="curve" smooth="yes"/>
      <point x="194" y="-228"/>
      <point x="262" y="-228"/>
      <point x="262" y="-228" type="curve"/>
      <point x="269" y="-174" type="line"/>
      <point x="171" y="-167" type="line"/>
      <point x="171" y="-167"/>
      <point x="164" y="-111"/>
      <point x="164" y="-61" type="curve" smooth="yes"/>
      <point x="164" y="15" type="line"/>
      <point x="200" y="-1"/>
      <point x="237" y="-10"/>
      <point x="271" y="-10" type="curve" smooth="yes"/>
      <point x="404" y="-10"/>
      <point x="501" y="102"/>
      <point x="501" y="256" type="curve" smooth="yes"/>
      <point x="501" y="413"/>
      <point x="426" y="503"/>
      <point x="296" y="503" type="curve" smooth="yes"/>
      <point x="242" y="503"/>
      <point x="181" y="461"/>
      <point x="164" y="427" type="curve"/>
      <point x="164" y="598" type="line"/>
      <point x="171" y="738" type="line"/>
      <point x="152" y="756" type="line"/>
      <point x="94" y="756" type="line" smooth="yes"/>
      <point x="74" y="756"/>
      <point x="2" y="760"/>
      <point x="2" y="760" type="curve"/>
    </contour>
    <contour>
      <point x="369" y="442"/>
      <point x="411" y="378"/>
      <point x="411" y="254" type="curve" smooth="yes"/>
      <point x="411" y="122"/>
      <point x="359" y="50"/>
      <point x="265" y="50" type="curve" smooth="yes"/>
      <point x="234" y="50"/>
      <point x="199" y="62"/>
      <point x="164" y="86" type="curve"/>
      <point x="164" y="274" type="line" smooth="yes"/>
      <point x="164" y="369"/>
      <point x="213" y="442"/>
      <point x="288" y="442" type="curve" smooth="yes"/>
    </contour>
  </outline>
</glyph>
<glyph name="Abreve" format="1">
  <advance width="660"/>
  <unicode hex="0102"/>
  <outline>
    <contour>
      <point x="448" y="172" type="line" smooth="yes"/>
      <point x="460" y="137"/>
      <point x="467" y="100"/>
      <point x="475" y="64" type="curve"/>
      <point x="402" y="44" type="line"/>
      <point x="406" y="-5" type="line"/>
      <point x="406" y="-5"/>
      <point x="518" y="0"/>
      <point x="549" y="0" type="curve"/>
      <point x="650" y="0" type="line"/>
      <point x="655" y="54" type="line"/>
      <point x="593" y="64" type="line"/>
      <point x="580" y="91"/>
      <point x="564" y="120"/>
      <point x="554" y="149" type="curve" smooth="yes"/>
      <point x="348" y="715" type="line"/>
      <point x="290" y="705" type="line"/>
      <point x="111" y="160" type="line" smooth="yes"/>
      <point x="100" y="126"/>
      <point x="82" y="89"/>
      <point x="68" y="61" type="curve"/>
      <point x="5" y="44" type="line"/>
      <point x="9" y="-5" type="line"/>
      <point x="9" y="-5"/>
      <point x="119" y="0"/>
      <point x="144" y="0" type="curve"/>
      <point x="230" y="0" type="line"/>
      <point x="235" y="54" type="line"/>
      <point x="165" y="64" type="line"/>
      <point x="167" y="85"/>
      <point x="169" y="107"/>
      <point x="175" y="127" type="curve" smooth="yes"/>
      <point x="313" y="557" type="line"/>
    </contour>
    <contour>
      <point x="412" y="285" type="line"/>
      <point x="220" y="285" type="line"/>
      <point x="202" y="232" type="line"/>
      <point x="432" y="232" type="line"/>
    </contour>
    <contour>
      <point x="405" y="881" type="line"/>
      <point x="405" y="831"/>
      <point x="372" y="797"/>
      <point x="322" y="797" type="curve"/>
      <point x="272" y="797"/>
      <point x="239" y="831"/>
      <point x="239" y="881" type="curve"/>
      <point x="183" y="881" type="line"/>
      <point x="183" y="791"/>
      <point x="232" y="741"/>
      <point x="322" y="741" type="curve" smooth="yes"/>
      <point x="412" y="741"/>
      <point x="461" y="791"/>
      <point x="461" y="881" type="curve"/>
    </contour>
    <contour>
      <point x="650" y="0" type="move" name="ogonek"/>
    </contour>
    <contour>
      <point x="322" y="705" type="move" name="top"/>
    </contour>
    <contour>
      <point x="322" y="705" type="move" name="_top"/>
    </contour>
    <contour>
      <point x="318" y="0" type="move" name="bottom"/>
    </contour>
  </outline>
</glyph>
<glyph name="ccircumflex" format="1">
  <advance width="477"/>
  <unicode hex="0109"/>
  <outline>
    <contour>
      <point x="126" y="503"/>
      <point x="49" y="399"/>
      <point x="49" y="246" type="curve" smooth="yes"/>
      <point x="49" y="93"/>
      <point x="125" y="-10"/>
      <point x="278" y="-10" type="curve" smooth="yes"/>
      <point x="382" y="-10"/>
      <point x="447" y="44"/>
      <point x="447" y="44" type="curve"/>
      <point x="419" y="91" type="line"/>
      <point x="419" y="91"/>
      <point x="357" y="55"/>
      <point x="279" y="55" type="curve" smooth="yes"/>
      <point x="179" y="55"/>
      <point x="143" y="146"/>
      <point x="143" y="246" type="curve" smooth="yes"/>
      <point x="143" y="346"/>
      <point x="179" y="446"/>
      <point x="279" y="446" type="curve" smooth="yes"/>
      <point x="308" y="446"/>
      <point x="332" y="440"/>
      <point x="361" y="416" type="curve"/>
      <point x="365" y="402"/>
      <point x="368" y="389"/>
      <point x="368" y="382" type="curve" smooth="yes"/>
      <point x="368" y="346" type="line"/>
      <point x="426" y="343" type="line"/>
      <point x="436" y="468" type="line"/>
      <point x="376" y="488"/>
      <point x="338" y="503"/>
      <point x="279" y="503" type="curve" smooth="yes"/>
    </contour>
    <contour>
      <point x="248" y="727" type="line"/>
      <point x="117" y="596" type="line"/>
      <point x="150" y="564" type="line"/>
      <point x="322" y="693" type="line"/>
      <point x="289" y="727" type="line"/>
    </contour>
    <contour>
      <point x="416" y="564" type="line"/>
      <point x="449" y="596" type="line"/>
      <point x="318" y="727" type="line"/>
      <point x="267" y="727" type="line"/>
      <point x="244" y="693" type="line"/>
    </contour>
    <contour>
      <point x="282" y="494" type="move" name="top"/>
    </contour>
    <contour>
      <point x="266" y="0" type="move" name="bottom"/>
    </contour>
    <contour>
      <point x="282" y="494" type="move" name="_top"/>
    </contour>
  </outline>
</glyph>
<glyph name="Ccaron" format="1">
  <advance width="610"/>
  <unicode hex="010C"/>
  <outline>
    <contour>
      <point x="557" y="170" type="line"/>
      <point x="498" y="168" type="line"/>
      <point x="498" y="168"/>
      <point x="498" y="131"/>
      <point x="496" y="121" type="curve"/>
      <point x="496" y="111"/>
      <point x="489" y="88"/>
      <point x="482" y="65" type="curve"/>
      <point x="440" y="52"/>
      <point x="387" y="43"/>
      <point x="346" y="43" type="curve" smooth="yes"/>
      <point x="203" y="43"/>
      <point x="133" y="180"/>
      <point x="133" y="353" type="curve" smooth="yes"/>
      <point x="133" y="526"/>
      <point x="203" y="662"/>
      <point x="347" y="662" type="curve" smooth="yes"/>
      <point x="385" y="662"/>
      <point x="434" y="652"/>
      <point x="473" y="639" type="curve"/>
      <point x="479" y="619"/>
      <point x="485" y="598"/>
      <point x="485" y="589" type="curve" smooth="yes"/>
      <point x="485" y="542" type="line"/>
      <point x="544" y="538" type="line"/>
      <point x="554" y="686" type="line"/>
      <point x="491" y="702"/>
      <point x="429" y="720"/>
      <point x="347" y="720" type="curve" smooth="yes"/>
      <point x="137" y="720"/>
      <point x="30" y="570"/>
      <point x="30" y="352" type="curve" smooth="yes"/>
      <point x="30" y="134"/>
      <point x="137" y="-15"/>
      <point x="347" y="-15" type="curve" smooth="yes"/>
      <point x="428" y="-15"/>
      <point x="500" y="3"/>
      <point x="563" y="19" type="curve"/>
    </contour>
    <contour>
      <point x="378" y="749" type="line"/>
      <point x="519" y="836" type="line"/>
      <point x="495" y="875" type="line"/>
      <point x="304" y="788" type="line"/>
      <point x="337" y="749" type="line"/>
    </contour>
    <contour>
      <point x="385" y="788" type="line"/>
      <point x="194" y="875" type="line"/>
      <point x="170" y="836" type="line"/>
      <point x="311" y="749" type="line"/>
      <point x="352" y="749" type="line"/>
    </contour>
    <contour>
      <point x="344" y="396" type="move" name="_top_caps"/>
    </contour>
    <contour>
      <point x="347" y="0" type="move" name="bottom"/>
    </contour>
    <contour>
      <point x="344" y="705" type="move" name="top"/>
    </contour>
  </outline>
</glyph>
<glyph name="ccaron" format="1">
  <advance width="477"/>
  <unicode hex="010D"/>
  <outline>
    <contour>
      <point x="126" y="503"/>
      <point x="49" y="399"/>
      <point x="49" y="246" type="curve" smooth="yes"/>
      <point x="49" y="93"/>
      <point x="125" y="-10"/>
      <point x="278" y="-10" type="curve" smooth="yes"/>
      <point x="382" y="-10"/>
      <point x="447" y="44"/>
      <point x="447" y="44" type="curve"/>
      <point x="419" y="91" type="line"/>
      <point x="419" y="91"/>
      <point x="357" y="55"/>
      <point x="279" y="55" type="curve" smooth="yes"/>
      <point x="179" y="55"/>
      <point x="143" y="146"/>
      <point x="143" y="246" type="curve" smooth="yes"/>
      <point x="143" y="346"/>
      <point x="179" y="446"/>
      <point x="279" y="446" type="curve" smooth="yes"/>
      <point x="308" y="446"/>
      <point x="332" y="440"/>
      <point x="361" y="416" type="curve"/>
      <point x="365" y="402"/>
      <point x="368" y="389"/>
      <point x="368" y="382" type="curve" smooth="yes"/>
      <point x="368" y="346" type="line"/>
      <point x="426" y="343" type="line"/>
      <point x="436" y="468" type="line"/>
      <point x="376" y="488"/>
      <point x="338" y="503"/>
      <point x="279" y="503" type="curve" smooth="yes"/>
    </contour>
    <contour>
      <point x="316" y="584" type="line"/>
      <point x="447" y="715" type="line"/>
      <point x="414" y="747" type="line"/>
      <point x="242" y="618" type="line"/>
      <point x="275" y="584" type="line"/>
    </contour>
    <contour>
      <point x="148" y="747" type="line"/>
      <point x="115" y="715" type="line"/>
      <point x="246" y="584" type="line"/>
      <point x="297" y="584" type="line"/>
      <point x="320" y="618" type="line"/>
    </contour>
    <contour>
      <point x="282" y="494" type="move" name="top"/>
    </contour>
    <contour>
      <point x="266" y="0" type="move" name="bottom"/>
    </contour>
    <contour>
      <point x="282" y="494" type="move" name="_top"/>
    </contour>
  </outline>
</glyph>
<glyph name="Dcaron" format="1">
  <advance width="704"/>
  <unicode hex="010E"/>
  <outline>
    <contour>
      <point x="44" y="710" type="curve"/>
      <point x="39" y="656" type="line"/>
      <point x="116" y="644" type="line"/>
      <point x="118" y="631"/>
      <point x="125" y="585"/>
      <point x="125" y="568" type="curve" smooth="yes"/>
      <point x="125" y="137" type="line" smooth="yes"/>
      <point x="125" y="120"/>
      <point x="118" y="74"/>
      <point x="116" y="61" type="curve"/>
      <point x="37" y="45" type="line"/>
      <point x="42" y="-5" type="line"/>
      <point x="42" y="-5"/>
      <point x="152" y="0"/>
      <point x="177" y="0" type="curve" smooth="yes"/>
      <point x="227" y="0"/>
      <point x="279" y="-4"/>
      <point x="329" y="-4" type="curve" smooth="yes"/>
      <point x="545" y="-4"/>
      <point x="674" y="141"/>
      <point x="674" y="352" type="curve" smooth="yes"/>
      <point x="674" y="570"/>
      <point x="552" y="710"/>
      <point x="329" y="710" type="curve" smooth="yes"/>
      <point x="263" y="710"/>
      <point x="223" y="705"/>
      <point x="159" y="705" type="curve" smooth="yes"/>
      <point x="139" y="705"/>
      <point x="77" y="708"/>
    </contour>
    <contour>
      <point x="497" y="650"/>
      <point x="575" y="514"/>
      <point x="575" y="352" type="curve" smooth="yes"/>
      <point x="575" y="189"/>
      <point x="497" y="55"/>
      <point x="330" y="55" type="curve" smooth="yes"/>
      <point x="286" y="55"/>
      <point x="249" y="57"/>
      <point x="223" y="58" type="curve"/>
      <point x="222" y="62"/>
      <point x="216" y="119"/>
      <point x="216" y="167" type="curve" smooth="yes"/>
      <point x="216" y="538" type="line" smooth="yes"/>
      <point x="216" y="578"/>
      <point x="221" y="631"/>
      <point x="223" y="650" type="curve"/>
      <point x="248" y="650"/>
      <point x="284" y="650"/>
      <point x="330" y="650" type="curve" smooth="yes"/>
    </contour>
    <contour>
      <point x="360" y="749" type="line"/>
      <point x="501" y="836" type="line"/>
      <point x="477" y="875" type="line"/>
      <point x="286" y="788" type="line"/>
      <point x="319" y="749" type="line"/>
    </contour>
    <contour>
      <point x="367" y="788" type="line"/>
      <point x="176" y="875" type="line"/>
      <point x="152" y="836" type="line"/>
      <point x="293" y="749" type="line"/>
      <point x="334" y="749" type="line"/>
    </contour>
    <contour>
      <point x="326" y="396" type="move" name="_top_caps"/>
    </contour>
    <contour>
      <point x="356" y="353" type="move" name="center"/>
    </contour>
    <contour>
      <point x="326" y="705" type="move" name="top"/>
    </contour>
  </outline>
</glyph>
<glyph name="dcaron" format="1">
  <advance width="563"/>
  <unicode hex="010F"/>
  <outline>
    <contour>
      <point x="546" y="54" type="line"/>
      <point x="477" y="61" type="line"/>
      <point x="477" y="61"/>
      <point x="467" y="117"/>
      <point x="467" y="167" type="curve" smooth="yes"/>
      <point x="467" y="585" type="line" smooth="yes"/>
      <point x="467" y="635"/>
      <point x="474" y="738"/>
      <point x="474" y="738" type="curve"/>
      <point x="455" y="756" type="line"/>
      <point x="397" y="756" type="line" smooth="yes"/>
      <point x="377" y="756"/>
      <point x="293" y="760"/>
      <point x="293" y="760" type="curve"/>
      <point x="288" y="707" type="line"/>
      <point x="376" y="691" type="line"/>
      <point x="376" y="691"/>
      <point x="386" y="635"/>
      <point x="386" y="615" type="curve" smooth="yes"/>
      <point x="386" y="479" type="line"/>
      <point x="333" y="498"/>
      <point x="303" y="503"/>
      <point x="261" y="503" type="curve" smooth="yes"/>
      <point x="131" y="503"/>
      <point x="51" y="405"/>
      <point x="51" y="247" type="curve" smooth="yes"/>
      <point x="51" y="87"/>
      <point x="127" y="-10"/>
      <point x="252" y="-10" type="curve" smooth="yes"/>
      <point x="305" y="-10"/>
      <point x="376" y="34"/>
      <point x="396" y="80" type="curve"/>
      <point x="410" y="0" type="line"/>
      <point x="490" y="0"/>
      <point x="540" y="0"/>
      <point x="540" y="0" type="curve"/>
    </contour>
    <contour>
      <point x="386" y="207" type="line"/>
      <point x="386" y="111"/>
      <point x="339" y="54"/>
      <point x="259" y="54" type="curve" smooth="yes"/>
      <point x="187" y="54"/>
      <point x="143" y="127"/>
      <point x="143" y="246" type="curve" smooth="yes"/>
      <point x="143" y="370"/>
      <point x="190" y="442"/>
      <point x="271" y="442" type="curve" smooth="yes"/>
      <point x="313" y="442"/>
      <point x="348" y="431"/>
      <point x="386" y="406" type="curve"/>
    </contour>
    <contour>
      <point x="602" y="705" type="line"/>
      <point x="589" y="462" type="line"/>
      <point x="533" y="465" type="line"/>
      <point x="525" y="705" type="line"/>
    </contour>
    <contour>
      <point x="292" y="247" type="move" name="center"/>
    </contour>
  </outline>
</glyph>
<glyph name="ebreve" format="1">
  <advance width="503"/>
  <unicode hex="0115"/>
  <outline>
    <contour>
      <point x="120" y="503"/>
      <point x="49" y="395"/>
      <point x="49" y="245" type="curve" smooth="yes"/>
      <point x="49" y="94"/>
      <point x="128" y="-10"/>
      <point x="279" y="-10" type="curve" smooth="yes"/>
      <point x="392" y="-10"/>
      <point x="456" y="50"/>
      <point x="456" y="50" type="curve"/>
      <point x="428" y="96" type="line"/>
      <point x="428" y="96"/>
      <point x="364" y="55"/>
      <point x="279" y="55" type="curve" smooth="yes"/>
      <point x="185" y="55"/>
      <point x="143" y="156"/>
      <point x="143" y="250" type="curve" smooth="yes"/>
      <point x="143" y="344"/>
      <point x="169" y="451"/>
      <point x="263" y="451" type="curve" smooth="yes"/>
      <point x="334" y="451"/>
      <point x="367" y="395"/>
      <point x="367" y="324" type="curve" smooth="yes"/>
      <point x="367" y="319"/>
      <point x="366" y="304"/>
      <point x="366" y="304" type="curve"/>
      <point x="124" y="286" type="line"/>
      <point x="124" y="237" type="line"/>
      <point x="442" y="237" type="line"/>
      <point x="459" y="270" type="line"/>
      <point x="459" y="410"/>
      <point x="407" y="503"/>
      <point x="267" y="503" type="curve" smooth="yes"/>
    </contour>
    <contour>
      <point x="353" y="704" type="line"/>
      <point x="353" y="654"/>
      <point x="320" y="620"/>
      <point x="270" y="620" type="curve"/>
      <point x="220" y="620"/>
      <point x="187" y="654"/>
      <point x="187" y="704" type="curve"/>
      <point x="131" y="704" type="line"/>
      <point x="131" y="614"/>
      <point x="180" y="564"/>
      <point x="270" y="564" type="curve" smooth="yes"/>
      <point x="360" y="564"/>
      <point x="409" y="614"/>
      <point x="409" y="704" type="curve"/>
    </contour>
    <contour>
      <point x="412" y="21" type="move" name="ogonek"/>
    </contour>
    <contour>
      <point x="270" y="494" type="move" name="top"/>
    </contour>
    <contour>
      <point x="270" y="494" type="move" name="_top"/>
    </contour>
    <contour>
      <point x="277" y="0" type="move" name="bottom"/>
    </contour>
  </outline>
</glyph>
<glyph name="Gcircumflex" format="1">
  <advance width="665"/>
  <unicode hex="011C"/>
  <outline>
    <contour>
      <point x="509" y="619"/>
      <point x="515" y="598"/>
      <point x="515" y="589" type="curve" smooth="yes"/>
      <point x="515" y="542" type="line"/>
      <point x="574" y="538" type="line"/>
      <point x="584" y="686" type="line"/>
      <point x="517" y="702"/>
      <point x="451" y="720"/>
      <point x="364" y="720" type="curve" smooth="yes"/>
      <point x="143" y="720"/>
      <point x="30" y="570"/>
      <point x="30" y="352" type="curve" smooth="yes"/>
      <point x="30" y="134"/>
      <point x="143" y="-15"/>
      <point x="364" y="-15" type="curve" smooth="yes"/>
      <point x="450" y="-15"/>
      <point x="526" y="3"/>
      <point x="593" y="19" type="curve"/>
      <point x="593" y="166" type="line" smooth="yes"/>
      <point x="593" y="216"/>
      <point x="602" y="319"/>
      <point x="602" y="319" type="curve"/>
      <point x="584" y="336" type="line"/>
      <point x="584" y="336"/>
      <point x="533" y="333"/>
      <point x="513" y="333" type="curve"/>
      <point x="402" y="333" type="line"/>
      <point x="397" y="275" type="line"/>
      <point x="503" y="267" type="line"/>
      <point x="503" y="267"/>
      <point x="513" y="216"/>
      <point x="513" y="196" type="curve" smooth="yes"/>
      <point x="513" y="128" type="line" smooth="yes"/>
      <point x="513" y="117"/>
      <point x="507" y="89"/>
      <point x="501" y="63" type="curve"/>
      <point x="456" y="51"/>
      <point x="401" y="43"/>
      <point x="361" y="43" type="curve" smooth="yes"/>
      <point x="206" y="43"/>
      <point x="131" y="180"/>
      <point x="131" y="353" type="curve" smooth="yes"/>
      <point x="131" y="526"/>
      <point x="206" y="662"/>
      <point x="361" y="662" type="curve" smooth="yes"/>
      <point x="404" y="662"/>
      <point x="459" y="652"/>
      <point x="503" y="639" type="curve"/>
    </contour>
    <contour>
      <point x="344" y="867" type="line"/>
      <point x="203" y="780" type="line"/>
      <point x="227" y="741" type="line"/>
      <point x="418" y="828" type="line"/>
      <point x="385" y="867" type="line"/>
    </contour>
    <contour>
      <point x="337" y="828" type="line"/>
      <point x="528" y="741" type="line"/>
      <point x="552" y="780" type="line"/>
      <point x="411" y="867" type="line"/>
      <point x="370" y="867" type="line"/>
    </contour>
    <contour>
      <point x="378" y="705" type="move" name="top"/>
    </contour>
    <contour>
      <point x="380" y="0" type="move" name="bottom"/>
    </contour>
    <contour>
      <point x="378" y="705" type="move" name="_top"/>
    </contour>
  </outline>
</glyph>
<glyph name="gbreve" format="1">
  <advance width="508"/>
  <unicode hex="011F"/>
  <outline>
    <contour>
      <point x="471" y="440" type="line"/>
      <point x="471" y="498" type="line"/>
      <point x="349" y="479" type="line"/>
      <point x="319" y="494"/>
      <point x="284" y="503"/>
      <point x="244" y="503" type="curve" smooth="yes"/>
      <point x="128" y="503"/>
      <point x="51" y="431"/>
      <point x="51" y="322" type="curve" smooth="yes"/>
      <point x="51" y="250"/>
      <point x="85" y="194"/>
      <point x="141" y="164" type="curve"/>
      <point x="92" y="123"/>
      <point x="69" y="98"/>
      <point x="69" y="84" type="curve" smooth="yes"/>
      <point x="69" y="49"/>
      <point x="84" y="26"/>
      <point x="120" y="11" type="curve"/>
      <point x="67" y="-31"/>
      <point x="29" y="-72"/>
      <point x="29" y="-90" type="curve" smooth="yes"/>
      <point x="29" y="-185"/>
      <point x="97" y="-235"/>
      <point x="227" y="-235" type="curve" smooth="yes"/>
      <point x="367" y="-235"/>
      <point x="481" y="-149"/>
      <point x="481" y="-44" type="curve" smooth="yes"/>
      <point x="481" y="4"/>
      <point x="465" y="34"/>
      <point x="436" y="43" type="curve" smooth="yes"/>
      <point x="398" y="55"/>
      <point x="311" y="64"/>
      <point x="243" y="73" type="curve" smooth="yes"/>
      <point x="168" y="82"/>
      <point x="149" y="88"/>
      <point x="149" y="108" type="curve" smooth="yes"/>
      <point x="149" y="114"/>
      <point x="157" y="128"/>
      <point x="176" y="150" type="curve"/>
      <point x="197" y="144"/>
      <point x="219" y="141"/>
      <point x="244" y="141" type="curve" smooth="yes"/>
      <point x="360" y="141"/>
      <point x="437" y="213"/>
      <point x="437" y="322" type="curve" smooth="yes"/>
      <point x="437" y="372"/>
      <point x="421" y="415"/>
      <point x="391" y="446" type="curve"/>
    </contour>
    <contour>
      <point x="177" y="-6"/>
      <point x="200" y="-10"/>
      <point x="227" y="-13" type="curve" smooth="yes"/>
      <point x="357" y="-30" type="line" smooth="yes"/>
      <point x="387" y="-34"/>
      <point x="396" y="-45"/>
      <point x="396" y="-75" type="curve" smooth="yes"/>
      <point x="396" y="-136"/>
      <point x="337" y="-178"/>
      <point x="255" y="-178" type="curve" smooth="yes"/>
      <point x="159" y="-178"/>
      <point x="115" y="-147"/>
      <point x="115" y="-79" type="curve" smooth="yes"/>
      <point x="115" y="-60"/>
      <point x="123" y="-44"/>
      <point x="158" y="-1" type="curve"/>
    </contour>
    <contour>
      <point x="315" y="452"/>
      <point x="350" y="409"/>
      <point x="350" y="322" type="curve" smooth="yes"/>
      <point x="350" y="235"/>
      <point x="315" y="192"/>
      <point x="244" y="192" type="curve" smooth="yes"/>
      <point x="173" y="192"/>
      <point x="138" y="235"/>
      <point x="138" y="322" type="curve" smooth="yes"/>
      <point x="138" y="408"/>
      <point x="174" y="452"/>
      <point x="244" y="452" type="curve" smooth="yes"/>
    </contour>
    <contour>
      <point x="333" y="704" type="line"/>
      <point x="333" y="654"/>
      <point x="300" y="620"/>
      <point x="250" y="620" type="curve"/>
      <point x="200" y="620"/>
      <point x="167" y="654"/>
      <point x="167" y="704" type="curve"/>
      <point x="111" y="704" type="line"/>
      <point x="111" y="614"/>
      <point x="160" y="564"/>
      <point x="250" y="564" type="curve" smooth="yes"/>
      <point x="340" y="564"/>
      <point x="389" y="614"/>
      <point x="389" y="704" type="curve"/>
    </contour>
    <contour>
      <point x="250" y="494" type="move" name="top"/>
    </contour>
    <contour>
      <point x="250" y="494" type="move" name="_top"/>
    </contour>
  </outline>
</glyph>
<glyph name="Itilde" format="1">
  <advance width="343"/>
  <unicode hex="0128"/>
  <outline>
    <contour>
      <point x="297" y="710" type="line"/>
      <point x="297" y="710"/>
      <point x="219" y="705"/>
      <point x="159" y="705" type="curve" smooth="yes"/>
      <point x="139" y="705"/>
      <point x="44" y="710"/>
      <point x="44" y="710" type="curve"/>
      <point x="39" y="656" type="line"/>
      <point x="116" y="644" type="line"/>
      <point x="118" y="631"/>
      <point x="125" y="585"/>
      <point x="125" y="568" type="curve" smooth="yes"/>
      <point x="125" y="137" type="line" smooth="yes"/>
      <point x="125" y="120"/>
      <point x="118" y="74"/>
      <point x="116" y="61" type="curve"/>
      <point x="37" y="45" type="line"/>
      <point x="42" y="-5" type="line"/>
      <point x="42" y="-5"/>
      <point x="152" y="0"/>
      <point x="177" y="0" type="curve"/>
      <point x="307" y="0" type="line"/>
      <point x="313" y="54" type="line"/>
      <point x="223" y="61" type="line"/>
      <point x="221" y="75"/>
      <point x="216" y="125"/>
      <point x="216" y="167" type="curve" smooth="yes"/>
      <point x="216" y="538" type="line" smooth="yes"/>
      <point x="216" y="580"/>
      <point x="221" y="630"/>
      <point x="223" y="644" type="curve"/>
      <point x="301" y="651" type="line"/>
    </contour>
    <contour>
      <point x="303" y="870" type="line"/>
      <point x="303" y="870"/>
      <point x="277" y="819"/>
      <point x="250" y="819" type="curve" smooth="yes"/>
      <point x="210" y="819"/>
      <point x="125" y="860"/>
      <point x="85" y="860" type="curve" smooth="yes"/>
      <point x="45" y="860"/>
      <point x="3" y="759"/>
      <point x="3" y="759" type="curve"/>
      <point x="39" y="738" type="line"/>
      <point x="39" y="738"/>
      <point x="65" y="792"/>
      <point x="92" y="792" type="curve" smooth="yes"/>
      <point x="132" y="792"/>
      <point x="216" y="751"/>
      <point x="256" y="751" type="curve" smooth="yes"/>
      <point x="296" y="751"/>
      <point x="339" y="849"/>
      <point x="339" y="849" type="curve"/>
    </contour>
    <contour>
      <point x="306" y="0" type="move" name="ogonek"/>
    </contour>
    <contour>
      <point x="171" y="705" type="move" name="top"/>
    </contour>
    <contour>
      <point x="171" y="705" type="move" name="_top"/>
    </contour>
    <contour>
      <point x="179" y="0" type="move" name="bottom"/>
    </contour>
  </outline>
</glyph>
<glyph name="itilde" format="1">
  <advance width="290"/>
  <unicode hex="0129"/>
  <outline>
    <contour>
      <point x="277" y="54" type="line"/>
      <point x="199" y="61" type="line"/>
      <point x="199" y="61"/>
      <point x="192" y="117"/>
      <point x="192" y="167" type="curve" smooth="yes"/>
      <point x="192" y="323" type="line" smooth="yes"/>
      <point x="192" y="373"/>
      <point x="199" y="476"/>
      <point x="199" y="476" type="curve"/>
      <point x="180" y="494" type="line"/>
      <point x="122" y="494" type="line" smooth="yes"/>
      <point x="102" y="494"/>
      <point x="30" y="498"/>
      <point x="30" y="498" type="curve"/>
      <point x="25" y="445" type="line"/>
      <point x="101" y="429" type="line"/>
      <point x="101" y="429"/>
      <point x="111" y="373"/>
      <point x="111" y="353" type="curve" smooth="yes"/>
      <point x="111" y="137" type="line" smooth="yes"/>
      <point x="111" y="117"/>
      <point x="101" y="61"/>
      <point x="101" y="61" type="curve"/>
      <point x="25" y="45" type="line"/>
      <point x="30" y="-5" type="line"/>
      <point x="30" y="-5"/>
      <point x="121" y="0"/>
      <point x="141" y="0" type="curve" smooth="yes"/>
      <point x="221" y="0"/>
      <point x="271" y="0"/>
      <point x="271" y="0" type="curve"/>
    </contour>
    <contour>
      <point x="226" y="714" type="line"/>
      <point x="226" y="714"/>
      <point x="200" y="664"/>
      <point x="173" y="664" type="curve" smooth="yes"/>
      <point x="138" y="664"/>
      <point x="92" y="705"/>
      <point x="58" y="705" type="curve" smooth="yes"/>
      <point x="18" y="705"/>
      <point x="-24" y="603"/>
      <point x="-24" y="603" type="curve"/>
      <point x="12" y="582" type="line"/>
      <point x="12" y="582"/>
      <point x="38" y="635"/>
      <point x="65" y="635" type="curve" smooth="yes"/>
      <point x="100" y="635"/>
      <point x="144" y="594"/>
      <point x="180" y="594" type="curve" smooth="yes"/>
      <point x="219" y="594"/>
      <point x="262" y="693"/>
      <point x="262" y="693" type="curve"/>
    </contour>
    <contour>
      <point x="271" y="0" type="move" name="ogonek"/>
    </contour>
    <contour>
      <point x="119" y="494" type="move" name="top"/>
    </contour>
    <contour>
      <point x="119" y="494" type="move" name="_top"/>
    </contour>
  </outline>
</glyph>
<glyph name="iogonek" format="1">
  <advance width="290"/>
  <unicode hex="012F"/>
  <outline>
    <contour>
      <point x="277" y="54" type="line"/>
      <point x="199" y="61" type="line"/>
      <point x="199" y="61"/>
      <point x="192" y="117"/>
      <point x="192" y="167" type="curve" smooth="yes"/>
      <point x="192" y="323" type="line" smooth="yes"/>
      <point x="192" y="373"/>
      <point x="199" y="476"/>
      <point x="199" y="476" type="curve"/>
      <point x="180" y="494" type="line"/>
      <point x="122" y="494" type="line" smooth="yes"/>
      <point x="102" y="494"/>
      <point x="30" y="498"/>
      <point x="30" y="498" type="curve"/>
      <point x="25" y="445" type="line"/>
      <point x="101" y="429" type="line"/>
      <point x="101" y="429"/>
      <point x="111" y="373"/>
      <point x="111" y="353" type="curve" smooth="yes"/>
      <point x="111" y="137" type="line" smooth="yes"/>
      <point x="111" y="117"/>
      <point x="101" y="61"/>
      <point x="101" y="61" type="curve"/>
      <point x="25" y="45" type="line"/>
      <point x="30" y="-5" type="line"/>
      <point x="30" y="-5"/>
      <point x="121" y="0"/>
      <point x="141" y="0" type="curve" smooth="yes"/>
      <point x="221" y="0"/>
      <point x="271" y="0"/>
      <point x="271" y="0" type="curve"/>
    </contour>
    <contour>
      <point x="99" y="720"/>
      <point x="78" y="693"/>
      <point x="78" y="655" type="curve" smooth="yes"/>
      <point x="78" y="617"/>
      <point x="99" y="591"/>
      <point x="137" y="591" type="curve" smooth="yes"/>
      <point x="175" y="591"/>
      <point x="196" y="617"/>
      <point x="196" y="655" type="curve" smooth="yes"/>
      <point x="196" y="696"/>
      <point x="174" y="720"/>
      <point x="137" y="720" type="curve" smooth="yes"/>
    </contour>
    <contour>
      <point x="123" y="-29"/>
      <point x="94" y="-74"/>
      <point x="94" y="-120" type="curve" smooth="yes"/>
      <point x="94" y="-189"/>
      <point x="158" y="-211"/>
      <point x="209" y="-211" type="curve" smooth="yes"/>
      <point x="231" y="-211"/>
      <point x="255" y="-206"/>
      <point x="273" y="-199" type="curve"/>
      <point x="262" y="-156" type="line"/>
      <point x="251" y="-159"/>
      <point x="239" y="-161"/>
      <point x="228" y="-161" type="curve" smooth="yes"/>
      <point x="188" y="-161"/>
      <point x="169" y="-141"/>
      <point x="169" y="-115" type="curve" smooth="yes"/>
      <point x="169" y="-78"/>
      <point x="207" y="-26"/>
      <point x="271" y="0" type="curve"/>
      <point x="205" y="10" type="line"/>
    </contour>
    <contour>
      <point x="271" y="0" type="move" name="ogonek"/>
    </contour>
    <contour>
      <point x="119" y="494" type="move" name="top"/>
    </contour>
    <contour>
      <point x="137" y="514" type="move" name="_top"/>
    </contour>
    <contour>
      <point x="149" y="0" type="move" name="bottom"/>
    </contour>
  </outline>
</glyph>
<glyph name="dotlessi" format="1">
  <advance width="290"/>
  <unicode hex="0131"/>
  <outline>
    <contour>
      <point x="277" y="54" type="line"/>
      <point x="199" y="61" type="line"/>
      <point x="199" y="61"/>
      <point x="192" y="117"/>
      <point x="192" y="167" type="curve" smooth="yes"/>
      <point x="192" y="323" type="line" smooth="yes"/>
      <point x="192" y="373"/>
      <point x="199" y="476"/>
      <point x="199" y="476" type="curve"/>
      <point x="180" y="494" type="line"/>
      <point x="122" y="494" type="line" smooth="yes"/>
      <point x="102" y="494"/>
      <point x="30" y="498"/>
      <point x="30" y="498" type="curve"/>
      <point x="25" y="445" type="line"/>
      <point x="101" y="429" type="line"/>
      <point x="101" y="429"/>
      <point x="111" y="373"/>
      <point x="111" y="353" type="curve" smooth="yes"/>
      <point x="111" y="137" type="line" smooth="yes"/>
      <point x="111" y="117"/>
      <point x="101" y="61"/>
      <point x="101" y="61" type="curve"/>
      <point x="25" y="45" type="line"/>
      <point x="30" y="-5" type="line"/>
      <point x="30" y="-5"/>
      <point x="121" y="0"/>
      <point x="141" y="0" type="curve" smooth="yes"/>
      <point x="221" y="0"/>
      <point x="271" y="0"/>
      <point x="271" y="0" type="curve"/>
    </contour>
    <contour>
      <point x="271" y="0" type="move" name="ogonek"/>
    </contour>
    <contour>
      <point x="119" y="494" type="move" name="top"/>
    </contour>
  </outline>
</glyph>
